<?xml version='1.0' encoding='UTF-8'?>
<svg width="113mm" height="113mm" version="1.1" viewBox="0 0 113 113" xmlns="http://www.w3.org/2000/svg"><path d="M4,4H5V5H4zM5,4H6V5H5zM6,4H7V5H6zM7,4H8V5H7zM8,4H9V5H8zM9,4H10V5H9zM10,4H11V5H10zM12,4H13V5H12zM16,4H17V5H16zM19,4H20V5H19zM22,4H23V5H22zM23,4H24V5H23zM24,4H25V5H24zM25,4H26V5H25zM26,4H27V5H26zM28,4H29V5H28zM29,4H30V5H29zM35,4H36V5H35zM36,4H37V5H36zM37,4H38V5H37zM42,4H43V5H42zM43,4H44V5H43zM44,4H45V5H44zM46,4H47V5H46zM50,4H51V5H50zM52,4H53V5H52zM57,4H58V5H57zM59,4H60V5H59zM60,4H61V5H60zM66,4H67V5H66zM68,4H69V5H68zM69,4H70V5H69zM70,4H71V5H70zM71,4H72V5H71zM75,4H76V5H75zM76,4H77V5H76zM78,4H79V5H78zM79,4H80V5H79zM83,4H84V5H83zM86,4H87V5H86zM87,4H88V5H87zM89,4H90V5H89zM93,4H94V5H93zM96,4H97V5H96zM97,4H98V5H97zM98,4H99V5H98zM102,4H103V5H102zM103,4H104V5H103zM104,4H105V5H104zM105,4H106V5H105zM106,4H107V5H106zM107,4H108V5H107zM108,4H109V5H108zM4,5H5V6H4zM10,5H11V6H10zM12,5H13V6H12zM13,5H14V6H13zM14,5H15V6H14zM17,5H18V6H17zM18,5H19V6H18zM19,5H20V6H19zM21,5H22V6H21zM29,5H30V6H29zM30,5H31V6H30zM33,5H34V6H33zM35,5H36V6H35zM36,5H37V6H36zM39,5H40V6H39zM40,5H41V6H40zM42,5H43V6H42zM45,5H46V6H45zM50,5H51V6H50zM51,5H52V6H51zM57,5H58V6H57zM58,5H59V6H58zM59,5H60V6H59zM64,5H65V6H64zM65,5H66V6H65zM69,5H70V6H69zM73,5H74V6H73zM75,5H76V6H75zM80,5H81V6H80zM81,5H82V6H81zM82,5H83V6H82zM84,5H85V6H84zM85,5H86V6H85zM87,5H88V6H87zM89,5H90V6H89zM94,5H95V6H94zM97,5H98V6H97zM98,5H99V6H98zM102,5H103V6H102zM108,5H109V6H108zM4,6H5V7H4zM6,6H7V7H6zM7,6H8V7H7zM8,6H9V7H8zM10,6H11V7H10zM14,6H15V7H14zM17,6H18V7H17zM19,6H20V7H19zM21,6H22V7H21zM23,6H24V7H23zM24,6H25V7H24zM28,6H29V7H28zM31,6H32V7H31zM32,6H33V7H32zM35,6H36V7H35zM38,6H39V7H38zM42,6H43V7H42zM43,6H44V7H43zM45,6H46V7H45zM46,6H47V7H46zM47,6H48V7H47zM48,6H49V7H48zM50,6H51V7H50zM51,6H52V7H51zM55,6H56V7H55zM56,6H57V7H56zM57,6H58V7H57zM59,6H60V7H59zM61,6H62V7H61zM62,6H63V7H62zM63,6H64V7H63zM64,6H65V7H64zM67,6H68V7H67zM69,6H70V7H69zM70,6H71V7H70zM71,6H72V7H71zM73,6H74V7H73zM74,6H75V7H74zM75,6H76V7H75zM76,6H77V7H76zM77,6H78V7H77zM78,6H79V7H78zM82,6H83V7H82zM83,6H84V7H83zM86,6H87V7H86zM87,6H88V7H87zM88,6H89V7H88zM90,6H91V7H90zM93,6H94V7H93zM97,6H98V7H97zM98,6H99V7H98zM99,6H100V7H99zM102,6H103V7H102zM104,6H105V7H104zM105,6H106V7H105zM106,6H107V7H106zM108,6H109V7H108zM4,7H5V8H4zM6,7H7V8H6zM7,7H8V8H7zM8,7H9V8H8zM10,7H11V8H10zM13,7H14V8H13zM15,7H16V8H15zM16,7H17V8H16zM17,7H18V8H17zM18,7H19V8H18zM19,7H20V8H19zM24,7H25V8H24zM25,7H26V8H25zM26,7H27V8H26zM32,7H33V8H32zM37,7H38V8H37zM40,7H41V8H40zM42,7H43V8H42zM43,7H44V8H43zM46,7H47V8H46zM53,7H54V8H53zM56,7H57V8H56zM57,7H58V8H57zM59,7H60V8H59zM62,7H63V8H62zM66,7H67V8H66zM67,7H68V8H67zM68,7H69V8H68zM69,7H70V8H69zM70,7H71V8H70zM73,7H74V8H73zM74,7H75V8H74zM76,7H77V8H76zM77,7H78V8H77zM81,7H82V8H81zM82,7H83V8H82zM83,7H84V8H83zM84,7H85V8H84zM86,7H87V8H86zM88,7H89V8H88zM91,7H92V8H91zM92,7H93V8H92zM94,7H95V8H94zM96,7H97V8H96zM100,7H101V8H100zM102,7H103V8H102zM104,7H105V8H104zM105,7H106V8H105zM106,7H107V8H106zM108,7H109V8H108zM4,8H5V9H4zM6,8H7V9H6zM7,8H8V9H7zM8,8H9V9H8zM10,8H11V9H10zM15,8H16V9H15zM16,8H17V9H16zM17,8H18V9H17zM18,8H19V9H18zM20,8H21V9H20zM21,8H22V9H21zM22,8H23V9H22zM24,8H25V9H24zM25,8H26V9H25zM26,8H27V9H26zM27,8H28V9H27zM28,8H29V9H28zM29,8H30V9H29zM30,8H31V9H30zM31,8H32V9H31zM32,8H33V9H32zM34,8H35V9H34zM37,8H38V9H37zM38,8H39V9H38zM39,8H40V9H39zM41,8H42V9H41zM43,8H44V9H43zM47,8H48V9H47zM48,8H49V9H48zM49,8H50V9H49zM50,8H51V9H50zM51,8H52V9H51zM52,8H53V9H52zM53,8H54V9H53zM54,8H55V9H54zM55,8H56V9H55zM56,8H57V9H56zM57,8H58V9H57zM59,8H60V9H59zM60,8H61V9H60zM61,8H62V9H61zM62,8H63V9H62zM64,8H65V9H64zM65,8H66V9H65zM68,8H69V9H68zM69,8H70V9H69zM70,8H71V9H70zM73,8H74V9H73zM74,8H75V9H74zM75,8H76V9H75zM76,8H77V9H76zM77,8H78V9H77zM78,8H79V9H78zM79,8H80V9H79zM80,8H81V9H80zM81,8H82V9H81zM82,8H83V9H82zM83,8H84V9H83zM85,8H86V9H85zM86,8H87V9H86zM89,8H90V9H89zM91,8H92V9H91zM92,8H93V9H92zM97,8H98V9H97zM99,8H100V9H99zM100,8H101V9H100zM102,8H103V9H102zM104,8H105V9H104zM105,8H106V9H105zM106,8H107V9H106zM108,8H109V9H108zM4,9H5V10H4zM10,9H11V10H10zM14,9H15V10H14zM18,9H19V10H18zM20,9H21V10H20zM21,9H22V10H21zM23,9H24V10H23zM24,9H25V10H24zM28,9H29V10H28zM32,9H33V10H32zM33,9H34V10H33zM36,9H37V10H36zM37,9H38V10H37zM39,9H40V10H39zM41,9H42V10H41zM43,9H44V10H43zM45,9H46V10H45zM52,9H53V10H52zM56,9H57V10H56zM57,9H58V10H57zM59,9H60V10H59zM61,9H62V10H61zM65,9H66V10H65zM67,9H68V10H67zM68,9H69V10H68zM70,9H71V10H70zM71,9H72V10H71zM72,9H73V10H72zM73,9H74V10H73zM76,9H77V10H76zM80,9H81V10H80zM81,9H82V10H81zM82,9H83V10H82zM83,9H84V10H83zM85,9H86V10H85zM89,9H90V10H89zM91,9H92V10H91zM92,9H93V10H92zM95,9H96V10H95zM96,9H97V10H96zM97,9H98V10H97zM99,9H100V10H99zM102,9H103V10H102zM108,9H109V10H108zM4,10H5V11H4zM5,10H6V11H5zM6,10H7V11H6zM7,10H8V11H7zM8,10H9V11H8zM9,10H10V11H9zM10,10H11V11H10zM12,10H13V11H12zM14,10H15V11H14zM16,10H17V11H16zM18,10H19V11H18zM20,10H21V11H20zM22,10H23V11H22zM24,10H25V11H24zM26,10H27V11H26zM28,10H29V11H28zM30,10H31V11H30zM32,10H33V11H32zM34,10H35V11H34zM36,10H37V11H36zM38,10H39V11H38zM40,10H41V11H40zM42,10H43V11H42zM44,10H45V11H44zM46,10H47V11H46zM48,10H49V11H48zM50,10H51V11H50zM52,10H53V11H52zM54,10H55V11H54zM56,10H57V11H56zM58,10H59V11H58zM60,10H61V11H60zM62,10H63V11H62zM64,10H65V11H64zM66,10H67V11H66zM68,10H69V11H68zM70,10H71V11H70zM72,10H73V11H72zM74,10H75V11H74zM76,10H77V11H76zM78,10H79V11H78zM80,10H81V11H80zM82,10H83V11H82zM84,10H85V11H84zM86,10H87V11H86zM88,10H89V11H88zM90,10H91V11H90zM92,10H93V11H92zM94,10H95V11H94zM96,10H97V11H96zM98,10H99V11H98zM100,10H101V11H100zM102,10H103V11H102zM103,10H104V11H103zM104,10H105V11H104zM105,10H106V11H105zM106,10H107V11H106zM107,10H108V11H107zM108,10H109V11H108zM15,11H16V12H15zM16,11H17V12H16zM19,11H20V12H19zM20,11H21V12H20zM21,11H22V12H21zM22,11H23V12H22zM24,11H25V12H24zM26,11H27V12H26zM28,11H29V12H28zM32,11H33V12H32zM34,11H35V12H34zM35,11H36V12H35zM40,11H41V12H40zM41,11H42V12H41zM42,11H43V12H42zM43,11H44V12H43zM45,11H46V12H45zM46,11H47V12H46zM47,11H48V12H47zM49,11H50V12H49zM52,11H53V12H52zM56,11H57V12H56zM58,11H59V12H58zM63,11H64V12H63zM64,11H65V12H64zM66,11H67V12H66zM71,11H72V12H71zM76,11H77V12H76zM80,11H81V12H80zM83,11H84V12H83zM86,11H87V12H86zM87,11H88V12H87zM88,11H89V12H88zM89,11H90V12H89zM90,11H91V12H90zM93,11H94V12H93zM95,11H96V12H95zM98,11H99V12H98zM99,11H100V12H99zM5,12H6V13H5zM10,12H11V13H10zM11,12H12V13H11zM12,12H13V13H12zM13,12H14V13H13zM17,12H18V13H17zM18,12H19V13H18zM22,12H23V13H22zM23,12H24V13H23zM24,12H25V13H24zM27,12H28V13H27zM28,12H29V13H28zM29,12H30V13H29zM30,12H31V13H30zM31,12H32V13H31zM32,12H33V13H32zM34,12H35V13H34zM36,12H37V13H36zM40,12H41V13H40zM41,12H42V13H41zM44,12H45V13H44zM46,12H47V13H46zM47,12H48V13H47zM51,12H52V13H51zM52,12H53V13H52zM53,12H54V13H53zM54,12H55V13H54zM55,12H56V13H55zM56,12H57V13H56zM57,12H58V13H57zM59,12H60V13H59zM60,12H61V13H60zM62,12H63V13H62zM67,12H68V13H67zM68,12H69V13H68zM73,12H74V13H73zM74,12H75V13H74zM76,12H77V13H76zM77,12H78V13H77zM78,12H79V13H78zM79,12H80V13H79zM80,12H81V13H80zM82,12H83V13H82zM83,12H84V13H83zM84,12H85V13H84zM85,12H86V13H85zM88,12H89V13H88zM89,12H90V13H89zM93,12H94V13H93zM95,12H96V13H95zM96,12H97V13H96zM99,12H100V13H99zM100,12H101V13H100zM101,12H102V13H101zM107,12H108V13H107zM108,12H109V13H108zM4,13H5V14H4zM5,13H6V14H5zM12,13H13V14H12zM13,13H14V14H13zM17,13H18V14H17zM18,13H19V14H18zM20,13H21V14H20zM22,13H23V14H22zM24,13H25V14H24zM25,13H26V14H25zM29,13H30V14H29zM33,13H34V14H33zM35,13H36V14H35zM36,13H37V14H36zM37,13H38V14H37zM38,13H39V14H38zM39,13H40V14H39zM40,13H41V14H40zM41,13H42V14H41zM42,13H43V14H42zM43,13H44V14H43zM44,13H45V14H44zM46,13H47V14H46zM47,13H48V14H47zM49,13H50V14H49zM50,13H51V14H50zM51,13H52V14H51zM52,13H53V14H52zM54,13H55V14H54zM55,13H56V14H55zM58,13H59V14H58zM59,13H60V14H59zM61,13H62V14H61zM64,13H65V14H64zM65,13H66V14H65zM67,13H68V14H67zM69,13H70V14H69zM70,13H71V14H70zM73,13H74V14H73zM74,13H75V14H74zM75,13H76V14H75zM76,13H77V14H76zM79,13H80V14H79zM81,13H82V14H81zM82,13H83V14H82zM83,13H84V14H83zM86,13H87V14H86zM88,13H89V14H88zM89,13H90V14H89zM90,13H91V14H90zM91,13H92V14H91zM92,13H93V14H92zM96,13H97V14H96zM98,13H99V14H98zM100,13H101V14H100zM102,13H103V14H102zM103,13H104V14H103zM105,13H106V14H105zM107,13H108V14H107zM108,13H109V14H108zM5,14H6V15H5zM6,14H7V15H6zM7,14H8V15H7zM8,14H9V15H8zM10,14H11V15H10zM11,14H12V15H11zM12,14H13V15H12zM19,14H20V15H19zM20,14H21V15H20zM21,14H22V15H21zM22,14H23V15H22zM23,14H24V15H23zM27,14H28V15H27zM29,14H30V15H29zM30,14H31V15H30zM33,14H34V15H33zM34,14H35V15H34zM35,14H36V15H35zM39,14H40V15H39zM40,14H41V15H40zM43,14H44V15H43zM44,14H45V15H44zM45,14H46V15H45zM46,14H47V15H46zM48,14H49V15H48zM51,14H52V15H51zM53,14H54V15H53zM56,14H57V15H56zM58,14H59V15H58zM59,14H60V15H59zM60,14H61V15H60zM61,14H62V15H61zM63,14H64V15H63zM67,14H68V15H67zM70,14H71V15H70zM71,14H72V15H71zM77,14H78V15H77zM80,14H81V15H80zM82,14H83V15H82zM84,14H85V15H84zM91,14H92V15H91zM92,14H93V15H92zM94,14H95V15H94zM96,14H97V15H96zM99,14H100V15H99zM100,14H101V15H100zM102,14H103V15H102zM107,14H108V15H107zM108,14H109V15H108zM4,15H5V16H4zM6,15H7V16H6zM14,15H15V16H14zM15,15H16V16H15zM18,15H19V16H18zM22,15H23V16H22zM23,15H24V16H23zM25,15H26V16H25zM26,15H27V16H26zM28,15H29V16H28zM30,15H31V16H30zM31,15H32V16H31zM32,15H33V16H32zM34,15H35V16H34zM35,15H36V16H35zM37,15H38V16H37zM39,15H40V16H39zM40,15H41V16H40zM41,15H42V16H41zM43,15H44V16H43zM46,15H47V16H46zM47,15H48V16H47zM48,15H49V16H48zM51,15H52V16H51zM53,15H54V16H53zM57,15H58V16H57zM59,15H60V16H59zM62,15H63V16H62zM63,15H64V16H63zM64,15H65V16H64zM65,15H66V16H65zM66,15H67V16H66zM71,15H72V16H71zM73,15H74V16H73zM74,15H75V16H74zM78,15H79V16H78zM81,15H82V16H81zM83,15H84V16H83zM85,15H86V16H85zM86,15H87V16H86zM88,15H89V16H88zM89,15H90V16H89zM90,15H91V16H90zM91,15H92V16H91zM93,15H94V16H93zM97,15H98V16H97zM98,15H99V16H98zM102,15H103V16H102zM106,15H107V16H106zM107,15H108V16H107zM4,16H5V17H4zM6,16H7V17H6zM8,16H9V17H8zM10,16H11V17H10zM11,16H12V17H11zM14,16H15V17H14zM15,16H16V17H15zM16,16H17V17H16zM19,16H20V17H19zM20,16H21V17H20zM25,16H26V17H25zM27,16H28V17H27zM30,16H31V17H30zM33,16H34V17H33zM34,16H35V17H34zM37,16H38V17H37zM38,16H39V17H38zM39,16H40V17H39zM40,16H41V17H40zM42,16H43V17H42zM43,16H44V17H43zM45,16H46V17H45zM47,16H48V17H47zM48,16H49V17H48zM49,16H50V17H49zM54,16H55V17H54zM63,16H64V17H63zM67,16H68V17H67zM68,16H69V17H68zM70,16H71V17H70zM71,16H72V17H71zM72,16H73V17H72zM74,16H75V17H74zM75,16H76V17H75zM76,16H77V17H76zM77,16H78V17H77zM78,16H79V17H78zM81,16H82V17H81zM84,16H85V17H84zM85,16H86V17H85zM86,16H87V17H86zM88,16H89V17H88zM92,16H93V17H92zM93,16H94V17H93zM96,16H97V17H96zM97,16H98V17H97zM99,16H100V17H99zM100,16H101V17H100zM102,16H103V17H102zM103,16H104V17H103zM104,16H105V17H104zM107,16H108V17H107zM108,16H109V17H108zM4,17H5V18H4zM5,17H6V18H5zM7,17H8V18H7zM9,17H10V18H9zM12,17H13V18H12zM13,17H14V18H13zM14,17H15V18H14zM15,17H16V18H15zM16,17H17V18H16zM17,17H18V18H17zM18,17H19V18H18zM19,17H20V18H19zM21,17H22V18H21zM23,17H24V18H23zM24,17H25V18H24zM25,17H26V18H25zM26,17H27V18H26zM27,17H28V18H27zM28,17H29V18H28zM32,17H33V18H32zM38,17H39V18H38zM40,17H41V18H40zM41,17H42V18H41zM42,17H43V18H42zM44,17H45V18H44zM45,17H46V18H45zM46,17H47V18H46zM47,17H48V18H47zM51,17H52V18H51zM53,17H54V18H53zM54,17H55V18H54zM58,17H59V18H58zM59,17H60V18H59zM62,17H63V18H62zM63,17H64V18H63zM65,17H66V18H65zM66,17H67V18H66zM71,17H72V18H71zM72,17H73V18H72zM74,17H75V18H74zM75,17H76V18H75zM76,17H77V18H76zM78,17H79V18H78zM79,17H80V18H79zM80,17H81V18H80zM82,17H83V18H82zM84,17H85V18H84zM92,17H93V18H92zM96,17H97V18H96zM97,17H98V18H97zM98,17H99V18H98zM101,17H102V18H101zM102,17H103V18H102zM108,17H109V18H108zM4,18H5V19H4zM6,18H7V19H6zM8,18H9V19H8zM9,18H10V19H9zM10,18H11V19H10zM11,18H12V19H11zM12,18H13V19H12zM13,18H14V19H13zM14,18H15V19H14zM15,18H16V19H15zM26,18H27V19H26zM27,18H28V19H27zM31,18H32V19H31zM32,18H33V19H32zM33,18H34V19H33zM34,18H35V19H34zM36,18H37V19H36zM37,18H38V19H37zM38,18H39V19H38zM39,18H40V19H39zM40,18H41V19H40zM43,18H44V19H43zM50,18H51V19H50zM55,18H56V19H55zM59,18H60V19H59zM60,18H61V19H60zM65,18H66V19H65zM71,18H72V19H71zM72,18H73V19H72zM77,18H78V19H77zM79,18H80V19H79zM80,18H81V19H80zM82,18H83V19H82zM83,18H84V19H83zM87,18H88V19H87zM88,18H89V19H88zM89,18H90V19H89zM91,18H92V19H91zM93,18H94V19H93zM94,18H95V19H94zM95,18H96V19H95zM96,18H97V19H96zM99,18H100V19H99zM101,18H102V19H101zM103,18H104V19H103zM108,18H109V19H108zM4,19H5V20H4zM5,19H6V20H5zM8,19H9V20H8zM9,19H10V20H9zM12,19H13V20H12zM16,19H17V20H16zM18,19H19V20H18zM19,19H20V20H19zM21,19H22V20H21zM22,19H23V20H22zM24,19H25V20H24zM25,19H26V20H25zM26,19H27V20H26zM27,19H28V20H27zM29,19H30V20H29zM31,19H32V20H31zM33,19H34V20H33zM34,19H35V20H34zM35,19H36V20H35zM36,19H37V20H36zM37,19H38V20H37zM40,19H41V20H40zM41,19H42V20H41zM43,19H44V20H43zM44,19H45V20H44zM45,19H46V20H45zM48,19H49V20H48zM49,19H50V20H49zM51,19H52V20H51zM52,19H53V20H52zM57,19H58V20H57zM58,19H59V20H58zM60,19H61V20H60zM63,19H64V20H63zM64,19H65V20H64zM66,19H67V20H66zM68,19H69V20H68zM70,19H71V20H70zM71,19H72V20H71zM72,19H73V20H72zM74,19H75V20H74zM78,19H79V20H78zM79,19H80V20H79zM80,19H81V20H80zM81,19H82V20H81zM83,19H84V20H83zM84,19H85V20H84zM86,19H87V20H86zM87,19H88V20H87zM88,19H89V20H88zM91,19H92V20H91zM92,19H93V20H92zM94,19H95V20H94zM96,19H97V20H96zM102,19H103V20H102zM103,19H104V20H103zM105,19H106V20H105zM106,19H107V20H106zM5,20H6V21H5zM7,20H8V21H7zM8,20H9V21H8zM9,20H10V21H9zM10,20H11V21H10zM12,20H13V21H12zM13,20H14V21H13zM14,20H15V21H14zM16,20H17V21H16zM17,20H18V21H17zM18,20H19V21H18zM21,20H22V21H21zM24,20H25V21H24zM25,20H26V21H25zM26,20H27V21H26zM27,20H28V21H27zM30,20H31V21H30zM31,20H32V21H31zM32,20H33V21H32zM33,20H34V21H33zM36,20H37V21H36zM39,20H40V21H39zM40,20H41V21H40zM42,20H43V21H42zM50,20H51V21H50zM52,20H53V21H52zM53,20H54V21H53zM54,20H55V21H54zM55,20H56V21H55zM57,20H58V21H57zM58,20H59V21H58zM59,20H60V21H59zM61,20H62V21H61zM64,20H65V21H64zM66,20H67V21H66zM67,20H68V21H67zM68,20H69V21H68zM73,20H74V21H73zM74,20H75V21H74zM76,20H77V21H76zM77,20H78V21H77zM79,20H80V21H79zM80,20H81V21H80zM82,20H83V21H82zM85,20H86V21H85zM88,20H89V21H88zM89,20H90V21H89zM91,20H92V21H91zM92,20H93V21H92zM94,20H95V21H94zM95,20H96V21H95zM96,20H97V21H96zM97,20H98V21H97zM98,20H99V21H98zM99,20H100V21H99zM100,20H101V21H100zM102,20H103V21H102zM103,20H104V21H103zM105,20H106V21H105zM106,20H107V21H106zM107,20H108V21H107zM4,21H5V22H4zM5,21H6V22H5zM7,21H8V22H7zM9,21H10V22H9zM12,21H13V22H12zM14,21H15V22H14zM15,21H16V22H15zM16,21H17V22H16zM17,21H18V22H17zM18,21H19V22H18zM20,21H21V22H20zM24,21H25V22H24zM25,21H26V22H25zM26,21H27V22H26zM27,21H28V22H27zM35,21H36V22H35zM37,21H38V22H37zM40,21H41V22H40zM46,21H47V22H46zM47,21H48V22H47zM50,21H51V22H50zM52,21H53V22H52zM57,21H58V22H57zM58,21H59V22H58zM59,21H60V22H59zM60,21H61V22H60zM63,21H64V22H63zM66,21H67V22H66zM69,21H70V22H69zM70,21H71V22H70zM72,21H73V22H72zM73,21H74V22H73zM76,21H77V22H76zM78,21H79V22H78zM79,21H80V22H79zM81,21H82V22H81zM87,21H88V22H87zM88,21H89V22H88zM91,21H92V22H91zM93,21H94V22H93zM98,21H99V22H98zM99,21H100V22H99zM104,21H105V22H104zM108,21H109V22H108zM8,22H9V23H8zM9,22H10V23H9zM10,22H11V23H10zM11,22H12V23H11zM12,22H13V23H12zM14,22H15V23H14zM17,22H18V23H17zM18,22H19V23H18zM19,22H20V23H19zM22,22H23V23H22zM23,22H24V23H23zM24,22H25V23H24zM25,22H26V23H25zM26,22H27V23H26zM28,22H29V23H28zM29,22H30V23H29zM32,22H33V23H32zM33,22H34V23H33zM34,22H35V23H34zM35,22H36V23H35zM36,22H37V23H36zM38,22H39V23H38zM39,22H40V23H39zM41,22H42V23H41zM43,22H44V23H43zM45,22H46V23H45zM47,22H48V23H47zM50,22H51V23H50zM54,22H55V23H54zM55,22H56V23H55zM56,22H57V23H56zM61,22H62V23H61zM63,22H64V23H63zM64,22H65V23H64zM66,22H67V23H66zM67,22H68V23H67zM70,22H71V23H70zM72,22H73V23H72zM74,22H75V23H74zM76,22H77V23H76zM79,22H80V23H79zM83,22H84V23H83zM86,22H87V23H86zM90,22H91V23H90zM91,22H92V23H91zM92,22H93V23H92zM94,22H95V23H94zM95,22H96V23H95zM97,22H98V23H97zM98,22H99V23H98zM99,22H100V23H99zM101,22H102V23H101zM104,22H105V23H104zM106,22H107V23H106zM107,22H108V23H107zM9,23H10V24H9zM11,23H12V24H11zM13,23H14V24H13zM14,23H15V24H14zM15,23H16V24H15zM17,23H18V24H17zM18,23H19V24H18zM19,23H20V24H19zM21,23H22V24H21zM23,23H24V24H23zM24,23H25V24H24zM26,23H27V24H26zM27,23H28V24H27zM30,23H31V24H30zM31,23H32V24H31zM32,23H33V24H32zM33,23H34V24H33zM34,23H35V24H34zM35,23H36V24H35zM36,23H37V24H36zM37,23H38V24H37zM39,23H40V24H39zM41,23H42V24H41zM46,23H47V24H46zM47,23H48V24H47zM51,23H52V24H51zM52,23H53V24H52zM53,23H54V24H53zM54,23H55V24H54zM57,23H58V24H57zM59,23H60V24H59zM60,23H61V24H60zM61,23H62V24H61zM62,23H63V24H62zM63,23H64V24H63zM64,23H65V24H64zM66,23H67V24H66zM68,23H69V24H68zM70,23H71V24H70zM71,23H72V24H71zM73,23H74V24H73zM74,23H75V24H74zM75,23H76V24H75zM79,23H80V24H79zM83,23H84V24H83zM87,23H88V24H87zM88,23H89V24H88zM89,23H90V24H89zM90,23H91V24H90zM92,23H93V24H92zM98,23H99V24H98zM100,23H101V24H100zM101,23H102V24H101zM103,23H104V24H103zM105,23H106V24H105zM106,23H107V24H106zM9,24H10V25H9zM10,24H11V25H10zM12,24H13V25H12zM14,24H15V25H14zM17,24H18V25H17zM19,24H20V25H19zM20,24H21V25H20zM21,24H22V25H21zM26,24H27V25H26zM27,24H28V25H27zM28,24H29V25H28zM32,24H33V25H32zM33,24H34V25H33zM35,24H36V25H35zM36,24H37V25H36zM40,24H41V25H40zM42,24H43V25H42zM44,24H45V25H44zM47,24H48V25H47zM48,24H49V25H48zM49,24H50V25H49zM52,24H53V25H52zM53,24H54V25H53zM58,24H59V25H58zM59,24H60V25H59zM63,24H64V25H63zM65,24H66V25H65zM66,24H67V25H66zM67,24H68V25H67zM75,24H76V25H75zM78,24H79V25H78zM80,24H81V25H80zM83,24H84V25H83zM85,24H86V25H85zM86,24H87V25H86zM88,24H89V25H88zM90,24H91V25H90zM91,24H92V25H91zM92,24H93V25H92zM93,24H94V25H93zM94,24H95V25H94zM96,24H97V25H96zM97,24H98V25H97zM99,24H100V25H99zM100,24H101V25H100zM106,24H107V25H106zM5,25H6V26H5zM7,25H8V26H7zM8,25H9V26H8zM9,25H10V26H9zM11,25H12V26H11zM13,25H14V26H13zM16,25H17V26H16zM17,25H18V26H17zM23,25H24V26H23zM25,25H26V26H25zM28,25H29V26H28zM29,25H30V26H29zM30,25H31V26H30zM33,25H34V26H33zM34,25H35V26H34zM36,25H37V26H36zM38,25H39V26H38zM40,25H41V26H40zM42,25H43V26H42zM45,25H46V26H45zM46,25H47V26H46zM47,25H48V26H47zM48,25H49V26H48zM51,25H52V26H51zM55,25H56V26H55zM57,25H58V26H57zM60,25H61V26H60zM61,25H62V26H61zM65,25H66V26H65zM66,25H67V26H66zM67,25H68V26H67zM68,25H69V26H68zM70,25H71V26H70zM71,25H72V26H71zM74,25H75V26H74zM76,25H77V26H76zM79,25H80V26H79zM82,25H83V26H82zM84,25H85V26H84zM85,25H86V26H85zM86,25H87V26H86zM89,25H90V26H89zM90,25H91V26H90zM91,25H92V26H91zM92,25H93V26H92zM93,25H94V26H93zM94,25H95V26H94zM96,25H97V26H96zM97,25H98V26H97zM99,25H100V26H99zM101,25H102V26H101zM103,25H104V26H103zM106,25H107V26H106zM108,25H109V26H108zM5,26H6V27H5zM6,26H7V27H6zM8,26H9V27H8zM10,26H11V27H10zM12,26H13V27H12zM14,26H15V27H14zM16,26H17V27H16zM17,26H18V27H17zM18,26H19V27H18zM22,26H23V27H22zM23,26H24V27H23zM24,26H25V27H24zM26,26H27V27H26zM29,26H30V27H29zM30,26H31V27H30zM31,26H32V27H31zM32,26H33V27H32zM33,26H34V27H33zM35,26H36V27H35zM36,26H37V27H36zM40,26H41V27H40zM41,26H42V27H41zM45,26H46V27H45zM46,26H47V27H46zM47,26H48V27H47zM48,26H49V27H48zM49,26H50V27H49zM51,26H52V27H51zM52,26H53V27H52zM53,26H54V27H53zM56,26H57V27H56zM57,26H58V27H57zM59,26H60V27H59zM60,26H61V27H60zM61,26H62V27H61zM63,26H64V27H63zM64,26H65V27H64zM67,26H68V27H67zM68,26H69V27H68zM69,26H70V27H69zM70,26H71V27H70zM72,26H73V27H72zM79,26H80V27H79zM82,26H83V27H82zM83,26H84V27H83zM84,26H85V27H84zM88,26H89V27H88zM89,26H90V27H89zM91,26H92V27H91zM94,26H95V27H94zM95,26H96V27H95zM96,26H97V27H96zM97,26H98V27H97zM98,26H99V27H98zM99,26H100V27H99zM100,26H101V27H100zM101,26H102V27H101zM4,27H5V28H4zM5,27H6V28H5zM7,27H8V28H7zM11,27H12V28H11zM12,27H13V28H12zM13,27H14V28H13zM15,27H16V28H15zM17,27H18V28H17zM18,27H19V28H18zM21,27H22V28H21zM23,27H24V28H23zM24,27H25V28H24zM25,27H26V28H25zM26,27H27V28H26zM27,27H28V28H27zM28,27H29V28H28zM30,27H31V28H30zM33,27H34V28H33zM34,27H35V28H34zM35,27H36V28H35zM39,27H40V28H39zM40,27H41V28H40zM43,27H44V28H43zM45,27H46V28H45zM46,27H47V28H46zM48,27H49V28H48zM54,27H55V28H54zM55,27H56V28H55zM57,27H58V28H57zM62,27H63V28H62zM63,27H64V28H63zM64,27H65V28H64zM71,27H72V28H71zM75,27H76V28H75zM76,27H77V28H76zM83,27H84V28H83zM86,27H87V28H86zM88,27H89V28H88zM89,27H90V28H89zM90,27H91V28H90zM92,27H93V28H92zM93,27H94V28H93zM97,27H98V28H97zM99,27H100V28H99zM105,27H106V28H105zM106,27H107V28H106zM4,28H5V29H4zM6,28H7V29H6zM7,28H8V29H7zM8,28H9V29H8zM9,28H10V29H9zM10,28H11V29H10zM11,28H12V29H11zM12,28H13V29H12zM13,28H14V29H13zM15,28H16V29H15zM20,28H21V29H20zM21,28H22V29H21zM22,28H23V29H22zM23,28H24V29H23zM25,28H26V29H25zM26,28H27V29H26zM28,28H29V29H28zM29,28H30V29H29zM30,28H31V29H30zM31,28H32V29H31zM32,28H33V29H32zM34,28H35V29H34zM35,28H36V29H35zM36,28H37V29H36zM39,28H40V29H39zM40,28H41V29H40zM43,28H44V29H43zM45,28H46V29H45zM47,28H48V29H47zM49,28H50V29H49zM50,28H51V29H50zM51,28H52V29H51zM52,28H53V29H52zM53,28H54V29H53zM54,28H55V29H54zM55,28H56V29H55zM56,28H57V29H56zM57,28H58V29H57zM60,28H61V29H60zM61,28H62V29H61zM62,28H63V29H62zM63,28H64V29H63zM65,28H66V29H65zM66,28H67V29H66zM71,28H72V29H71zM72,28H73V29H72zM73,28H74V29H73zM74,28H75V29H74zM75,28H76V29H75zM76,28H77V29H76zM77,28H78V29H77zM78,28H79V29H78zM79,28H80V29H79zM80,28H81V29H80zM83,28H84V29H83zM84,28H85V29H84zM88,28H89V29H88zM89,28H90V29H89zM91,28H92V29H91zM92,28H93V29H92zM93,28H94V29H93zM94,28H95V29H94zM98,28H99V29H98zM100,28H101V29H100zM101,28H102V29H101zM102,28H103V29H102zM103,28H104V29H103zM104,28H105V29H104zM105,28H106V29H105zM108,28H109V29H108zM5,29H6V30H5zM7,29H8V30H7zM8,29H9V30H8zM12,29H13V30H12zM14,29H15V30H14zM15,29H16V30H15zM16,29H17V30H16zM18,29H19V30H18zM19,29H20V30H19zM20,29H21V30H20zM21,29H22V30H21zM22,29H23V30H22zM26,29H27V30H26zM28,29H29V30H28zM32,29H33V30H32zM33,29H34V30H33zM34,29H35V30H34zM36,29H37V30H36zM37,29H38V30H37zM46,29H47V30H46zM49,29H50V30H49zM50,29H51V30H50zM52,29H53V30H52zM56,29H57V30H56zM57,29H58V30H57zM58,29H59V30H58zM59,29H60V30H59zM60,29H61V30H60zM63,29H64V30H63zM68,29H69V30H68zM69,29H70V30H69zM70,29H71V30H70zM74,29H75V30H74zM75,29H76V30H75zM76,29H77V30H76zM80,29H81V30H80zM81,29H82V30H81zM82,29H83V30H82zM84,29H85V30H84zM85,29H86V30H85zM87,29H88V30H87zM88,29H89V30H88zM90,29H91V30H90zM91,29H92V30H91zM93,29H94V30H93zM100,29H101V30H100zM104,29H105V30H104zM105,29H106V30H105zM107,29H108V30H107zM108,29H109V30H108zM5,30H6V31H5zM6,30H7V31H6zM8,30H9V31H8zM10,30H11V31H10zM12,30H13V31H12zM16,30H17V31H16zM18,30H19V31H18zM22,30H23V31H22zM26,30H27V31H26zM27,30H28V31H27zM28,30H29V31H28zM30,30H31V31H30zM32,30H33V31H32zM35,30H36V31H35zM39,30H40V31H39zM40,30H41V31H40zM44,30H45V31H44zM45,30H46V31H45zM48,30H49V31H48zM50,30H51V31H50zM52,30H53V31H52zM54,30H55V31H54zM56,30H57V31H56zM58,30H59V31H58zM59,30H60V31H59zM61,30H62V31H61zM62,30H63V31H62zM65,30H66V31H65zM68,30H69V31H68zM70,30H71V31H70zM71,30H72V31H71zM72,30H73V31H72zM75,30H76V31H75zM76,30H77V31H76zM78,30H79V31H78zM80,30H81V31H80zM82,30H83V31H82zM84,30H85V31H84zM85,30H86V31H85zM88,30H89V31H88zM89,30H90V31H89zM91,30H92V31H91zM92,30H93V31H92zM93,30H94V31H93zM94,30H95V31H94zM96,30H97V31H96zM97,30H98V31H97zM98,30H99V31H98zM99,30H100V31H99zM100,30H101V31H100zM102,30H103V31H102zM104,30H105V31H104zM105,30H106V31H105zM107,30H108V31H107zM5,31H6V32H5zM7,31H8V32H7zM8,31H9V32H8zM12,31H13V32H12zM13,31H14V32H13zM21,31H22V32H21zM23,31H24V32H23zM26,31H27V32H26zM27,31H28V32H27zM28,31H29V32H28zM32,31H33V32H32zM33,31H34V32H33zM34,31H35V32H34zM35,31H36V32H35zM36,31H37V32H36zM39,31H40V32H39zM42,31H43V32H42zM44,31H45V32H44zM47,31H48V32H47zM49,31H50V32H49zM50,31H51V32H50zM51,31H52V32H51zM52,31H53V32H52zM56,31H57V32H56zM59,31H60V32H59zM64,31H65V32H64zM65,31H66V32H65zM68,31H69V32H68zM70,31H71V32H70zM71,31H72V32H71zM72,31H73V32H72zM73,31H74V32H73zM76,31H77V32H76zM80,31H81V32H80zM84,31H85V32H84zM86,31H87V32H86zM87,31H88V32H87zM88,31H89V32H88zM90,31H91V32H90zM91,31H92V32H91zM92,31H93V32H92zM96,31H97V32H96zM97,31H98V32H97zM100,31H101V32H100zM104,31H105V32H104zM105,31H106V32H105zM106,31H107V32H106zM107,31H108V32H107zM108,31H109V32H108zM5,32H6V33H5zM6,32H7V33H6zM7,32H8V33H7zM8,32H9V33H8zM9,32H10V33H9zM10,32H11V33H10zM11,32H12V33H11zM12,32H13V33H12zM13,32H14V33H13zM14,32H15V33H14zM17,32H18V33H17zM21,32H22V33H21zM22,32H23V33H22zM25,32H26V33H25zM28,32H29V33H28zM29,32H30V33H29zM30,32H31V33H30zM31,32H32V33H31zM32,32H33V33H32zM33,32H34V33H33zM35,32H36V33H35zM37,32H38V33H37zM38,32H39V33H38zM41,32H42V33H41zM43,32H44V33H43zM48,32H49V33H48zM49,32H50V33H49zM50,32H51V33H50zM51,32H52V33H51zM52,32H53V33H52zM53,32H54V33H53zM54,32H55V33H54zM55,32H56V33H55zM56,32H57V33H56zM57,32H58V33H57zM58,32H59V33H58zM62,32H63V33H62zM65,32H66V33H65zM66,32H67V33H66zM67,32H68V33H67zM68,32H69V33H68zM70,32H71V33H70zM71,32H72V33H71zM73,32H74V33H73zM74,32H75V33H74zM75,32H76V33H75zM76,32H77V33H76zM77,32H78V33H77zM78,32H79V33H78zM79,32H80V33H79zM80,32H81V33H80zM81,32H82V33H81zM84,32H85V33H84zM85,32H86V33H85zM86,32H87V33H86zM88,32H89V33H88zM89,32H90V33H89zM91,32H92V33H91zM93,32H94V33H93zM96,32H97V33H96zM99,32H100V33H99zM100,32H101V33H100zM101,32H102V33H101zM102,32H103V33H102zM103,32H104V33H103zM104,32H105V33H104zM4,33H5V34H4zM5,33H6V34H5zM9,33H10V34H9zM13,33H14V34H13zM14,33H15V34H14zM15,33H16V34H15zM17,33H18V34H17zM19,33H20V34H19zM22,33H23V34H22zM23,33H24V34H23zM24,33H25V34H24zM25,33H26V34H25zM26,33H27V34H26zM28,33H29V34H28zM29,33H30V34H29zM30,33H31V34H30zM31,33H32V34H31zM33,33H34V34H33zM35,33H36V34H35zM36,33H37V34H36zM37,33H38V34H37zM39,33H40V34H39zM41,33H42V34H41zM43,33H44V34H43zM44,33H45V34H44zM45,33H46V34H45zM46,33H47V34H46zM47,33H48V34H47zM50,33H51V34H50zM51,33H52V34H51zM54,33H55V34H54zM59,33H60V34H59zM60,33H61V34H60zM62,33H63V34H62zM65,33H66V34H65zM70,33H71V34H70zM74,33H75V34H74zM79,33H80V34H79zM81,33H82V34H81zM82,33H83V34H82zM85,33H86V34H85zM87,33H88V34H87zM88,33H89V34H88zM89,33H90V34H89zM90,33H91V34H90zM92,33H93V34H92zM95,33H96V34H95zM96,33H97V34H96zM100,33H101V34H100zM104,33H105V34H104zM106,33H107V34H106zM107,33H108V34H107zM108,33H109V34H108zM6,34H7V35H6zM7,34H8V35H7zM8,34H9V35H8zM10,34H11V35H10zM11,34H12V35H11zM12,34H13V35H12zM15,34H16V35H15zM17,34H18V35H17zM18,34H19V35H18zM21,34H22V35H21zM22,34H23V35H22zM25,34H26V35H25zM26,34H27V35H26zM28,34H29V35H28zM30,34H31V35H30zM36,34H37V35H36zM39,34H40V35H39zM40,34H41V35H40zM41,34H42V35H41zM42,34H43V35H42zM43,34H44V35H43zM44,34H45V35H44zM46,34H47V35H46zM48,34H49V35H48zM49,34H50V35H49zM52,34H53V35H52zM53,34H54V35H53zM55,34H56V35H55zM56,34H57V35H56zM60,34H61V35H60zM65,34H66V35H65zM66,34H67V35H66zM67,34H68V35H67zM70,34H71V35H70zM72,34H73V35H72zM73,34H74V35H73zM75,34H76V35H75zM77,34H78V35H77zM79,34H80V35H79zM81,34H82V35H81zM82,34H83V35H82zM86,34H87V35H86zM87,34H88V35H87zM90,34H91V35H90zM91,34H92V35H91zM94,34H95V35H94zM95,34H96V35H95zM97,34H98V35H97zM101,34H102V35H101zM102,34H103V35H102zM103,34H104V35H103zM106,34H107V35H106zM108,34H109V35H108zM5,35H6V36H5zM6,35H7V36H6zM11,35H12V36H11zM12,35H13V36H12zM14,35H15V36H14zM19,35H20V36H19zM20,35H21V36H20zM21,35H22V36H21zM23,35H24V36H23zM25,35H26V36H25zM26,35H27V36H26zM27,35H28V36H27zM29,35H30V36H29zM30,35H31V36H30zM31,35H32V36H31zM32,35H33V36H32zM33,35H34V36H33zM34,35H35V36H34zM35,35H36V36H35zM39,35H40V36H39zM41,35H42V36H41zM42,35H43V36H42zM45,35H46V36H45zM46,35H47V36H46zM50,35H51V36H50zM54,35H55V36H54zM57,35H58V36H57zM59,35H60V36H59zM60,35H61V36H60zM63,35H64V36H63zM64,35H65V36H64zM65,35H66V36H65zM66,35H67V36H66zM71,35H72V36H71zM75,35H76V36H75zM78,35H79V36H78zM82,35H83V36H82zM83,35H84V36H83zM86,35H87V36H86zM87,35H88V36H87zM88,35H89V36H88zM90,35H91V36H90zM92,35H93V36H92zM95,35H96V36H95zM97,35H98V36H97zM98,35H99V36H98zM100,35H101V36H100zM102,35H103V36H102zM103,35H104V36H103zM105,35H106V36H105zM106,35H107V36H106zM107,35H108V36H107zM108,35H109V36H108zM7,36H8V37H7zM9,36H10V37H9zM10,36H11V37H10zM11,36H12V37H11zM12,36H13V37H12zM16,36H17V37H16zM17,36H18V37H17zM19,36H20V37H19zM20,36H21V37H20zM21,36H22V37H21zM23,36H24V37H23zM25,36H26V37H25zM26,36H27V37H26zM27,36H28V37H27zM28,36H29V37H28zM29,36H30V37H29zM31,36H32V37H31zM32,36H33V37H32zM34,36H35V37H34zM38,36H39V37H38zM39,36H40V37H39zM42,36H43V37H42zM43,36H44V37H43zM44,36H45V37H44zM46,36H47V37H46zM47,36H48V37H47zM48,36H49V37H48zM49,36H50V37H49zM53,36H54V37H53zM54,36H55V37H54zM55,36H56V37H55zM61,36H62V37H61zM62,36H63V37H62zM63,36H64V37H63zM64,36H65V37H64zM66,36H67V37H66zM67,36H68V37H67zM68,36H69V37H68zM69,36H70V37H69zM70,36H71V37H70zM71,36H72V37H71zM72,36H73V37H72zM73,36H74V37H73zM78,36H79V37H78zM79,36H80V37H79zM82,36H83V37H82zM83,36H84V37H83zM85,36H86V37H85zM90,36H91V37H90zM92,36H93V37H92zM95,36H96V37H95zM101,36H102V37H101zM103,36H104V37H103zM104,36H105V37H104zM106,36H107V37H106zM107,36H108V37H107zM108,36H109V37H108zM5,37H6V38H5zM6,37H7V38H6zM7,37H8V38H7zM8,37H9V38H8zM9,37H10V38H9zM14,37H15V38H14zM15,37H16V38H15zM16,37H17V38H16zM20,37H21V38H20zM23,37H24V38H23zM24,37H25V38H24zM25,37H26V38H25zM26,37H27V38H26zM27,37H28V38H27zM28,37H29V38H28zM30,37H31V38H30zM33,37H34V38H33zM35,37H36V38H35zM36,37H37V38H36zM38,37H39V38H38zM40,37H41V38H40zM41,37H42V38H41zM42,37H43V38H42zM45,37H46V38H45zM46,37H47V38H46zM47,37H48V38H47zM48,37H49V38H48zM50,37H51V38H50zM53,37H54V38H53zM55,37H56V38H55zM56,37H57V38H56zM57,37H58V38H57zM58,37H59V38H58zM61,37H62V38H61zM65,37H66V38H65zM68,37H69V38H68zM70,37H71V38H70zM71,37H72V38H71zM76,37H77V38H76zM78,37H79V38H78zM82,37H83V38H82zM83,37H84V38H83zM86,37H87V38H86zM89,37H90V38H89zM90,37H91V38H90zM92,37H93V38H92zM93,37H94V38H93zM94,37H95V38H94zM95,37H96V38H95zM96,37H97V38H96zM97,37H98V38H97zM99,37H100V38H99zM100,37H101V38H100zM103,37H104V38H103zM104,37H105V38H104zM105,37H106V38H105zM106,37H107V38H106zM107,37H108V38H107zM5,38H6V39H5zM6,38H7V39H6zM8,38H9V39H8zM9,38H10V39H9zM10,38H11V39H10zM11,38H12V39H11zM14,38H15V39H14zM15,38H16V39H15zM18,38H19V39H18zM20,38H21V39H20zM22,38H23V39H22zM26,38H27V39H26zM27,38H28V39H27zM31,38H32V39H31zM37,38H38V39H37zM39,38H40V39H39zM40,38H41V39H40zM41,38H42V39H41zM43,38H44V39H43zM46,38H47V39H46zM48,38H49V39H48zM50,38H51V39H50zM52,38H53V39H52zM53,38H54V39H53zM54,38H55V39H54zM56,38H57V39H56zM58,38H59V39H58zM59,38H60V39H59zM61,38H62V39H61zM63,38H64V39H63zM64,38H65V39H64zM68,38H69V39H68zM69,38H70V39H69zM70,38H71V39H70zM71,38H72V39H71zM73,38H74V39H73zM74,38H75V39H74zM75,38H76V39H75zM76,38H77V39H76zM77,38H78V39H77zM79,38H80V39H79zM81,38H82V39H81zM82,38H83V39H82zM84,38H85V39H84zM91,38H92V39H91zM93,38H94V39H93zM94,38H95V39H94zM96,38H97V39H96zM99,38H100V39H99zM102,38H103V39H102zM104,38H105V39H104zM106,38H107V39H106zM4,39H5V40H4zM5,39H6V40H5zM6,39H7V40H6zM7,39H8V40H7zM9,39H10V40H9zM12,39H13V40H12zM22,39H23V40H22zM23,39H24V40H23zM25,39H26V40H25zM26,39H27V40H26zM29,39H30V40H29zM30,39H31V40H30zM32,39H33V40H32zM33,39H34V40H33zM34,39H35V40H34zM36,39H37V40H36zM37,39H38V40H37zM38,39H39V40H38zM41,39H42V40H41zM42,39H43V40H42zM43,39H44V40H43zM46,39H47V40H46zM47,39H48V40H47zM48,39H49V40H48zM49,39H50V40H49zM51,39H52V40H51zM52,39H53V40H52zM54,39H55V40H54zM56,39H57V40H56zM59,39H60V40H59zM60,39H61V40H60zM62,39H63V40H62zM64,39H65V40H64zM65,39H66V40H65zM66,39H67V40H66zM69,39H70V40H69zM71,39H72V40H71zM74,39H75V40H74zM76,39H77V40H76zM78,39H79V40H78zM80,39H81V40H80zM81,39H82V40H81zM83,39H84V40H83zM87,39H88V40H87zM88,39H89V40H88zM90,39H91V40H90zM91,39H92V40H91zM94,39H95V40H94zM95,39H96V40H95zM100,39H101V40H100zM101,39H102V40H101zM102,39H103V40H102zM103,39H104V40H103zM105,39H106V40H105zM106,39H107V40H106zM107,39H108V40H107zM4,40H5V41H4zM5,40H6V41H5zM6,40H7V41H6zM10,40H11V41H10zM11,40H12V41H11zM12,40H13V41H12zM13,40H14V41H13zM14,40H15V41H14zM16,40H17V41H16zM20,40H21V41H20zM21,40H22V41H21zM28,40H29V41H28zM30,40H31V41H30zM33,40H34V41H33zM34,40H35V41H34zM36,40H37V41H36zM37,40H38V41H37zM39,40H40V41H39zM40,40H41V41H40zM44,40H45V41H44zM45,40H46V41H45zM46,40H47V41H46zM47,40H48V41H47zM51,40H52V41H51zM54,40H55V41H54zM56,40H57V41H56zM58,40H59V41H58zM59,40H60V41H59zM60,40H61V41H60zM62,40H63V41H62zM64,40H65V41H64zM65,40H66V41H65zM68,40H69V41H68zM71,40H72V41H71zM72,40H73V41H72zM73,40H74V41H73zM75,40H76V41H75zM77,40H78V41H77zM80,40H81V41H80zM81,40H82V41H81zM86,40H87V41H86zM88,40H89V41H88zM89,40H90V41H89zM90,40H91V41H90zM91,40H92V41H91zM92,40H93V41H92zM93,40H94V41H93zM96,40H97V41H96zM98,40H99V41H98zM99,40H100V41H99zM102,40H103V41H102zM103,40H104V41H103zM104,40H105V41H104zM107,40H108V41H107zM4,41H5V42H4zM5,41H6V42H5zM7,41H8V42H7zM8,41H9V42H8zM11,41H12V42H11zM13,41H14V42H13zM16,41H17V42H16zM17,41H18V42H17zM18,41H19V42H18zM19,41H20V42H19zM21,41H22V42H21zM23,41H24V42H23zM25,41H26V42H25zM32,41H33V42H32zM33,41H34V42H33zM35,41H36V42H35zM36,41H37V42H36zM37,41H38V42H37zM39,41H40V42H39zM41,41H42V42H41zM42,41H43V42H42zM44,41H45V42H44zM45,41H46V42H45zM46,41H47V42H46zM47,41H48V42H47zM50,41H51V42H50zM51,41H52V42H51zM52,41H53V42H52zM55,41H56V42H55zM57,41H58V42H57zM60,41H61V42H60zM64,41H65V42H64zM66,41H67V42H66zM67,41H68V42H67zM69,41H70V42H69zM70,41H71V42H70zM71,41H72V42H71zM73,41H74V42H73zM77,41H78V42H77zM79,41H80V42H79zM82,41H83V42H82zM83,41H84V42H83zM85,41H86V42H85zM86,41H87V42H86zM87,41H88V42H87zM88,41H89V42H88zM93,41H94V42H93zM94,41H95V42H94zM96,41H97V42H96zM98,41H99V42H98zM99,41H100V42H99zM101,41H102V42H101zM104,41H105V42H104zM105,41H106V42H105zM106,41H107V42H106zM108,41H109V42H108zM5,42H6V43H5zM7,42H8V43H7zM9,42H10V43H9zM10,42H11V43H10zM11,42H12V43H11zM13,42H14V43H13zM15,42H16V43H15zM17,42H18V43H17zM18,42H19V43H18zM21,42H22V43H21zM22,42H23V43H22zM23,42H24V43H23zM26,42H27V43H26zM27,42H28V43H27zM28,42H29V43H28zM29,42H30V43H29zM32,42H33V43H32zM33,42H34V43H33zM35,42H36V43H35zM36,42H37V43H36zM38,42H39V43H38zM39,42H40V43H39zM42,42H43V43H42zM43,42H44V43H43zM44,42H45V43H44zM48,42H49V43H48zM49,42H50V43H49zM52,42H53V43H52zM58,42H59V43H58zM59,42H60V43H59zM61,42H62V43H61zM62,42H63V43H62zM65,42H66V43H65zM67,42H68V43H67zM68,42H69V43H68zM69,42H70V43H69zM70,42H71V43H70zM71,42H72V43H71zM72,42H73V43H72zM73,42H74V43H73zM75,42H76V43H75zM76,42H77V43H76zM78,42H79V43H78zM79,42H80V43H79zM80,42H81V43H80zM81,42H82V43H81zM82,42H83V43H82zM85,42H86V43H85zM86,42H87V43H86zM87,42H88V43H87zM88,42H89V43H88zM89,42H90V43H89zM91,42H92V43H91zM92,42H93V43H92zM93,42H94V43H93zM94,42H95V43H94zM95,42H96V43H95zM96,42H97V43H96zM103,42H104V43H103zM104,42H105V43H104zM105,42H106V43H105zM106,42H107V43H106zM107,42H108V43H107zM5,43H6V44H5zM8,43H9V44H8zM11,43H12V44H11zM12,43H13V44H12zM14,43H15V44H14zM15,43H16V44H15zM16,43H17V44H16zM17,43H18V44H17zM18,43H19V44H18zM19,43H20V44H19zM20,43H21V44H20zM21,43H22V44H21zM23,43H24V44H23zM24,43H25V44H24zM25,43H26V44H25zM26,43H27V44H26zM27,43H28V44H27zM28,43H29V44H28zM29,43H30V44H29zM32,43H33V44H32zM33,43H34V44H33zM36,43H37V44H36zM37,43H38V44H37zM38,43H39V44H38zM43,43H44V44H43zM44,43H45V44H44zM45,43H46V44H45zM47,43H48V44H47zM49,43H50V44H49zM50,43H51V44H50zM51,43H52V44H51zM52,43H53V44H52zM53,43H54V44H53zM54,43H55V44H54zM57,43H58V44H57zM61,43H62V44H61zM64,43H65V44H64zM66,43H67V44H66zM68,43H69V44H68zM69,43H70V44H69zM70,43H71V44H70zM71,43H72V44H71zM72,43H73V44H72zM75,43H76V44H75zM77,43H78V44H77zM78,43H79V44H78zM83,43H84V44H83zM84,43H85V44H84zM85,43H86V44H85zM86,43H87V44H86zM87,43H88V44H87zM88,43H89V44H88zM89,43H90V44H89zM92,43H93V44H92zM96,43H97V44H96zM98,43H99V44H98zM100,43H101V44H100zM103,43H104V44H103zM104,43H105V44H104zM105,43H106V44H105zM106,43H107V44H106zM107,43H108V44H107zM4,44H5V45H4zM5,44H6V45H5zM6,44H7V45H6zM7,44H8V45H7zM8,44H9V45H8zM9,44H10V45H9zM10,44H11V45H10zM16,44H17V45H16zM17,44H18V45H17zM18,44H19V45H18zM20,44H21V45H20zM23,44H24V45H23zM24,44H25V45H24zM26,44H27V45H26zM28,44H29V45H28zM29,44H30V45H29zM31,44H32V45H31zM32,44H33V45H32zM34,44H35V45H34zM36,44H37V45H36zM38,44H39V45H38zM39,44H40V45H39zM42,44H43V45H42zM43,44H44V45H43zM44,44H45V45H44zM45,44H46V45H45zM46,44H47V45H46zM48,44H49V45H48zM51,44H52V45H51zM52,44H53V45H52zM53,44H54V45H53zM54,44H55V45H54zM56,44H57V45H56zM58,44H59V45H58zM61,44H62V45H61zM62,44H63V45H62zM63,44H64V45H63zM65,44H66V45H65zM66,44H67V45H66zM67,44H68V45H67zM68,44H69V45H68zM69,44H70V45H69zM70,44H71V45H70zM71,44H72V45H71zM73,44H74V45H73zM76,44H77V45H76zM81,44H82V45H81zM85,44H86V45H85zM87,44H88V45H87zM88,44H89V45H88zM89,44H90V45H89zM90,44H91V45H90zM92,44H93V45H92zM93,44H94V45H93zM95,44H96V45H95zM96,44H97V45H96zM99,44H100V45H99zM101,44H102V45H101zM103,44H104V45H103zM107,44H108V45H107zM108,44H109V45H108zM4,45H5V46H4zM5,45H6V46H5zM6,45H7V46H6zM9,45H10V46H9zM14,45H15V46H14zM15,45H16V46H15zM17,45H18V46H17zM20,45H21V46H20zM21,45H22V46H21zM22,45H23V46H22zM27,45H28V46H27zM29,45H30V46H29zM30,45H31V46H30zM31,45H32V46H31zM32,45H33V46H32zM33,45H34V46H33zM34,45H35V46H34zM37,45H38V46H37zM38,45H39V46H38zM41,45H42V46H41zM43,45H44V46H43zM47,45H48V46H47zM48,45H49V46H48zM54,45H55V46H54zM56,45H57V46H56zM62,45H63V46H62zM63,45H64V46H63zM64,45H65V46H64zM65,45H66V46H65zM69,45H70V46H69zM70,45H71V46H70zM72,45H73V46H72zM74,45H75V46H74zM75,45H76V46H75zM76,45H77V46H76zM77,45H78V46H77zM80,45H81V46H80zM85,45H86V46H85zM88,45H89V46H88zM89,45H90V46H89zM91,45H92V46H91zM92,45H93V46H92zM94,45H95V46H94zM95,45H96V46H95zM97,45H98V46H97zM99,45H100V46H99zM100,45H101V46H100zM101,45H102V46H101zM102,45H103V46H102zM104,45H105V46H104zM105,45H106V46H105zM107,45H108V46H107zM108,45H109V46H108zM4,46H5V47H4zM7,46H8V47H7zM10,46H11V47H10zM11,46H12V47H11zM12,46H13V47H12zM16,46H17V47H16zM17,46H18V47H17zM21,46H22V47H21zM22,46H23V47H22zM23,46H24V47H23zM25,46H26V47H25zM27,46H28V47H27zM32,46H33V47H32zM35,46H36V47H35zM37,46H38V47H37zM38,46H39V47H38zM40,46H41V47H40zM42,46H43V47H42zM44,46H45V47H44zM54,46H55V47H54zM55,46H56V47H55zM56,46H57V47H56zM59,46H60V47H59zM62,46H63V47H62zM63,46H64V47H63zM66,46H67V47H66zM70,46H71V47H70zM74,46H75V47H74zM76,46H77V47H76zM78,46H79V47H78zM79,46H80V47H79zM80,46H81V47H80zM82,46H83V47H82zM83,46H84V47H83zM85,46H86V47H85zM86,46H87V47H86zM87,46H88V47H87zM89,46H90V47H89zM90,46H91V47H90zM93,46H94V47H93zM94,46H95V47H94zM95,46H96V47H95zM98,46H99V47H98zM100,46H101V47H100zM101,46H102V47H101zM103,46H104V47H103zM107,46H108V47H107zM108,46H109V47H108zM4,47H5V48H4zM5,47H6V48H5zM7,47H8V48H7zM9,47H10V48H9zM11,47H12V48H11zM12,47H13V48H12zM15,47H16V48H15zM16,47H17V48H16zM18,47H19V48H18zM22,47H23V48H22zM24,47H25V48H24zM28,47H29V48H28zM30,47H31V48H30zM31,47H32V48H31zM35,47H36V48H35zM36,47H37V48H36zM38,47H39V48H38zM39,47H40V48H39zM40,47H41V48H40zM41,47H42V48H41zM42,47H43V48H42zM43,47H44V48H43zM46,47H47V48H46zM47,47H48V48H47zM48,47H49V48H48zM50,47H51V48H50zM52,47H53V48H52zM53,47H54V48H53zM57,47H58V48H57zM58,47H59V48H58zM59,47H60V48H59zM60,47H61V48H60zM71,47H72V48H71zM73,47H74V48H73zM75,47H76V48H75zM77,47H78V48H77zM80,47H81V48H80zM82,47H83V48H82zM91,47H92V48H91zM93,47H94V48H93zM95,47H96V48H95zM97,47H98V48H97zM98,47H99V48H98zM100,47H101V48H100zM101,47H102V48H101zM103,47H104V48H103zM105,47H106V48H105zM106,47H107V48H106zM107,47H108V48H107zM5,48H6V49H5zM8,48H9V49H8zM9,48H10V49H9zM10,48H11V49H10zM11,48H12V49H11zM12,48H13V49H12zM14,48H15V49H14zM16,48H17V49H16zM17,48H18V49H17zM22,48H23V49H22zM23,48H24V49H23zM24,48H25V49H24zM25,48H26V49H25zM26,48H27V49H26zM27,48H28V49H27zM28,48H29V49H28zM29,48H30V49H29zM30,48H31V49H30zM38,48H39V49H38zM39,48H40V49H39zM41,48H42V49H41zM42,48H43V49H42zM43,48H44V49H43zM45,48H46V49H45zM47,48H48V49H47zM49,48H50V49H49zM50,48H51V49H50zM51,48H52V49H51zM56,48H57V49H56zM57,48H58V49H57zM58,48H59V49H58zM61,48H62V49H61zM62,48H63V49H62zM63,48H64V49H63zM64,48H65V49H64zM73,48H74V49H73zM76,48H77V49H76zM77,48H78V49H77zM78,48H79V49H78zM81,48H82V49H81zM82,48H83V49H82zM84,48H85V49H84zM86,48H87V49H86zM89,48H90V49H89zM90,48H91V49H90zM91,48H92V49H91zM92,48H93V49H92zM93,48H94V49H93zM96,48H97V49H96zM97,48H98V49H97zM98,48H99V49H98zM99,48H100V49H99zM100,48H101V49H100zM101,48H102V49H101zM108,48H109V49H108zM12,49H13V50H12zM14,49H15V50H14zM16,49H17V50H16zM17,49H18V50H17zM21,49H22V50H21zM31,49H32V50H31zM32,49H33V50H32zM34,49H35V50H34zM37,49H38V50H37zM38,49H39V50H38zM41,49H42V50H41zM42,49H43V50H42zM47,49H48V50H47zM48,49H49V50H48zM49,49H50V50H49zM50,49H51V50H50zM51,49H52V50H51zM52,49H53V50H52zM53,49H54V50H53zM57,49H58V50H57zM60,49H61V50H60zM61,49H62V50H61zM62,49H63V50H62zM63,49H64V50H63zM64,49H65V50H64zM65,49H66V50H65zM67,49H68V50H67zM68,49H69V50H68zM69,49H70V50H69zM70,49H71V50H70zM73,49H74V50H73zM75,49H76V50H75zM76,49H77V50H76zM77,49H78V50H77zM80,49H81V50H80zM81,49H82V50H81zM82,49H83V50H82zM84,49H85V50H84zM86,49H87V50H86zM88,49H89V50H88zM89,49H90V50H89zM96,49H97V50H96zM97,49H98V50H97zM98,49H99V50H98zM99,49H100V50H99zM100,49H101V50H100zM105,49H106V50H105zM4,50H5V51H4zM5,50H6V51H5zM7,50H8V51H7zM9,50H10V51H9zM10,50H11V51H10zM11,50H12V51H11zM12,50H13V51H12zM15,50H16V51H15zM17,50H18V51H17zM19,50H20V51H19zM22,50H23V51H22zM24,50H25V51H24zM26,50H27V51H26zM28,50H29V51H28zM30,50H31V51H30zM32,50H33V51H32zM34,50H35V51H34zM35,50H36V51H35zM36,50H37V51H36zM37,50H38V51H37zM38,50H39V51H38zM40,50H41V51H40zM41,50H42V51H41zM45,50H46V51H45zM46,50H47V51H46zM47,50H48V51H47zM48,50H49V51H48zM49,50H50V51H49zM52,50H53V51H52zM55,50H56V51H55zM56,50H57V51H56zM57,50H58V51H57zM61,50H62V51H61zM65,50H66V51H65zM68,50H69V51H68zM69,50H70V51H69zM70,50H71V51H70zM72,50H73V51H72zM75,50H76V51H75zM78,50H79V51H78zM81,50H82V51H81zM82,50H83V51H82zM83,50H84V51H83zM85,50H86V51H85zM89,50H90V51H89zM91,50H92V51H91zM92,50H93V51H92zM93,50H94V51H93zM94,50H95V51H94zM96,50H97V51H96zM103,50H104V51H103zM104,50H105V51H104zM105,50H106V51H105zM106,50H107V51H106zM107,50H108V51H107zM4,51H5V52H4zM5,51H6V52H5zM6,51H7V52H6zM11,51H12V52H11zM12,51H13V52H12zM13,51H14V52H13zM14,51H15V52H14zM16,51H17V52H16zM20,51H21V52H20zM22,51H23V52H22zM27,51H28V52H27zM28,51H29V52H28zM32,51H33V52H32zM35,51H36V52H35zM37,51H38V52H37zM40,51H41V52H40zM41,51H42V52H41zM43,51H44V52H43zM45,51H46V52H45zM47,51H48V52H47zM48,51H49V52H48zM50,51H51V52H50zM51,51H52V52H51zM56,51H57V52H56zM59,51H60V52H59zM61,51H62V52H61zM62,51H63V52H62zM63,51H64V52H63zM64,51H65V52H64zM65,51H66V52H65zM66,51H67V52H66zM67,51H68V52H67zM71,51H72V52H71zM74,51H75V52H74zM75,51H76V52H75zM76,51H77V52H76zM80,51H81V52H80zM81,51H82V52H81zM82,51H83V52H82zM83,51H84V52H83zM85,51H86V52H85zM88,51H89V52H88zM90,51H91V52H90zM97,51H98V52H97zM100,51H101V52H100zM105,51H106V52H105zM106,51H107V52H106zM107,51H108V52H107zM5,52H6V53H5zM7,52H8V53H7zM8,52H9V53H8zM9,52H10V53H9zM10,52H11V53H10zM11,52H12V53H11zM12,52H13V53H12zM14,52H15V53H14zM16,52H17V53H16zM20,52H21V53H20zM22,52H23V53H22zM23,52H24V53H23zM24,52H25V53H24zM27,52H28V53H27zM28,52H29V53H28zM29,52H30V53H29zM30,52H31V53H30zM31,52H32V53H31zM32,52H33V53H32zM37,52H38V53H37zM40,52H41V53H40zM42,52H43V53H42zM43,52H44V53H43zM44,52H45V53H44zM49,52H50V53H49zM52,52H53V53H52zM53,52H54V53H53zM54,52H55V53H54zM55,52H56V53H55zM56,52H57V53H56zM57,52H58V53H57zM63,52H64V53H63zM64,52H65V53H64zM67,52H68V53H67zM70,52H71V53H70zM71,52H72V53H71zM73,52H74V53H73zM75,52H76V53H75zM76,52H77V53H76zM77,52H78V53H77zM78,52H79V53H78zM79,52H80V53H79zM80,52H81V53H80zM83,52H84V53H83zM86,52H87V53H86zM88,52H89V53H88zM89,52H90V53H89zM90,52H91V53H90zM94,52H95V53H94zM96,52H97V53H96zM97,52H98V53H97zM100,52H101V53H100zM101,52H102V53H101zM102,52H103V53H102zM103,52H104V53H103zM104,52H105V53H104zM105,52H106V53H105zM106,52H107V53H106zM108,52H109V53H108zM4,53H5V54H4zM6,53H7V54H6zM8,53H9V54H8zM12,53H13V54H12zM17,53H18V54H17zM19,53H20V54H19zM28,53H29V54H28zM32,53H33V54H32zM35,53H36V54H35zM38,53H39V54H38zM40,53H41V54H40zM42,53H43V54H42zM43,53H44V54H43zM44,53H45V54H44zM46,53H47V54H46zM47,53H48V54H47zM48,53H49V54H48zM50,53H51V54H50zM51,53H52V54H51zM52,53H53V54H52zM56,53H57V54H56zM58,53H59V54H58zM63,53H64V54H63zM64,53H65V54H64zM65,53H66V54H65zM67,53H68V54H67zM68,53H69V54H68zM70,53H71V54H70zM71,53H72V54H71zM72,53H73V54H72zM73,53H74V54H73zM74,53H75V54H74zM75,53H76V54H75zM76,53H77V54H76zM80,53H81V54H80zM84,53H85V54H84zM85,53H86V54H85zM86,53H87V54H86zM87,53H88V54H87zM88,53H89V54H88zM91,53H92V54H91zM92,53H93V54H92zM93,53H94V54H93zM94,53H95V54H94zM96,53H97V54H96zM97,53H98V54H97zM100,53H101V54H100zM104,53H105V54H104zM106,53H107V54H106zM107,53H108V54H107zM108,53H109V54H108zM4,54H5V55H4zM5,54H6V55H5zM6,54H7V55H6zM7,54H8V55H7zM8,54H9V55H8zM10,54H11V55H10zM12,54H13V55H12zM13,54H14V55H13zM14,54H15V55H14zM15,54H16V55H15zM16,54H17V55H16zM18,54H19V55H18zM20,54H21V55H20zM21,54H22V55H21zM23,54H24V55H23zM26,54H27V55H26zM28,54H29V55H28zM30,54H31V55H30zM32,54H33V55H32zM36,54H37V55H36zM37,54H38V55H37zM38,54H39V55H38zM39,54H40V55H39zM40,54H41V55H40zM44,54H45V55H44zM45,54H46V55H45zM46,54H47V55H46zM47,54H48V55H47zM49,54H50V55H49zM51,54H52V55H51zM52,54H53V55H52zM54,54H55V55H54zM56,54H57V55H56zM65,54H66V55H65zM67,54H68V55H67zM68,54H69V55H68zM69,54H70V55H69zM70,54H71V55H70zM71,54H72V55H71zM72,54H73V55H72zM73,54H74V55H73zM75,54H76V55H75zM76,54H77V55H76zM78,54H79V55H78zM80,54H81V55H80zM81,54H82V55H81zM82,54H83V55H82zM85,54H86V55H85zM89,54H90V55H89zM91,54H92V55H91zM93,54H94V55H93zM94,54H95V55H94zM100,54H101V55H100zM102,54H103V55H102zM104,54H105V55H104zM105,54H106V55H105zM106,54H107V55H106zM107,54H108V55H107zM7,55H8V56H7zM8,55H9V56H8zM12,55H13V56H12zM14,55H15V56H14zM15,55H16V56H15zM16,55H17V56H16zM20,55H21V56H20zM23,55H24V56H23zM28,55H29V56H28zM32,55H33V56H32zM34,55H35V56H34zM39,55H40V56H39zM41,55H42V56H41zM45,55H46V56H45zM46,55H47V56H46zM49,55H50V56H49zM50,55H51V56H50zM51,55H52V56H51zM52,55H53V56H52zM56,55H57V56H56zM58,55H59V56H58zM59,55H60V56H59zM60,55H61V56H60zM64,55H65V56H64zM65,55H66V56H65zM66,55H67V56H66zM68,55H69V56H68zM69,55H70V56H69zM71,55H72V56H71zM72,55H73V56H72zM73,55H74V56H73zM76,55H77V56H76zM80,55H81V56H80zM83,55H84V56H83zM84,55H85V56H84zM87,55H88V56H87zM88,55H89V56H88zM92,55H93V56H92zM95,55H96V56H95zM96,55H97V56H96zM97,55H98V56H97zM100,55H101V56H100zM104,55H105V56H104zM105,55H106V56H105zM106,55H107V56H106zM108,55H109V56H108zM4,56H5V57H4zM5,56H6V57H5zM6,56H7V57H6zM8,56H9V57H8zM9,56H10V57H9zM10,56H11V57H10zM11,56H12V57H11zM12,56H13V57H12zM14,56H15V57H14zM17,56H18V57H17zM18,56H19V57H18zM22,56H23V57H22zM24,56H25V57H24zM25,56H26V57H25zM28,56H29V57H28zM29,56H30V57H29zM30,56H31V57H30zM31,56H32V57H31zM32,56H33V57H32zM33,56H34V57H33zM36,56H37V57H36zM38,56H39V57H38zM39,56H40V57H39zM44,56H45V57H44zM45,56H46V57H45zM46,56H47V57H46zM47,56H48V57H47zM48,56H49V57H48zM49,56H50V57H49zM52,56H53V57H52zM53,56H54V57H53zM54,56H55V57H54zM55,56H56V57H55zM56,56H57V57H56zM59,56H60V57H59zM61,56H62V57H61zM62,56H63V57H62zM64,56H65V57H64zM65,56H66V57H65zM66,56H67V57H66zM69,56H70V57H69zM70,56H71V57H70zM73,56H74V57H73zM74,56H75V57H74zM75,56H76V57H75zM76,56H77V57H76zM77,56H78V57H77zM78,56H79V57H78zM79,56H80V57H79zM80,56H81V57H80zM81,56H82V57H81zM82,56H83V57H82zM84,56H85V57H84zM85,56H86V57H85zM88,56H89V57H88zM89,56H90V57H89zM90,56H91V57H90zM91,56H92V57H91zM92,56H93V57H92zM96,56H97V57H96zM99,56H100V57H99zM100,56H101V57H100zM101,56H102V57H101zM102,56H103V57H102zM103,56H104V57H103zM104,56H105V57H104zM107,56H108V57H107zM4,57H5V58H4zM6,57H7V58H6zM8,57H9V58H8zM9,57H10V58H9zM12,57H13V58H12zM16,57H17V58H16zM20,57H21V58H20zM22,57H23V58H22zM27,57H28V58H27zM32,57H33V58H32zM34,57H35V58H34zM35,57H36V58H35zM38,57H39V58H38zM39,57H40V58H39zM41,57H42V58H41zM42,57H43V58H42zM45,57H46V58H45zM46,57H47V58H46zM47,57H48V58H47zM48,57H49V58H48zM51,57H52V58H51zM53,57H54V58H53zM54,57H55V58H54zM56,57H57V58H56zM57,57H58V58H57zM58,57H59V58H58zM63,57H64V58H63zM64,57H65V58H64zM66,57H67V58H66zM67,57H68V58H67zM70,57H71V58H70zM72,57H73V58H72zM74,57H75V58H74zM75,57H76V58H75zM77,57H78V58H77zM78,57H79V58H78zM79,57H80V58H79zM81,57H82V58H81zM82,57H83V58H82zM86,57H87V58H86zM87,57H88V58H87zM89,57H90V58H89zM90,57H91V58H90zM91,57H92V58H91zM92,57H93V58H92zM93,57H94V58H93zM97,57H98V58H97zM99,57H100V58H99zM100,57H101V58H100zM101,57H102V58H101zM103,57H104V58H103zM104,57H105V58H104zM106,57H107V58H106zM108,57H109V58H108zM6,58H7V59H6zM9,58H10V59H9zM10,58H11V59H10zM13,58H14V59H13zM17,58H18V59H17zM21,58H22V59H21zM22,58H23V59H22zM24,58H25V59H24zM27,58H28V59H27zM28,58H29V59H28zM29,58H30V59H29zM35,58H36V59H35zM36,58H37V59H36zM37,58H38V59H37zM38,58H39V59H38zM41,58H42V59H41zM43,58H44V59H43zM44,58H45V59H44zM46,58H47V59H46zM48,58H49V59H48zM49,58H50V59H49zM51,58H52V59H51zM52,58H53V59H52zM53,58H54V59H53zM56,58H57V59H56zM57,58H58V59H57zM61,58H62V59H61zM63,58H64V59H63zM66,58H67V59H66zM70,58H71V59H70zM71,58H72V59H71zM74,58H75V59H74zM76,58H77V59H76zM78,58H79V59H78zM80,58H81V59H80zM81,58H82V59H81zM82,58H83V59H82zM83,58H84V59H83zM86,58H87V59H86zM88,58H89V59H88zM90,58H91V59H90zM91,58H92V59H91zM93,58H94V59H93zM94,58H95V59H94zM95,58H96V59H95zM98,58H99V59H98zM99,58H100V59H99zM100,58H101V59H100zM102,58H103V59H102zM103,58H104V59H103zM104,58H105V59H104zM106,58H107V59H106zM108,58H109V59H108zM6,59H7V60H6zM8,59H9V60H8zM9,59H10V60H9zM12,59H13V60H12zM13,59H14V60H13zM14,59H15V60H14zM16,59H17V60H16zM20,59H21V60H20zM25,59H26V60H25zM27,59H28V60H27zM32,59H33V60H32zM36,59H37V60H36zM40,59H41V60H40zM41,59H42V60H41zM42,59H43V60H42zM45,59H46V60H45zM46,59H47V60H46zM48,59H49V60H48zM50,59H51V60H50zM52,59H53V60H52zM53,59H54V60H53zM54,59H55V60H54zM57,59H58V60H57zM58,59H59V60H58zM60,59H61V60H60zM62,59H63V60H62zM63,59H64V60H63zM64,59H65V60H64zM66,59H67V60H66zM73,59H74V60H73zM74,59H75V60H74zM75,59H76V60H75zM76,59H77V60H76zM79,59H80V60H79zM80,59H81V60H80zM81,59H82V60H81zM83,59H84V60H83zM87,59H88V60H87zM88,59H89V60H88zM90,59H91V60H90zM93,59H94V60H93zM95,59H96V60H95zM98,59H99V60H98zM99,59H100V60H99zM104,59H105V60H104zM105,59H106V60H105zM106,59H107V60H106zM107,59H108V60H107zM5,60H6V61H5zM8,60H9V61H8zM9,60H10V61H9zM10,60H11V61H10zM11,60H12V61H11zM12,60H13V61H12zM15,60H16V61H15zM19,60H20V61H19zM21,60H22V61H21zM26,60H27V61H26zM27,60H28V61H27zM29,60H30V61H29zM30,60H31V61H30zM31,60H32V61H31zM32,60H33V61H32zM36,60H37V61H36zM39,60H40V61H39zM40,60H41V61H40zM42,60H43V61H42zM43,60H44V61H43zM46,60H47V61H46zM49,60H50V61H49zM52,60H53V61H52zM53,60H54V61H53zM56,60H57V61H56zM57,60H58V61H57zM61,60H62V61H61zM63,60H64V61H63zM64,60H65V61H64zM65,60H66V61H65zM66,60H67V61H66zM70,60H71V61H70zM73,60H74V61H73zM74,60H75V61H74zM75,60H76V61H75zM76,60H77V61H76zM79,60H80V61H79zM80,60H81V61H80zM83,60H84V61H83zM84,60H85V61H84zM85,60H86V61H85zM86,60H87V61H86zM89,60H90V61H89zM92,60H93V61H92zM93,60H94V61H93zM95,60H96V61H95zM96,60H97V61H96zM98,60H99V61H98zM101,60H102V61H101zM102,60H103V61H102zM105,60H106V61H105zM108,60H109V61H108zM6,61H7V62H6zM9,61H10V62H9zM11,61H12V62H11zM12,61H13V62H12zM13,61H14V62H13zM14,61H15V62H14zM15,61H16V62H15zM16,61H17V62H16zM20,61H21V62H20zM25,61H26V62H25zM28,61H29V62H28zM29,61H30V62H29zM30,61H31V62H30zM31,61H32V62H31zM32,61H33V62H32zM33,61H34V62H33zM34,61H35V62H34zM35,61H36V62H35zM38,61H39V62H38zM39,61H40V62H39zM41,61H42V62H41zM42,61H43V62H42zM43,61H44V62H43zM46,61H47V62H46zM47,61H48V62H47zM50,61H51V62H50zM52,61H53V62H52zM55,61H56V62H55zM58,61H59V62H58zM59,61H60V62H59zM65,61H66V62H65zM66,61H67V62H66zM67,61H68V62H67zM68,61H69V62H68zM74,61H75V62H74zM75,61H76V62H75zM76,61H77V62H76zM77,61H78V62H77zM79,61H80V62H79zM80,61H81V62H80zM81,61H82V62H81zM82,61H83V62H82zM84,61H85V62H84zM85,61H86V62H85zM86,61H87V62H86zM87,61H88V62H87zM91,61H92V62H91zM92,61H93V62H92zM94,61H95V62H94zM95,61H96V62H95zM97,61H98V62H97zM99,61H100V62H99zM100,61H101V62H100zM102,61H103V62H102zM103,61H104V62H103zM104,61H105V62H104zM105,61H106V62H105zM106,61H107V62H106zM4,62H5V63H4zM5,62H6V63H5zM6,62H7V63H6zM8,62H9V63H8zM10,62H11V63H10zM11,62H12V63H11zM12,62H13V63H12zM14,62H15V63H14zM15,62H16V63H15zM16,62H17V63H16zM18,62H19V63H18zM19,62H20V63H19zM20,62H21V63H20zM21,62H22V63H21zM22,62H23V63H22zM23,62H24V63H23zM25,62H26V63H25zM26,62H27V63H26zM29,62H30V63H29zM30,62H31V63H30zM31,62H32V63H31zM32,62H33V63H32zM33,62H34V63H33zM34,62H35V63H34zM36,62H37V63H36zM37,62H38V63H37zM39,62H40V63H39zM44,62H45V63H44zM45,62H46V63H45zM46,62H47V63H46zM48,62H49V63H48zM49,62H50V63H49zM52,62H53V63H52zM53,62H54V63H53zM55,62H56V63H55zM56,62H57V63H56zM60,62H61V63H60zM61,62H62V63H61zM62,62H63V63H62zM63,62H64V63H63zM64,62H65V63H64zM65,62H66V63H65zM68,62H69V63H68zM70,62H71V63H70zM71,62H72V63H71zM72,62H73V63H72zM75,62H76V63H75zM76,62H77V63H76zM77,62H78V63H77zM78,62H79V63H78zM81,62H82V63H81zM82,62H83V63H82zM83,62H84V63H83zM85,62H86V63H85zM87,62H88V63H87zM91,62H92V63H91zM92,62H93V63H92zM93,62H94V63H93zM94,62H95V63H94zM100,62H101V63H100zM101,62H102V63H101zM102,62H103V63H102zM104,62H105V63H104zM105,62H106V63H105zM107,62H108V63H107zM4,63H5V64H4zM8,63H9V64H8zM9,63H10V64H9zM11,63H12V64H11zM13,63H14V64H13zM14,63H15V64H14zM15,63H16V64H15zM16,63H17V64H16zM17,63H18V64H17zM19,63H20V64H19zM22,63H23V64H22zM26,63H27V64H26zM28,63H29V64H28zM32,63H33V64H32zM33,63H34V64H33zM34,63H35V64H34zM35,63H36V64H35zM36,63H37V64H36zM38,63H39V64H38zM39,63H40V64H39zM44,63H45V64H44zM45,63H46V64H45zM46,63H47V64H46zM49,63H50V64H49zM52,63H53V64H52zM55,63H56V64H55zM58,63H59V64H58zM61,63H62V64H61zM62,63H63V64H62zM63,63H64V64H63zM64,63H65V64H64zM65,63H66V64H65zM69,63H70V64H69zM71,63H72V64H71zM73,63H74V64H73zM74,63H75V64H74zM75,63H76V64H75zM76,63H77V64H76zM80,63H81V64H80zM81,63H82V64H81zM83,63H84V64H83zM86,63H87V64H86zM88,63H89V64H88zM89,63H90V64H89zM90,63H91V64H90zM91,63H92V64H91zM95,63H96V64H95zM99,63H100V64H99zM100,63H101V64H100zM105,63H106V64H105zM106,63H107V64H106zM5,64H6V65H5zM8,64H9V65H8zM10,64H11V65H10zM13,64H14V65H13zM15,64H16V65H15zM18,64H19V65H18zM21,64H22V65H21zM22,64H23V65H22zM24,64H25V65H24zM25,64H26V65H25zM27,64H28V65H27zM32,64H33V65H32zM34,64H35V65H34zM35,64H36V65H35zM37,64H38V65H37zM39,64H40V65H39zM46,64H47V65H46zM48,64H49V65H48zM49,64H50V65H49zM53,64H54V65H53zM54,64H55V65H54zM56,64H57V65H56zM58,64H59V65H58zM60,64H61V65H60zM64,64H65V65H64zM67,64H68V65H67zM70,64H71V65H70zM71,64H72V65H71zM72,64H73V65H72zM73,64H74V65H73zM76,64H77V65H76zM77,64H78V65H77zM78,64H79V65H78zM79,64H80V65H79zM80,64H81V65H80zM81,64H82V65H81zM82,64H83V65H82zM83,64H84V65H83zM84,64H85V65H84zM88,64H89V65H88zM92,64H93V65H92zM95,64H96V65H95zM100,64H101V65H100zM102,64H103V65H102zM104,64H105V65H104zM105,64H106V65H105zM107,64H108V65H107zM6,65H7V66H6zM7,65H8V66H7zM8,65H9V66H8zM12,65H13V66H12zM13,65H14V66H13zM16,65H17V66H16zM17,65H18V66H17zM18,65H19V66H18zM20,65H21V66H20zM23,65H24V66H23zM25,65H26V66H25zM28,65H29V66H28zM30,65H31V66H30zM32,65H33V66H32zM34,65H35V66H34zM38,65H39V66H38zM39,65H40V66H39zM41,65H42V66H41zM42,65H43V66H42zM46,65H47V66H46zM55,65H56V66H55zM56,65H57V66H56zM59,65H60V66H59zM63,65H64V66H63zM64,65H65V66H64zM66,65H67V66H66zM68,65H69V66H68zM70,65H71V66H70zM71,65H72V66H71zM74,65H75V66H74zM77,65H78V66H77zM78,65H79V66H78zM79,65H80V66H79zM82,65H83V66H82zM85,65H86V66H85zM86,65H87V66H86zM87,65H88V66H87zM88,65H89V66H88zM91,65H92V66H91zM95,65H96V66H95zM97,65H98V66H97zM98,65H99V66H98zM99,65H100V66H99zM100,65H101V66H100zM103,65H104V66H103zM106,65H107V66H106zM108,65H109V66H108zM4,66H5V67H4zM5,66H6V67H5zM10,66H11V67H10zM11,66H12V67H11zM13,66H14V67H13zM14,66H15V67H14zM15,66H16V67H15zM16,66H17V67H16zM20,66H21V67H20zM22,66H23V67H22zM25,66H26V67H25zM26,66H27V67H26zM28,66H29V67H28zM29,66H30V67H29zM31,66H32V67H31zM32,66H33V67H32zM36,66H37V67H36zM37,66H38V67H37zM39,66H40V67H39zM41,66H42V67H41zM43,66H44V67H43zM46,66H47V67H46zM51,66H52V67H51zM53,66H54V67H53zM55,66H56V67H55zM61,66H62V67H61zM62,66H63V67H62zM65,66H66V67H65zM67,66H68V67H67zM68,66H69V67H68zM69,66H70V67H69zM70,66H71V67H70zM77,66H78V67H77zM78,66H79V67H78zM79,66H80V67H79zM80,66H81V67H80zM81,66H82V67H81zM82,66H83V67H82zM90,66H91V67H90zM91,66H92V67H91zM93,66H94V67H93zM94,66H95V67H94zM96,66H97V67H96zM97,66H98V67H97zM100,66H101V67H100zM102,66H103V67H102zM103,66H104V67H103zM105,66H106V67H105zM6,67H7V68H6zM8,67H9V68H8zM9,67H10V68H9zM14,67H15V68H14zM15,67H16V68H15zM18,67H19V68H18zM20,67H21V68H20zM23,67H24V68H23zM29,67H30V68H29zM30,67H31V68H30zM32,67H33V68H32zM33,67H34V68H33zM35,67H36V68H35zM36,67H37V68H36zM37,67H38V68H37zM39,67H40V68H39zM41,67H42V68H41zM43,67H44V68H43zM44,67H45V68H44zM46,67H47V68H46zM49,67H50V68H49zM51,67H52V68H51zM53,67H54V68H53zM54,67H55V68H54zM55,67H56V68H55zM57,67H58V68H57zM58,67H59V68H58zM59,67H60V68H59zM62,67H63V68H62zM63,67H64V68H63zM64,67H65V68H64zM67,67H68V68H67zM68,67H69V68H68zM70,67H71V68H70zM71,67H72V68H71zM72,67H73V68H72zM73,67H74V68H73zM74,67H75V68H74zM76,67H77V68H76zM77,67H78V68H77zM80,67H81V68H80zM81,67H82V68H81zM84,67H85V68H84zM87,67H88V68H87zM88,67H89V68H88zM90,67H91V68H90zM91,67H92V68H91zM92,67H93V68H92zM96,67H97V68H96zM99,67H100V68H99zM100,67H101V68H100zM105,67H106V68H105zM106,67H107V68H106zM108,67H109V68H108zM4,68H5V69H4zM5,68H6V69H5zM7,68H8V69H7zM10,68H11V69H10zM11,68H12V69H11zM16,68H17V69H16zM17,68H18V69H17zM18,68H19V69H18zM21,68H22V69H21zM22,68H23V69H22zM23,68H24V69H23zM26,68H27V69H26zM27,68H28V69H27zM28,68H29V69H28zM29,68H30V69H29zM30,68H31V69H30zM31,68H32V69H31zM32,68H33V69H32zM34,68H35V69H34zM37,68H38V69H37zM38,68H39V69H38zM39,68H40V69H39zM41,68H42V69H41zM42,68H43V69H42zM43,68H44V69H43zM44,68H45V69H44zM46,68H47V69H46zM47,68H48V69H47zM50,68H51V69H50zM51,68H52V69H51zM52,68H53V69H52zM54,68H55V69H54zM55,68H56V69H55zM57,68H58V69H57zM58,68H59V69H58zM59,68H60V69H59zM63,68H64V69H63zM64,68H65V69H64zM70,68H71V69H70zM76,68H77V69H76zM81,68H82V69H81zM87,68H88V69H87zM88,68H89V69H88zM92,68H93V69H92zM93,68H94V69H93zM95,68H96V69H95zM99,68H100V69H99zM101,68H102V69H101zM108,68H109V69H108zM5,69H6V70H5zM7,69H8V70H7zM8,69H9V70H8zM12,69H13V70H12zM18,69H19V70H18zM22,69H23V70H22zM23,69H24V70H23zM24,69H25V70H24zM30,69H31V70H30zM31,69H32V70H31zM32,69H33V70H32zM38,69H39V70H38zM41,69H42V70H41zM42,69H43V70H42zM46,69H47V70H46zM48,69H49V70H48zM49,69H50V70H49zM53,69H54V70H53zM54,69H55V70H54zM58,69H59V70H58zM59,69H60V70H59zM62,69H63V70H62zM65,69H66V70H65zM67,69H68V70H67zM79,69H80V70H79zM83,69H84V70H83zM85,69H86V70H85zM89,69H90V70H89zM92,69H93V70H92zM96,69H97V70H96zM97,69H98V70H97zM99,69H100V70H99zM100,69H101V70H100zM101,69H102V70H101zM103,69H104V70H103zM108,69H109V70H108zM6,70H7V71H6zM7,70H8V71H7zM8,70H9V71H8zM10,70H11V71H10zM11,70H12V71H11zM12,70H13V71H12zM16,70H17V71H16zM18,70H19V71H18zM19,70H20V71H19zM23,70H24V71H23zM25,70H26V71H25zM26,70H27V71H26zM28,70H29V71H28zM32,70H33V71H32zM36,70H37V71H36zM38,70H39V71H38zM41,70H42V71H41zM43,70H44V71H43zM44,70H45V71H44zM46,70H47V71H46zM48,70H49V71H48zM49,70H50V71H49zM51,70H52V71H51zM53,70H54V71H53zM54,70H55V71H54zM55,70H56V71H55zM56,70H57V71H56zM57,70H58V71H57zM58,70H59V71H58zM64,70H65V71H64zM66,70H67V71H66zM70,70H71V71H70zM71,70H72V71H71zM72,70H73V71H72zM74,70H75V71H74zM75,70H76V71H75zM76,70H77V71H76zM78,70H79V71H78zM80,70H81V71H80zM82,70H83V71H82zM84,70H85V71H84zM86,70H87V71H86zM87,70H88V71H87zM88,70H89V71H88zM89,70H90V71H89zM94,70H95V71H94zM95,70H96V71H95zM98,70H99V71H98zM100,70H101V71H100zM101,70H102V71H101zM103,70H104V71H103zM105,70H106V71H105zM107,70H108V71H107zM108,70H109V71H108zM5,71H6V72H5zM7,71H8V72H7zM9,71H10V72H9zM13,71H14V72H13zM18,71H19V72H18zM19,71H20V72H19zM22,71H23V72H22zM23,71H24V72H23zM24,71H25V72H24zM27,71H28V72H27zM28,71H29V72H28zM32,71H33V72H32zM36,71H37V72H36zM37,71H38V72H37zM39,71H40V72H39zM41,71H42V72H41zM42,71H43V72H42zM43,71H44V72H43zM45,71H46V72H45zM46,71H47V72H46zM47,71H48V72H47zM49,71H50V72H49zM51,71H52V72H51zM53,71H54V72H53zM55,71H56V72H55zM56,71H57V72H56zM57,71H58V72H57zM58,71H59V72H58zM59,71H60V72H59zM61,71H62V72H61zM63,71H64V72H63zM64,71H65V72H64zM67,71H68V72H67zM74,71H75V72H74zM75,71H76V72H75zM77,71H78V72H77zM78,71H79V72H78zM79,71H80V72H79zM85,71H86V72H85zM88,71H89V72H88zM89,71H90V72H89zM93,71H94V72H93zM94,71H95V72H94zM95,71H96V72H95zM97,71H98V72H97zM99,71H100V72H99zM100,71H101V72H100zM103,71H104V72H103zM104,71H105V72H104zM105,71H106V72H105zM106,71H107V72H106zM107,71H108V72H107zM108,71H109V72H108zM8,72H9V73H8zM10,72H11V73H10zM13,72H14V73H13zM16,72H17V73H16zM18,72H19V73H18zM20,72H21V73H20zM21,72H22V73H21zM28,72H29V73H28zM30,72H31V73H30zM31,72H32V73H31zM32,72H33V73H32zM34,72H35V73H34zM35,72H36V73H35zM38,72H39V73H38zM41,72H42V73H41zM42,72H43V73H42zM43,72H44V73H43zM47,72H48V73H47zM49,72H50V73H49zM50,72H51V73H50zM51,72H52V73H51zM52,72H53V73H52zM53,72H54V73H53zM54,72H55V73H54zM59,72H60V73H59zM60,72H61V73H60zM62,72H63V73H62zM63,72H64V73H63zM64,72H65V73H64zM65,72H66V73H65zM66,72H67V73H66zM67,72H68V73H67zM70,72H71V73H70zM71,72H72V73H71zM72,72H73V73H72zM73,72H74V73H73zM76,72H77V73H76zM77,72H78V73H77zM79,72H80V73H79zM80,72H81V73H80zM81,72H82V73H81zM82,72H83V73H82zM84,72H85V73H84zM86,72H87V73H86zM87,72H88V73H87zM89,72H90V73H89zM91,72H92V73H91zM95,72H96V73H95zM96,72H97V73H96zM100,72H101V73H100zM102,72H103V73H102zM103,72H104V73H103zM107,72H108V73H107zM108,72H109V73H108zM7,73H8V74H7zM8,73H9V74H8zM9,73H10V74H9zM11,73H12V74H11zM12,73H13V74H12zM16,73H17V74H16zM17,73H18V74H17zM18,73H19V74H18zM19,73H20V74H19zM20,73H21V74H20zM23,73H24V74H23zM24,73H25V74H24zM28,73H29V74H28zM36,73H37V74H36zM37,73H38V74H37zM38,73H39V74H38zM39,73H40V74H39zM41,73H42V74H41zM44,73H45V74H44zM48,73H49V74H48zM54,73H55V74H54zM56,73H57V74H56zM59,73H60V74H59zM60,73H61V74H60zM62,73H63V74H62zM63,73H64V74H63zM64,73H65V74H64zM65,73H66V74H65zM66,73H67V74H66zM67,73H68V74H67zM68,73H69V74H68zM69,73H70V74H69zM70,73H71V74H70zM75,73H76V74H75zM76,73H77V74H76zM79,73H80V74H79zM80,73H81V74H80zM81,73H82V74H81zM82,73H83V74H82zM84,73H85V74H84zM85,73H86V74H85zM86,73H87V74H86zM87,73H88V74H87zM88,73H89V74H88zM91,73H92V74H91zM96,73H97V74H96zM97,73H98V74H97zM98,73H99V74H98zM99,73H100V74H99zM100,73H101V74H100zM101,73H102V74H101zM102,73H103V74H102zM103,73H104V74H103zM104,73H105V74H104zM106,73H107V74H106zM4,74H5V75H4zM5,74H6V75H5zM7,74H8V75H7zM8,74H9V75H8zM9,74H10V75H9zM10,74H11V75H10zM13,74H14V75H13zM15,74H16V75H15zM20,74H21V75H20zM26,74H27V75H26zM27,74H28V75H27zM28,74H29V75H28zM29,74H30V75H29zM31,74H32V75H31zM32,74H33V75H32zM33,74H34V75H33zM34,74H35V75H34zM40,74H41V75H40zM41,74H42V75H41zM43,74H44V75H43zM44,74H45V75H44zM47,74H48V75H47zM50,74H51V75H50zM51,74H52V75H51zM53,74H54V75H53zM54,74H55V75H54zM58,74H59V75H58zM61,74H62V75H61zM63,74H64V75H63zM66,74H67V75H66zM67,74H68V75H67zM69,74H70V75H69zM70,74H71V75H70zM72,74H73V75H72zM73,74H74V75H73zM76,74H77V75H76zM78,74H79V75H78zM81,74H82V75H81zM82,74H83V75H82zM84,74H85V75H84zM85,74H86V75H85zM90,74H91V75H90zM91,74H92V75H91zM92,74H93V75H92zM94,74H95V75H94zM104,74H105V75H104zM105,74H106V75H105zM106,74H107V75H106zM107,74H108V75H107zM11,75H12V76H11zM13,75H14V76H13zM15,75H16V76H15zM16,75H17V76H16zM20,75H21V76H20zM24,75H25V76H24zM26,75H27V76H26zM28,75H29V76H28zM31,75H32V76H31zM35,75H36V76H35zM37,75H38V76H37zM39,75H40V76H39zM41,75H42V76H41zM42,75H43V76H42zM43,75H44V76H43zM45,75H46V76H45zM50,75H51V76H50zM53,75H54V76H53zM56,75H57V76H56zM58,75H59V76H58zM60,75H61V76H60zM61,75H62V76H61zM62,75H63V76H62zM63,75H64V76H63zM64,75H65V76H64zM71,75H72V76H71zM74,75H75V76H74zM76,75H77V76H76zM79,75H80V76H79zM84,75H85V76H84zM87,75H88V76H87zM88,75H89V76H88zM91,75H92V76H91zM95,75H96V76H95zM98,75H99V76H98zM103,75H104V76H103zM104,75H105V76H104zM105,75H106V76H105zM106,75H107V76H106zM4,76H5V77H4zM5,76H6V77H5zM6,76H7V77H6zM8,76H9V77H8zM9,76H10V77H9zM10,76H11V77H10zM11,76H12V77H11zM12,76H13V77H12zM13,76H14V77H13zM14,76H15V77H14zM17,76H18V77H17zM19,76H20V77H19zM20,76H21V77H20zM22,76H23V77H22zM27,76H28V77H27zM28,76H29V77H28zM29,76H30V77H29zM30,76H31V77H30zM31,76H32V77H31zM32,76H33V77H32zM35,76H36V77H35zM38,76H39V77H38zM40,76H41V77H40zM41,76H42V77H41zM42,76H43V77H42zM43,76H44V77H43zM45,76H46V77H45zM47,76H48V77H47zM52,76H53V77H52zM53,76H54V77H53zM54,76H55V77H54zM55,76H56V77H55zM56,76H57V77H56zM57,76H58V77H57zM59,76H60V77H59zM63,76H64V77H63zM64,76H65V77H64zM65,76H66V77H65zM66,76H67V77H66zM70,76H71V77H70zM73,76H74V77H73zM75,76H76V77H75zM76,76H77V77H76zM77,76H78V77H77zM78,76H79V77H78zM79,76H80V77H79zM80,76H81V77H80zM83,76H84V77H83zM86,76H87V77H86zM88,76H89V77H88zM90,76H91V77H90zM95,76H96V77H95zM96,76H97V77H96zM97,76H98V77H97zM98,76H99V77H98zM99,76H100V77H99zM100,76H101V77H100zM101,76H102V77H101zM102,76H103V77H102zM103,76H104V77H103zM104,76H105V77H104zM108,76H109V77H108zM8,77H9V78H8zM12,77H13V78H12zM13,77H14V78H13zM14,77H15V78H14zM15,77H16V78H15zM16,77H17V78H16zM17,77H18V78H17zM20,77H21V78H20zM22,77H23V78H22zM28,77H29V78H28zM32,77H33V78H32zM35,77H36V78H35zM37,77H38V78H37zM38,77H39V78H38zM39,77H40V78H39zM46,77H47V78H46zM49,77H50V78H49zM50,77H51V78H50zM51,77H52V78H51zM52,77H53V78H52zM56,77H57V78H56zM57,77H58V78H57zM64,77H65V78H64zM65,77H66V78H65zM67,77H68V78H67zM68,77H69V78H68zM69,77H70V78H69zM70,77H71V78H70zM74,77H75V78H74zM76,77H77V78H76zM80,77H81V78H80zM83,77H84V78H83zM85,77H86V78H85zM89,77H90V78H89zM91,77H92V78H91zM97,77H98V78H97zM100,77H101V78H100zM104,77H105V78H104zM107,77H108V78H107zM108,77H109V78H108zM4,78H5V79H4zM8,78H9V79H8zM10,78H11V79H10zM12,78H13V79H12zM13,78H14V79H13zM15,78H16V79H15zM16,78H17V79H16zM21,78H22V79H21zM25,78H26V79H25zM28,78H29V79H28zM30,78H31V79H30zM32,78H33V79H32zM33,78H34V79H33zM36,78H37V79H36zM39,78H40V79H39zM42,78H43V79H42zM48,78H49V79H48zM50,78H51V79H50zM51,78H52V79H51zM52,78H53V79H52zM54,78H55V79H54zM56,78H57V79H56zM58,78H59V79H58zM61,78H62V79H61zM66,78H67V79H66zM68,78H69V79H68zM69,78H70V79H69zM70,78H71V79H70zM76,78H77V79H76zM78,78H79V79H78zM80,78H81V79H80zM81,78H82V79H81zM82,78H83V79H82zM87,78H88V79H87zM88,78H89V79H88zM92,78H93V79H92zM93,78H94V79H93zM94,78H95V79H94zM96,78H97V79H96zM99,78H100V79H99zM100,78H101V79H100zM102,78H103V79H102zM104,78H105V79H104zM107,78H108V79H107zM5,79H6V80H5zM7,79H8V80H7zM8,79H9V80H8zM12,79H13V80H12zM17,79H18V80H17zM18,79H19V80H18zM19,79H20V80H19zM20,79H21V80H20zM22,79H23V80H22zM24,79H25V80H24zM26,79H27V80H26zM27,79H28V80H27zM28,79H29V80H28zM32,79H33V80H32zM34,79H35V80H34zM35,79H36V80H35zM36,79H37V80H36zM39,79H40V80H39zM41,79H42V80H41zM44,79H45V80H44zM47,79H48V80H47zM48,79H49V80H48zM51,79H52V80H51zM52,79H53V80H52zM56,79H57V80H56zM57,79H58V80H57zM58,79H59V80H58zM59,79H60V80H59zM61,79H62V80H61zM63,79H64V80H63zM64,79H65V80H64zM68,79H69V80H68zM70,79H71V80H70zM71,79H72V80H71zM72,79H73V80H72zM76,79H77V80H76zM80,79H81V80H80zM81,79H82V80H81zM83,79H84V80H83zM84,79H85V80H84zM87,79H88V80H87zM88,79H89V80H88zM91,79H92V80H91zM92,79H93V80H92zM95,79H96V80H95zM96,79H97V80H96zM100,79H101V80H100zM104,79H105V80H104zM105,79H106V80H105zM106,79H107V80H106zM108,79H109V80H108zM5,80H6V81H5zM7,80H8V81H7zM8,80H9V81H8zM9,80H10V81H9zM10,80H11V81H10zM11,80H12V81H11zM12,80H13V81H12zM14,80H15V81H14zM16,80H17V81H16zM18,80H19V81H18zM22,80H23V81H22zM23,80H24V81H23zM24,80H25V81H24zM26,80H27V81H26zM27,80H28V81H27zM28,80H29V81H28zM29,80H30V81H29zM30,80H31V81H30zM31,80H32V81H31zM32,80H33V81H32zM33,80H34V81H33zM36,80H37V81H36zM38,80H39V81H38zM39,80H40V81H39zM40,80H41V81H40zM42,80H43V81H42zM45,80H46V81H45zM46,80H47V81H46zM47,80H48V81H47zM48,80H49V81H48zM52,80H53V81H52zM53,80H54V81H53zM54,80H55V81H54zM55,80H56V81H55zM56,80H57V81H56zM59,80H60V81H59zM61,80H62V81H61zM62,80H63V81H62zM63,80H64V81H63zM64,80H65V81H64zM65,80H66V81H65zM67,80H68V81H67zM68,80H69V81H68zM69,80H70V81H69zM70,80H71V81H70zM71,80H72V81H71zM72,80H73V81H72zM73,80H74V81H73zM74,80H75V81H74zM76,80H77V81H76zM77,80H78V81H77zM78,80H79V81H78zM79,80H80V81H79zM80,80H81V81H80zM82,80H83V81H82zM84,80H85V81H84zM85,80H86V81H85zM86,80H87V81H86zM92,80H93V81H92zM95,80H96V81H95zM96,80H97V81H96zM97,80H98V81H97zM99,80H100V81H99zM100,80H101V81H100zM101,80H102V81H101zM102,80H103V81H102zM103,80H104V81H103zM104,80H105V81H104zM107,80H108V81H107zM6,81H7V82H6zM7,81H8V82H7zM8,81H9V82H8zM12,81H13V82H12zM13,81H14V82H13zM16,81H17V82H16zM18,81H19V82H18zM20,81H21V82H20zM24,81H25V82H24zM27,81H28V82H27zM29,81H30V82H29zM30,81H31V82H30zM31,81H32V82H31zM38,81H39V82H38zM39,81H40V82H39zM44,81H45V82H44zM47,81H48V82H47zM48,81H49V82H48zM49,81H50V82H49zM50,81H51V82H50zM53,81H54V82H53zM55,81H56V82H55zM60,81H61V82H60zM61,81H62V82H61zM63,81H64V82H63zM64,81H65V82H64zM66,81H67V82H66zM69,81H70V82H69zM70,81H71V82H70zM74,81H75V82H74zM75,81H76V82H75zM77,81H78V82H77zM80,81H81V82H80zM81,81H82V82H81zM83,81H84V82H83zM85,81H86V82H85zM89,81H90V82H89zM90,81H91V82H90zM92,81H93V82H92zM98,81H99V82H98zM102,81H103V82H102zM103,81H104V82H103zM106,81H107V82H106zM5,82H6V83H5zM6,82H7V83H6zM7,82H8V83H7zM10,82H11V83H10zM11,82H12V83H11zM13,82H14V83H13zM14,82H15V83H14zM15,82H16V83H15zM22,82H23V83H22zM23,82H24V83H23zM24,82H25V83H24zM25,82H26V83H25zM26,82H27V83H26zM27,82H28V83H27zM29,82H30V83H29zM32,82H33V83H32zM37,82H38V83H37zM38,82H39V83H38zM39,82H40V83H39zM42,82H43V83H42zM43,82H44V83H43zM44,82H45V83H44zM45,82H46V83H45zM48,82H49V83H48zM50,82H51V83H50zM57,82H58V83H57zM58,82H59V83H58zM59,82H60V83H59zM60,82H61V83H60zM63,82H64V83H63zM65,82H66V83H65zM67,82H68V83H67zM68,82H69V83H68zM70,82H71V83H70zM71,82H72V83H71zM72,82H73V83H72zM74,82H75V83H74zM75,82H76V83H75zM76,82H77V83H76zM80,82H81V83H80zM82,82H83V83H82zM83,82H84V83H83zM86,82H87V83H86zM87,82H88V83H87zM90,82H91V83H90zM91,82H92V83H91zM93,82H94V83H93zM94,82H95V83H94zM98,82H99V83H98zM99,82H100V83H99zM102,82H103V83H102zM103,82H104V83H103zM104,82H105V83H104zM105,82H106V83H105zM106,82H107V83H106zM108,82H109V83H108zM4,83H5V84H4zM5,83H6V84H5zM6,83H7V84H6zM7,83H8V84H7zM11,83H12V84H11zM13,83H14V84H13zM14,83H15V84H14zM15,83H16V84H15zM17,83H18V84H17zM19,83H20V84H19zM21,83H22V84H21zM25,83H26V84H25zM28,83H29V84H28zM29,83H30V84H29zM30,83H31V84H30zM32,83H33V84H32zM33,83H34V84H33zM35,83H36V84H35zM36,83H37V84H36zM37,83H38V84H37zM38,83H39V84H38zM39,83H40V84H39zM40,83H41V84H40zM43,83H44V84H43zM44,83H45V84H44zM47,83H48V84H47zM49,83H50V84H49zM50,83H51V84H50zM51,83H52V84H51zM52,83H53V84H52zM55,83H56V84H55zM58,83H59V84H58zM63,83H64V84H63zM64,83H65V84H64zM66,83H67V84H66zM67,83H68V84H67zM74,83H75V84H74zM77,83H78V84H77zM80,83H81V84H80zM85,83H86V84H85zM88,83H89V84H88zM91,83H92V84H91zM98,83H99V84H98zM99,83H100V84H99zM100,83H101V84H100zM101,83H102V84H101zM102,83H103V84H102zM105,83H106V84H105zM106,83H107V84H106zM107,83H108V84H107zM4,84H5V85H4zM5,84H6V85H5zM8,84H9V85H8zM9,84H10V85H9zM10,84H11V85H10zM11,84H12V85H11zM12,84H13V85H12zM13,84H14V85H13zM14,84H15V85H14zM16,84H17V85H16zM19,84H20V85H19zM20,84H21V85H20zM21,84H22V85H21zM22,84H23V85H22zM24,84H25V85H24zM25,84H26V85H25zM31,84H32V85H31zM33,84H34V85H33zM34,84H35V85H34zM35,84H36V85H35zM36,84H37V85H36zM38,84H39V85H38zM40,84H41V85H40zM43,84H44V85H43zM45,84H46V85H45zM47,84H48V85H47zM48,84H49V85H48zM50,84H51V85H50zM51,84H52V85H51zM52,84H53V85H52zM54,84H55V85H54zM55,84H56V85H55zM56,84H57V85H56zM59,84H60V85H59zM60,84H61V85H60zM62,84H63V85H62zM63,84H64V85H63zM64,84H65V85H64zM65,84H66V85H65zM66,84H67V85H66zM68,84H69V85H68zM69,84H70V85H69zM70,84H71V85H70zM72,84H73V85H72zM73,84H74V85H73zM75,84H76V85H75zM76,84H77V85H76zM77,84H78V85H77zM79,84H80V85H79zM81,84H82V85H81zM83,84H84V85H83zM84,84H85V85H84zM86,84H87V85H86zM88,84H89V85H88zM89,84H90V85H89zM90,84H91V85H90zM93,84H94V85H93zM96,84H97V85H96zM97,84H98V85H97zM98,84H99V85H98zM99,84H100V85H99zM100,84H101V85H100zM105,84H106V85H105zM108,84H109V85H108zM4,85H5V86H4zM6,85H7V86H6zM8,85H9V86H8zM11,85H12V86H11zM13,85H14V86H13zM14,85H15V86H14zM16,85H17V86H16zM17,85H18V86H17zM18,85H19V86H18zM20,85H21V86H20zM21,85H22V86H21zM22,85H23V86H22zM24,85H25V86H24zM26,85H27V86H26zM29,85H30V86H29zM30,85H31V86H30zM31,85H32V86H31zM35,85H36V86H35zM37,85H38V86H37zM38,85H39V86H38zM39,85H40V86H39zM40,85H41V86H40zM46,85H47V86H46zM48,85H49V86H48zM50,85H51V86H50zM51,85H52V86H51zM54,85H55V86H54zM58,85H59V86H58zM59,85H60V86H59zM62,85H63V86H62zM64,85H65V86H64zM68,85H69V86H68zM69,85H70V86H69zM70,85H71V86H70zM72,85H73V86H72zM73,85H74V86H73zM74,85H75V86H74zM76,85H77V86H76zM77,85H78V86H77zM78,85H79V86H78zM79,85H80V86H79zM80,85H81V86H80zM83,85H84V86H83zM87,85H88V86H87zM90,85H91V86H90zM93,85H94V86H93zM94,85H95V86H94zM95,85H96V86H95zM97,85H98V86H97zM98,85H99V86H98zM102,85H103V86H102zM103,85H104V86H103zM104,85H105V86H104zM106,85H107V86H106zM4,86H5V87H4zM5,86H6V87H5zM8,86H9V87H8zM10,86H11V87H10zM12,86H13V87H12zM14,86H15V87H14zM17,86H18V87H17zM20,86H21V87H20zM21,86H22V87H21zM25,86H26V87H25zM27,86H28V87H27zM29,86H30V87H29zM30,86H31V87H30zM32,86H33V87H32zM35,86H36V87H35zM38,86H39V87H38zM39,86H40V87H39zM41,86H42V87H41zM44,86H45V87H44zM48,86H49V87H48zM50,86H51V87H50zM51,86H52V87H51zM55,86H56V87H55zM57,86H58V87H57zM58,86H59V87H58zM59,86H60V87H59zM62,86H63V87H62zM63,86H64V87H63zM65,86H66V87H65zM66,86H67V87H66zM68,86H69V87H68zM69,86H70V87H69zM70,86H71V87H70zM72,86H73V87H72zM78,86H79V87H78zM81,86H82V87H81zM82,86H83V87H82zM89,86H90V87H89zM91,86H92V87H91zM94,86H95V87H94zM100,86H101V87H100zM103,86H104V87H103zM105,86H106V87H105zM8,87H9V88H8zM9,87H10V88H9zM14,87H15V88H14zM15,87H16V88H15zM16,87H17V88H16zM18,87H19V88H18zM19,87H20V88H19zM20,87H21V88H20zM23,87H24V88H23zM25,87H26V88H25zM27,87H28V88H27zM29,87H30V88H29zM34,87H35V88H34zM38,87H39V88H38zM39,87H40V88H39zM44,87H45V88H44zM48,87H49V88H48zM52,87H53V88H52zM53,87H54V88H53zM55,87H56V88H55zM56,87H57V88H56zM57,87H58V88H57zM58,87H59V88H58zM60,87H61V88H60zM62,87H63V88H62zM64,87H65V88H64zM67,87H68V88H67zM70,87H71V88H70zM76,87H77V88H76zM77,87H78V88H77zM78,87H79V88H78zM80,87H81V88H80zM83,87H84V88H83zM86,87H87V88H86zM88,87H89V88H88zM90,87H91V88H90zM91,87H92V88H91zM93,87H94V88H93zM95,87H96V88H95zM98,87H99V88H98zM99,87H100V88H99zM100,87H101V88H100zM102,87H103V88H102zM103,87H104V88H103zM104,87H105V88H104zM105,87H106V88H105zM106,87H107V88H106zM107,87H108V88H107zM108,87H109V88H108zM5,88H6V89H5zM7,88H8V89H7zM8,88H9V89H8zM10,88H11V89H10zM14,88H15V89H14zM20,88H21V89H20zM22,88H23V89H22zM24,88H25V89H24zM25,88H26V89H25zM26,88H27V89H26zM27,88H28V89H27zM29,88H30V89H29zM32,88H33V89H32zM35,88H36V89H35zM36,88H37V89H36zM38,88H39V89H38zM40,88H41V89H40zM42,88H43V89H42zM43,88H44V89H43zM44,88H45V89H44zM45,88H46V89H45zM46,88H47V89H46zM47,88H48V89H47zM48,88H49V89H48zM52,88H53V89H52zM55,88H56V89H55zM56,88H57V89H56zM58,88H59V89H58zM60,88H61V89H60zM62,88H63V89H62zM65,88H66V89H65zM67,88H68V89H67zM68,88H69V89H68zM70,88H71V89H70zM72,88H73V89H72zM79,88H80V89H79zM82,88H83V89H82zM84,88H85V89H84zM86,88H87V89H86zM89,88H90V89H89zM91,88H92V89H91zM92,88H93V89H92zM96,88H97V89H96zM99,88H100V89H99zM101,88H102V89H101zM102,88H103V89H102zM103,88H104V89H103zM105,88H106V89H105zM8,89H9V90H8zM9,89H10V90H9zM14,89H15V90H14zM15,89H16V90H15zM16,89H17V90H16zM17,89H18V90H17zM18,89H19V90H18zM19,89H20V90H19zM20,89H21V90H20zM21,89H22V90H21zM22,89H23V90H22zM24,89H25V90H24zM26,89H27V90H26zM27,89H28V90H27zM28,89H29V90H28zM31,89H32V90H31zM37,89H38V90H37zM39,89H40V90H39zM45,89H46V90H45zM46,89H47V90H46zM47,89H48V90H47zM49,89H50V90H49zM50,89H51V90H50zM51,89H52V90H51zM53,89H54V90H53zM56,89H57V90H56zM59,89H60V90H59zM61,89H62V90H61zM62,89H63V90H62zM66,89H67V90H66zM69,89H70V90H69zM70,89H71V90H70zM72,89H73V90H72zM74,89H75V90H74zM80,89H81V90H80zM82,89H83V90H82zM83,89H84V90H83zM85,89H86V90H85zM87,89H88V90H87zM88,89H89V90H88zM89,89H90V90H89zM90,89H91V90H90zM91,89H92V90H91zM92,89H93V90H92zM93,89H94V90H93zM94,89H95V90H94zM96,89H97V90H96zM101,89H102V90H101zM102,89H103V90H102zM103,89H104V90H103zM105,89H106V90H105zM106,89H107V90H106zM108,89H109V90H108zM7,90H8V91H7zM8,90H9V91H8zM10,90H11V91H10zM13,90H14V91H13zM16,90H17V91H16zM19,90H20V91H19zM21,90H22V91H21zM22,90H23V91H22zM25,90H26V91H25zM28,90H29V91H28zM29,90H30V91H29zM30,90H31V91H30zM33,90H34V91H33zM37,90H38V91H37zM40,90H41V91H40zM41,90H42V91H41zM44,90H45V91H44zM46,90H47V91H46zM48,90H49V91H48zM49,90H50V91H49zM50,90H51V91H50zM54,90H55V91H54zM56,90H57V91H56zM57,90H58V91H57zM58,90H59V91H58zM67,90H68V91H67zM68,90H69V91H68zM69,90H70V91H69zM70,90H71V91H70zM75,90H76V91H75zM79,90H80V91H79zM81,90H82V91H81zM82,90H83V91H82zM84,90H85V91H84zM85,90H86V91H85zM87,90H88V91H87zM89,90H90V91H89zM91,90H92V91H91zM92,90H93V91H92zM95,90H96V91H95zM96,90H97V91H96zM99,90H100V91H99zM100,90H101V91H100zM101,90H102V91H101zM107,90H108V91H107zM8,91H9V92H8zM9,91H10V92H9zM13,91H14V92H13zM14,91H15V92H14zM16,91H17V92H16zM18,91H19V92H18zM19,91H20V92H19zM20,91H21V92H20zM21,91H22V92H21zM22,91H23V92H22zM25,91H26V92H25zM27,91H28V92H27zM28,91H29V92H28zM30,91H31V92H30zM31,91H32V92H31zM32,91H33V92H32zM33,91H34V92H33zM35,91H36V92H35zM36,91H37V92H36zM38,91H39V92H38zM39,91H40V92H39zM41,91H42V92H41zM42,91H43V92H42zM49,91H50V92H49zM53,91H54V92H53zM54,91H55V92H54zM55,91H56V92H55zM56,91H57V92H56zM57,91H58V92H57zM60,91H61V92H60zM61,91H62V92H61zM64,91H65V92H64zM65,91H66V92H65zM67,91H68V92H67zM68,91H69V92H68zM74,91H75V92H74zM77,91H78V92H77zM79,91H80V92H79zM82,91H83V92H82zM83,91H84V92H83zM84,91H85V92H84zM85,91H86V92H85zM87,91H88V92H87zM88,91H89V92H88zM90,91H91V92H90zM91,91H92V92H91zM92,91H93V92H92zM96,91H97V92H96zM97,91H98V92H97zM106,91H107V92H106zM108,91H109V92H108zM5,92H6V93H5zM7,92H8V93H7zM8,92H9V93H8zM10,92H11V93H10zM11,92H12V93H11zM13,92H14V93H13zM16,92H17V93H16zM18,92H19V93H18zM20,92H21V93H20zM21,92H22V93H21zM23,92H24V93H23zM25,92H26V93H25zM29,92H30V93H29zM30,92H31V93H30zM31,92H32V93H31zM32,92H33V93H32zM34,92H35V93H34zM35,92H36V93H35zM37,92H38V93H37zM38,92H39V93H38zM39,92H40V93H39zM40,92H41V93H40zM45,92H46V93H45zM50,92H51V93H50zM51,92H52V93H51zM52,92H53V93H52zM63,92H64V93H63zM64,92H65V93H64zM66,92H67V93H66zM67,92H68V93H67zM68,92H69V93H68zM70,92H71V93H70zM72,92H73V93H72zM77,92H78V93H77zM79,92H80V93H79zM80,92H81V93H80zM87,92H88V93H87zM88,92H89V93H88zM89,92H90V93H89zM90,92H91V93H90zM92,92H93V93H92zM93,92H94V93H93zM96,92H97V93H96zM97,92H98V93H97zM100,92H101V93H100zM101,92H102V93H101zM104,92H105V93H104zM108,92H109V93H108zM4,93H5V94H4zM5,93H6V94H5zM7,93H8V94H7zM9,93H10V94H9zM12,93H13V94H12zM16,93H17V94H16zM18,93H19V94H18zM20,93H21V94H20zM22,93H23V94H22zM24,93H25V94H24zM26,93H27V94H26zM27,93H28V94H27zM28,93H29V94H28zM32,93H33V94H32zM34,93H35V94H34zM35,93H36V94H35zM39,93H40V94H39zM41,93H42V94H41zM43,93H44V94H43zM44,93H45V94H44zM45,93H46V94H45zM46,93H47V94H46zM48,93H49V94H48zM51,93H52V94H51zM52,93H53V94H52zM55,93H56V94H55zM57,93H58V94H57zM58,93H59V94H58zM59,93H60V94H59zM62,93H63V94H62zM64,93H65V94H64zM66,93H67V94H66zM67,93H68V94H67zM68,93H69V94H68zM69,93H70V94H69zM70,93H71V94H70zM71,93H72V94H71zM73,93H74V94H73zM74,93H75V94H74zM80,93H81V94H80zM81,93H82V94H81zM82,93H83V94H82zM83,93H84V94H83zM84,93H85V94H84zM85,93H86V94H85zM87,93H88V94H87zM88,93H89V94H88zM90,93H91V94H90zM91,93H92V94H91zM95,93H96V94H95zM101,93H102V94H101zM103,93H104V94H103zM105,93H106V94H105zM106,93H107V94H106zM4,94H5V95H4zM6,94H7V95H6zM7,94H8V95H7zM8,94H9V95H8zM10,94H11V95H10zM11,94H12V95H11zM15,94H16V95H15zM16,94H17V95H16zM18,94H19V95H18zM19,94H20V95H19zM20,94H21V95H20zM22,94H23V95H22zM23,94H24V95H23zM25,94H26V95H25zM27,94H28V95H27zM29,94H30V95H29zM33,94H34V95H33zM36,94H37V95H36zM37,94H38V95H37zM38,94H39V95H38zM39,94H40V95H39zM45,94H46V95H45zM47,94H48V95H47zM48,94H49V95H48zM51,94H52V95H51zM52,94H53V95H52zM53,94H54V95H53zM57,94H58V95H57zM58,94H59V95H58zM60,94H61V95H60zM62,94H63V95H62zM66,94H67V95H66zM67,94H68V95H67zM68,94H69V95H68zM70,94H71V95H70zM71,94H72V95H71zM72,94H73V95H72zM74,94H75V95H74zM76,94H77V95H76zM77,94H78V95H77zM78,94H79V95H78zM79,94H80V95H79zM80,94H81V95H80zM81,94H82V95H81zM82,94H83V95H82zM83,94H84V95H83zM84,94H85V95H84zM86,94H87V95H86zM87,94H88V95H87zM90,94H91V95H90zM91,94H92V95H91zM93,94H94V95H93zM94,94H95V95H94zM98,94H99V95H98zM99,94H100V95H99zM100,94H101V95H100zM102,94H103V95H102zM104,94H105V95H104zM105,94H106V95H105zM108,94H109V95H108zM4,95H5V96H4zM5,95H6V96H5zM6,95H7V96H6zM8,95H9V96H8zM13,95H14V96H13zM15,95H16V96H15zM17,95H18V96H17zM21,95H22V96H21zM24,95H25V96H24zM25,95H26V96H25zM28,95H29V96H28zM31,95H32V96H31zM33,95H34V96H33zM35,95H36V96H35zM36,95H37V96H36zM37,95H38V96H37zM38,95H39V96H38zM45,95H46V96H45zM51,95H52V96H51zM53,95H54V96H53zM54,95H55V96H54zM59,95H60V96H59zM60,95H61V96H60zM61,95H62V96H61zM64,95H65V96H64zM67,95H68V96H67zM70,95H71V96H70zM71,95H72V96H71zM74,95H75V96H74zM75,95H76V96H75zM76,95H77V96H76zM77,95H78V96H77zM78,95H79V96H78zM79,95H80V96H79zM83,95H84V96H83zM86,95H87V96H86zM87,95H88V96H87zM88,95H89V96H88zM89,95H90V96H89zM93,95H94V96H93zM96,95H97V96H96zM97,95H98V96H97zM100,95H101V96H100zM102,95H103V96H102zM107,95H108V96H107zM4,96H5V97H4zM7,96H8V97H7zM10,96H11V97H10zM11,96H12V97H11zM12,96H13V97H12zM14,96H15V97H14zM15,96H16V97H15zM18,96H19V97H18zM19,96H20V97H19zM20,96H21V97H20zM23,96H24V97H23zM24,96H25V97H24zM26,96H27V97H26zM33,96H34V97H33zM36,96H37V97H36zM37,96H38V97H37zM41,96H42V97H41zM43,96H44V97H43zM44,96H45V97H44zM45,96H46V97H45zM46,96H47V97H46zM47,96H48V97H47zM49,96H50V97H49zM50,96H51V97H50zM52,96H53V97H52zM54,96H55V97H54zM56,96H57V97H56zM59,96H60V97H59zM60,96H61V97H60zM63,96H64V97H63zM65,96H66V97H65zM66,96H67V97H66zM67,96H68V97H67zM68,96H69V97H68zM71,96H72V97H71zM73,96H74V97H73zM74,96H75V97H74zM75,96H76V97H75zM77,96H78V97H77zM79,96H80V97H79zM80,96H81V97H80zM81,96H82V97H81zM82,96H83V97H82zM84,96H85V97H84zM87,96H88V97H87zM89,96H90V97H89zM91,96H92V97H91zM94,96H95V97H94zM97,96H98V97H97zM101,96H102V97H101zM104,96H105V97H104zM4,97H5V98H4zM7,97H8V98H7zM8,97H9V98H8zM12,97H13V98H12zM17,97H18V98H17zM18,97H19V98H18zM20,97H21V98H20zM24,97H25V98H24zM25,97H26V98H25zM26,97H27V98H26zM27,97H28V98H27zM28,97H29V98H28zM30,97H31V98H30zM31,97H32V98H31zM33,97H34V98H33zM36,97H37V98H36zM39,97H40V98H39zM40,97H41V98H40zM42,97H43V98H42zM43,97H44V98H43zM44,97H45V98H44zM52,97H53V98H52zM53,97H54V98H53zM54,97H55V98H54zM55,97H56V98H55zM56,97H57V98H56zM57,97H58V98H57zM58,97H59V98H58zM61,97H62V98H61zM62,97H63V98H62zM64,97H65V98H64zM65,97H66V98H65zM66,97H67V98H66zM70,97H71V98H70zM71,97H72V98H71zM74,97H75V98H74zM78,97H79V98H78zM81,97H82V98H81zM82,97H83V98H82zM86,97H87V98H86zM87,97H88V98H87zM88,97H89V98H88zM90,97H91V98H90zM95,97H96V98H95zM96,97H97V98H96zM98,97H99V98H98zM102,97H103V98H102zM104,97H105V98H104zM106,97H107V98H106zM107,97H108V98H107zM4,98H5V99H4zM5,98H6V99H5zM6,98H7V99H6zM10,98H11V99H10zM12,98H13V99H12zM14,98H15V99H14zM19,98H20V99H19zM23,98H24V99H23zM25,98H26V99H25zM26,98H27V99H26zM27,98H28V99H27zM32,98H33V99H32zM35,98H36V99H35zM38,98H39V99H38zM40,98H41V99H40zM41,98H42V99H41zM43,98H44V99H43zM45,98H46V99H45zM46,98H47V99H46zM47,98H48V99H47zM49,98H50V99H49zM52,98H53V99H52zM54,98H55V99H54zM57,98H58V99H57zM60,98H61V99H60zM62,98H63V99H62zM65,98H66V99H65zM67,98H68V99H67zM71,98H72V99H71zM72,98H73V99H72zM73,98H74V99H73zM75,98H76V99H75zM81,98H82V99H81zM82,98H83V99H82zM84,98H85V99H84zM89,98H90V99H89zM91,98H92V99H91zM99,98H100V99H99zM100,98H101V99H100zM101,98H102V99H101zM103,98H104V99H103zM6,99H7V100H6zM8,99H9V100H8zM9,99H10V100H9zM11,99H12V100H11zM16,99H17V100H16zM17,99H18V100H17zM18,99H19V100H18zM21,99H22V100H21zM23,99H24V100H23zM24,99H25V100H24zM25,99H26V100H25zM26,99H27V100H26zM27,99H28V100H27zM29,99H30V100H29zM33,99H34V100H33zM34,99H35V100H34zM35,99H36V100H35zM36,99H37V100H36zM39,99H40V100H39zM41,99H42V100H41zM42,99H43V100H42zM45,99H46V100H45zM46,99H47V100H46zM48,99H49V100H48zM50,99H51V100H50zM51,99H52V100H51zM52,99H53V100H52zM53,99H54V100H53zM56,99H57V100H56zM58,99H59V100H58zM60,99H61V100H60zM63,99H64V100H63zM64,99H65V100H64zM69,99H70V100H69zM74,99H75V100H74zM77,99H78V100H77zM81,99H82V100H81zM82,99H83V100H82zM83,99H84V100H83zM87,99H88V100H87zM88,99H89V100H88zM90,99H91V100H90zM91,99H92V100H91zM93,99H94V100H93zM95,99H96V100H95zM97,99H98V100H97zM98,99H99V100H98zM99,99H100V100H99zM101,99H102V100H101zM102,99H103V100H102zM103,99H104V100H103zM104,99H105V100H104zM108,99H109V100H108zM7,100H8V101H7zM8,100H9V101H8zM10,100H11V101H10zM14,100H15V101H14zM15,100H16V101H15zM17,100H18V101H17zM18,100H19V101H18zM21,100H22V101H21zM22,100H23V101H22zM25,100H26V101H25zM26,100H27V101H26zM27,100H28V101H27zM28,100H29V101H28zM29,100H30V101H29zM30,100H31V101H30zM31,100H32V101H31zM32,100H33V101H32zM37,100H38V101H37zM39,100H40V101H39zM40,100H41V101H40zM42,100H43V101H42zM43,100H44V101H43zM44,100H45V101H44zM45,100H46V101H45zM46,100H47V101H46zM47,100H48V101H47zM48,100H49V101H48zM49,100H50V101H49zM51,100H52V101H51zM52,100H53V101H52zM53,100H54V101H53zM54,100H55V101H54zM55,100H56V101H55zM56,100H57V101H56zM57,100H58V101H57zM58,100H59V101H58zM59,100H60V101H59zM61,100H62V101H61zM63,100H64V101H63zM65,100H66V101H65zM66,100H67V101H66zM68,100H69V101H68zM70,100H71V101H70zM72,100H73V101H72zM73,100H74V101H73zM74,100H75V101H74zM75,100H76V101H75zM76,100H77V101H76zM77,100H78V101H77zM78,100H79V101H78zM79,100H80V101H79zM80,100H81V101H80zM81,100H82V101H81zM83,100H84V101H83zM84,100H85V101H84zM87,100H88V101H87zM88,100H89V101H88zM90,100H91V101H90zM92,100H93V101H92zM94,100H95V101H94zM96,100H97V101H96zM97,100H98V101H97zM98,100H99V101H98zM99,100H100V101H99zM100,100H101V101H100zM101,100H102V101H101zM102,100H103V101H102zM103,100H104V101H103zM104,100H105V101H104zM106,100H107V101H106zM12,101H13V102H12zM14,101H15V102H14zM15,101H16V102H15zM17,101H18V102H17zM18,101H19V102H18zM20,101H21V102H20zM21,101H22V102H21zM23,101H24V102H23zM26,101H27V102H26zM28,101H29V102H28zM32,101H33V102H32zM35,101H36V102H35zM40,101H41V102H40zM44,101H45V102H44zM47,101H48V102H47zM48,101H49V102H48zM49,101H50V102H49zM51,101H52V102H51zM52,101H53V102H52zM56,101H57V102H56zM65,101H66V102H65zM66,101H67V102H66zM67,101H68V102H67zM69,101H70V102H69zM71,101H72V102H71zM73,101H74V102H73zM75,101H76V102H75zM76,101H77V102H76zM80,101H81V102H80zM81,101H82V102H81zM82,101H83V102H82zM83,101H84V102H83zM84,101H85V102H84zM85,101H86V102H85zM87,101H88V102H87zM88,101H89V102H88zM91,101H92V102H91zM92,101H93V102H92zM94,101H95V102H94zM95,101H96V102H95zM97,101H98V102H97zM100,101H101V102H100zM104,101H105V102H104zM105,101H106V102H105zM106,101H107V102H106zM108,101H109V102H108zM4,102H5V103H4zM5,102H6V103H5zM6,102H7V103H6zM7,102H8V103H7zM8,102H9V103H8zM9,102H10V103H9zM10,102H11V103H10zM12,102H13V103H12zM13,102H14V103H13zM14,102H15V103H14zM15,102H16V103H15zM17,102H18V103H17zM18,102H19V103H18zM21,102H22V103H21zM23,102H24V103H23zM24,102H25V103H24zM25,102H26V103H25zM26,102H27V103H26zM28,102H29V103H28zM30,102H31V103H30zM32,102H33V103H32zM35,102H36V103H35zM36,102H37V103H36zM38,102H39V103H38zM40,102H41V103H40zM42,102H43V103H42zM44,102H45V103H44zM49,102H50V103H49zM50,102H51V103H50zM52,102H53V103H52zM54,102H55V103H54zM56,102H57V103H56zM60,102H61V103H60zM63,102H64V103H63zM65,102H66V103H65zM67,102H68V103H67zM70,102H71V103H70zM72,102H73V103H72zM76,102H77V103H76zM78,102H79V103H78zM80,102H81V103H80zM82,102H83V103H82zM87,102H88V103H87zM89,102H90V103H89zM91,102H92V103H91zM92,102H93V103H92zM96,102H97V103H96zM99,102H100V103H99zM100,102H101V103H100zM102,102H103V103H102zM104,102H105V103H104zM4,103H5V104H4zM10,103H11V104H10zM14,103H15V104H14zM15,103H16V104H15zM17,103H18V104H17zM18,103H19V104H18zM19,103H20V104H19zM23,103H24V104H23zM24,103H25V104H24zM25,103H26V104H25zM26,103H27V104H26zM27,103H28V104H27zM28,103H29V104H28zM32,103H33V104H32zM34,103H35V104H34zM35,103H36V104H35zM37,103H38V104H37zM39,103H40V104H39zM41,103H42V104H41zM42,103H43V104H42zM43,103H44V104H43zM44,103H45V104H44zM45,103H46V104H45zM49,103H50V104H49zM50,103H51V104H50zM51,103H52V104H51zM52,103H53V104H52zM56,103H57V104H56zM58,103H59V104H58zM61,103H62V104H61zM62,103H63V104H62zM63,103H64V104H63zM64,103H65V104H64zM67,103H68V104H67zM68,103H69V104H68zM71,103H72V104H71zM72,103H73V104H72zM74,103H75V104H74zM75,103H76V104H75zM76,103H77V104H76zM80,103H81V104H80zM83,103H84V104H83zM84,103H85V104H84zM87,103H88V104H87zM88,103H89V104H88zM91,103H92V104H91zM92,103H93V104H92zM94,103H95V104H94zM95,103H96V104H95zM96,103H97V104H96zM97,103H98V104H97zM100,103H101V104H100zM104,103H105V104H104zM105,103H106V104H105zM106,103H107V104H106zM107,103H108V104H107zM4,104H5V105H4zM6,104H7V105H6zM7,104H8V105H7zM8,104H9V105H8zM10,104H11V105H10zM13,104H14V105H13zM16,104H17V105H16zM19,104H20V105H19zM24,104H25V105H24zM26,104H27V105H26zM28,104H29V105H28zM29,104H30V105H29zM30,104H31V105H30zM31,104H32V105H31zM32,104H33V105H32zM33,104H34V105H33zM36,104H37V105H36zM38,104H39V105H38zM39,104H40V105H39zM40,104H41V105H40zM41,104H42V105H41zM42,104H43V105H42zM43,104H44V105H43zM46,104H47V105H46zM48,104H49V105H48zM49,104H50V105H49zM50,104H51V105H50zM51,104H52V105H51zM52,104H53V105H52zM53,104H54V105H53zM54,104H55V105H54zM55,104H56V105H55zM56,104H57V105H56zM57,104H58V105H57zM58,104H59V105H58zM59,104H60V105H59zM60,104H61V105H60zM64,104H65V105H64zM66,104H67V105H66zM68,104H69V105H68zM70,104H71V105H70zM75,104H76V105H75zM76,104H77V105H76zM77,104H78V105H77zM78,104H79V105H78zM79,104H80V105H79zM80,104H81V105H80zM82,104H83V105H82zM86,104H87V105H86zM87,104H88V105H87zM88,104H89V105H88zM90,104H91V105H90zM91,104H92V105H91zM97,104H98V105H97zM100,104H101V105H100zM101,104H102V105H101zM102,104H103V105H102zM103,104H104V105H103zM104,104H105V105H104zM106,104H107V105H106zM4,105H5V106H4zM6,105H7V106H6zM7,105H8V106H7zM8,105H9V106H8zM10,105H11V106H10zM14,105H15V106H14zM15,105H16V106H15zM16,105H17V106H16zM22,105H23V106H22zM23,105H24V106H23zM26,105H27V106H26zM27,105H28V106H27zM28,105H29V106H28zM29,105H30V106H29zM33,105H34V106H33zM34,105H35V106H34zM35,105H36V106H35zM36,105H37V106H36zM38,105H39V106H38zM39,105H40V106H39zM40,105H41V106H40zM42,105H43V106H42zM43,105H44V106H43zM44,105H45V106H44zM47,105H48V106H47zM48,105H49V106H48zM49,105H50V106H49zM51,105H52V106H51zM52,105H53V106H52zM57,105H58V106H57zM61,105H62V106H61zM66,105H67V106H66zM67,105H68V106H67zM68,105H69V106H68zM71,105H72V106H71zM78,105H79V106H78zM81,105H82V106H81zM82,105H83V106H82zM84,105H85V106H84zM89,105H90V106H89zM90,105H91V106H90zM92,105H93V106H92zM99,105H100V106H99zM103,105H104V106H103zM104,105H105V106H104zM106,105H107V106H106zM4,106H5V107H4zM6,106H7V107H6zM7,106H8V107H7zM8,106H9V107H8zM10,106H11V107H10zM14,106H15V107H14zM16,106H17V107H16zM18,106H19V107H18zM21,106H22V107H21zM22,106H23V107H22zM23,106H24V107H23zM28,106H29V107H28zM29,106H30V107H29zM30,106H31V107H30zM32,106H33V107H32zM34,106H35V107H34zM40,106H41V107H40zM44,106H45V107H44zM51,106H52V107H51zM53,106H54V107H53zM54,106H55V107H54zM56,106H57V107H56zM58,106H59V107H58zM59,106H60V107H59zM63,106H64V107H63zM64,106H65V107H64zM65,106H66V107H65zM66,106H67V107H66zM67,106H68V107H67zM68,106H69V107H68zM69,106H70V107H69zM71,106H72V107H71zM72,106H73V107H72zM74,106H75V107H74zM75,106H76V107H75zM78,106H79V107H78zM80,106H81V107H80zM81,106H82V107H81zM82,106H83V107H82zM83,106H84V107H83zM85,106H86V107H85zM86,106H87V107H86zM87,106H88V107H87zM90,106H91V107H90zM91,106H92V107H91zM94,106H95V107H94zM98,106H99V107H98zM100,106H101V107H100zM102,106H103V107H102zM104,106H105V107H104zM105,106H106V107H105zM106,106H107V107H106zM107,106H108V107H107zM108,106H109V107H108zM4,107H5V108H4zM10,107H11V108H10zM12,107H13V108H12zM14,107H15V108H14zM16,107H17V108H16zM17,107H18V108H17zM18,107H19V108H18zM20,107H21V108H20zM21,107H22V108H21zM22,107H23V108H22zM24,107H25V108H24zM26,107H27V108H26zM29,107H30V108H29zM31,107H32V108H31zM32,107H33V108H32zM34,107H35V108H34zM37,107H38V108H37zM38,107H39V108H38zM42,107H43V108H42zM45,107H46V108H45zM47,107H48V108H47zM49,107H50V108H49zM50,107H51V108H50zM54,107H55V108H54zM56,107H57V108H56zM57,107H58V108H57zM59,107H60V108H59zM63,107H64V108H63zM64,107H65V108H64zM66,107H67V108H66zM71,107H72V108H71zM74,107H75V108H74zM75,107H76V108H75zM76,107H77V108H76zM77,107H78V108H77zM78,107H79V108H78zM80,107H81V108H80zM81,107H82V108H81zM83,107H84V108H83zM86,107H87V108H86zM87,107H88V108H87zM88,107H89V108H88zM89,107H90V108H89zM91,107H92V108H91zM93,107H94V108H93zM94,107H95V108H94zM95,107H96V108H95zM97,107H98V108H97zM98,107H99V108H98zM100,107H101V108H100zM101,107H102V108H101zM106,107H107V108H106zM4,108H5V109H4zM5,108H6V109H5zM6,108H7V109H6zM7,108H8V109H7zM8,108H9V109H8zM9,108H10V109H9zM10,108H11V109H10zM14,108H15V109H14zM16,108H17V109H16zM18,108H19V109H18zM20,108H21V109H20zM22,108H23V109H22zM25,108H26V109H25zM26,108H27V109H26zM28,108H29V109H28zM29,108H30V109H29zM32,108H33V109H32zM34,108H35V109H34zM35,108H36V109H35zM36,108H37V109H36zM37,108H38V109H37zM38,108H39V109H38zM39,108H40V109H39zM41,108H42V109H41zM42,108H43V109H42zM43,108H44V109H43zM45,108H46V109H45zM46,108H47V109H46zM47,108H48V109H47zM50,108H51V109H50zM52,108H53V109H52zM53,108H54V109H53zM54,108H55V109H54zM56,108H57V109H56zM57,108H58V109H57zM60,108H61V109H60zM61,108H62V109H61zM62,108H63V109H62zM63,108H64V109H63zM69,108H70V109H69zM70,108H71V109H70zM71,108H72V109H71zM73,108H74V109H73zM75,108H76V109H75zM76,108H77V109H76zM82,108H83V109H82zM83,108H84V109H83zM87,108H88V109H87zM88,108H89V109H88zM89,108H90V109H89zM95,108H96V109H95zM99,108H100V109H99zM100,108H101V109H100zM101,108H102V109H101zM102,108H103V109H102zM103,108H104V109H103zM106,108H107V109H106zM107,108H108V109H107z" id="qr-path" fill="#000000" fill-opacity="1" fill-rule="nonzero" stroke="none" /></svg>