<?xml version='1.0' encoding='UTF-8'?>
<svg width="117mm" height="117mm" version="1.1" viewBox="0 0 117 117" xmlns="http://www.w3.org/2000/svg"><path d="M4,4H5V5H4zM5,4H6V5H5zM6,4H7V5H6zM7,4H8V5H7zM8,4H9V5H8zM9,4H10V5H9zM10,4H11V5H10zM14,4H15V5H14zM22,4H23V5H22zM23,4H24V5H23zM26,4H27V5H26zM30,4H31V5H30zM31,4H32V5H31zM33,4H34V5H33zM34,4H35V5H34zM35,4H36V5H35zM39,4H40V5H39zM40,4H41V5H40zM41,4H42V5H41zM42,4H43V5H42zM45,4H46V5H45zM46,4H47V5H46zM47,4H48V5H47zM49,4H50V5H49zM50,4H51V5H50zM51,4H52V5H51zM52,4H53V5H52zM53,4H54V5H53zM54,4H55V5H54zM56,4H57V5H56zM58,4H59V5H58zM59,4H60V5H59zM60,4H61V5H60zM61,4H62V5H61zM62,4H63V5H62zM67,4H68V5H67zM70,4H71V5H70zM72,4H73V5H72zM73,4H74V5H73zM74,4H75V5H74zM76,4H77V5H76zM77,4H78V5H77zM78,4H79V5H78zM83,4H84V5H83zM84,4H85V5H84zM85,4H86V5H85zM86,4H87V5H86zM87,4H88V5H87zM88,4H89V5H88zM89,4H90V5H89zM91,4H92V5H91zM92,4H93V5H92zM95,4H96V5H95zM96,4H97V5H96zM97,4H98V5H97zM98,4H99V5H98zM100,4H101V5H100zM101,4H102V5H101zM104,4H105V5H104zM106,4H107V5H106zM107,4H108V5H107zM108,4H109V5H108zM109,4H110V5H109zM110,4H111V5H110zM111,4H112V5H111zM112,4H113V5H112zM4,5H5V6H4zM10,5H11V6H10zM17,5H18V6H17zM18,5H19V6H18zM20,5H21V6H20zM21,5H22V6H21zM25,5H26V6H25zM26,5H27V6H26zM28,5H29V6H28zM29,5H30V6H29zM30,5H31V6H30zM32,5H33V6H32zM36,5H37V6H36zM37,5H38V6H37zM38,5H39V6H38zM40,5H41V6H40zM44,5H45V6H44zM45,5H46V6H45zM47,5H48V6H47zM50,5H51V6H50zM51,5H52V6H51zM52,5H53V6H52zM57,5H58V6H57zM59,5H60V6H59zM61,5H62V6H61zM62,5H63V6H62zM64,5H65V6H64zM66,5H67V6H66zM67,5H68V6H67zM69,5H70V6H69zM70,5H71V6H70zM71,5H72V6H71zM72,5H73V6H72zM73,5H74V6H73zM76,5H77V6H76zM79,5H80V6H79zM81,5H82V6H81zM82,5H83V6H82zM84,5H85V6H84zM86,5H87V6H86zM92,5H93V6H92zM93,5H94V6H93zM97,5H98V6H97zM98,5H99V6H98zM99,5H100V6H99zM102,5H103V6H102zM104,5H105V6H104zM106,5H107V6H106zM112,5H113V6H112zM4,6H5V7H4zM6,6H7V7H6zM7,6H8V7H7zM8,6H9V7H8zM10,6H11V7H10zM12,6H13V7H12zM13,6H14V7H13zM14,6H15V7H14zM15,6H16V7H15zM16,6H17V7H16zM21,6H22V7H21zM24,6H25V7H24zM25,6H26V7H25zM27,6H28V7H27zM29,6H30V7H29zM30,6H31V7H30zM32,6H33V7H32zM34,6H35V7H34zM36,6H37V7H36zM37,6H38V7H37zM38,6H39V7H38zM39,6H40V7H39zM41,6H42V7H41zM43,6H44V7H43zM45,6H46V7H45zM46,6H47V7H46zM47,6H48V7H47zM49,6H50V7H49zM50,6H51V7H50zM51,6H52V7H51zM54,6H55V7H54zM55,6H56V7H55zM57,6H58V7H57zM58,6H59V7H58zM60,6H61V7H60zM61,6H62V7H61zM62,6H63V7H62zM64,6H65V7H64zM65,6H66V7H65zM67,6H68V7H67zM71,6H72V7H71zM72,6H73V7H72zM73,6H74V7H73zM74,6H75V7H74zM76,6H77V7H76zM78,6H79V7H78zM81,6H82V7H81zM82,6H83V7H82zM83,6H84V7H83zM91,6H92V7H91zM92,6H93V7H92zM93,6H94V7H93zM94,6H95V7H94zM95,6H96V7H95zM96,6H97V7H96zM98,6H99V7H98zM99,6H100V7H99zM102,6H103V7H102zM103,6H104V7H103zM104,6H105V7H104zM106,6H107V7H106zM108,6H109V7H108zM109,6H110V7H109zM110,6H111V7H110zM112,6H113V7H112zM4,7H5V8H4zM6,7H7V8H6zM7,7H8V8H7zM8,7H9V8H8zM10,7H11V8H10zM13,7H14V8H13zM16,7H17V8H16zM18,7H19V8H18zM20,7H21V8H20zM21,7H22V8H21zM22,7H23V8H22zM24,7H25V8H24zM27,7H28V8H27zM28,7H29V8H28zM29,7H30V8H29zM30,7H31V8H30zM31,7H32V8H31zM34,7H35V8H34zM35,7H36V8H35zM37,7H38V8H37zM38,7H39V8H38zM41,7H42V8H41zM42,7H43V8H42zM43,7H44V8H43zM45,7H46V8H45zM46,7H47V8H46zM48,7H49V8H48zM49,7H50V8H49zM50,7H51V8H50zM52,7H53V8H52zM61,7H62V8H61zM62,7H63V8H62zM65,7H66V8H65zM67,7H68V8H67zM71,7H72V8H71zM73,7H74V8H73zM74,7H75V8H74zM75,7H76V8H75zM76,7H77V8H76zM84,7H85V8H84zM86,7H87V8H86zM88,7H89V8H88zM91,7H92V8H91zM96,7H97V8H96zM97,7H98V8H97zM98,7H99V8H98zM100,7H101V8H100zM101,7H102V8H101zM102,7H103V8H102zM103,7H104V8H103zM106,7H107V8H106zM108,7H109V8H108zM109,7H110V8H109zM110,7H111V8H110zM112,7H113V8H112zM4,8H5V9H4zM6,8H7V9H6zM7,8H8V9H7zM8,8H9V9H8zM10,8H11V9H10zM12,8H13V9H12zM13,8H14V9H13zM14,8H15V9H14zM15,8H16V9H15zM16,8H17V9H16zM18,8H19V9H18zM20,8H21V9H20zM21,8H22V9H21zM24,8H25V9H24zM27,8H28V9H27zM30,8H31V9H30zM32,8H33V9H32zM33,8H34V9H33zM34,8H35V9H34zM35,8H36V9H35zM36,8H37V9H36zM38,8H39V9H38zM40,8H41V9H40zM41,8H42V9H41zM42,8H43V9H42zM44,8H45V9H44zM45,8H46V9H45zM49,8H50V9H49zM50,8H51V9H50zM55,8H56V9H55zM56,8H57V9H56zM57,8H58V9H57zM58,8H59V9H58zM59,8H60V9H59zM60,8H61V9H60zM64,8H65V9H64zM65,8H66V9H65zM67,8H68V9H67zM69,8H70V9H69zM70,8H71V9H70zM73,8H74V9H73zM74,8H75V9H74zM75,8H76V9H75zM79,8H80V9H79zM80,8H81V9H80zM81,8H82V9H81zM82,8H83V9H82zM83,8H84V9H83zM84,8H85V9H84zM88,8H89V9H88zM90,8H91V9H90zM92,8H93V9H92zM96,8H97V9H96zM98,8H99V9H98zM99,8H100V9H99zM100,8H101V9H100zM101,8H102V9H101zM102,8H103V9H102zM103,8H104V9H103zM104,8H105V9H104zM106,8H107V9H106zM108,8H109V9H108zM109,8H110V9H109zM110,8H111V9H110zM112,8H113V9H112zM4,9H5V10H4zM10,9H11V10H10zM12,9H13V10H12zM17,9H18V10H17zM18,9H19V10H18zM19,9H20V10H19zM20,9H21V10H20zM22,9H23V10H22zM24,9H25V10H24zM25,9H26V10H25zM26,9H27V10H26zM27,9H28V10H27zM32,9H33V10H32zM36,9H37V10H36zM37,9H38V10H37zM40,9H41V10H40zM41,9H42V10H41zM42,9H43V10H42zM43,9H44V10H43zM44,9H45V10H44zM46,9H47V10H46zM49,9H50V10H49zM50,9H51V10H50zM54,9H55V10H54zM56,9H57V10H56zM60,9H61V10H60zM62,9H63V10H62zM63,9H64V10H63zM66,9H67V10H66zM67,9H68V10H67zM70,9H71V10H70zM72,9H73V10H72zM73,9H74V10H73zM75,9H76V10H75zM76,9H77V10H76zM77,9H78V10H77zM78,9H79V10H78zM80,9H81V10H80zM84,9H85V10H84zM85,9H86V10H85zM87,9H88V10H87zM88,9H89V10H88zM90,9H91V10H90zM92,9H93V10H92zM94,9H95V10H94zM95,9H96V10H95zM97,9H98V10H97zM98,9H99V10H98zM99,9H100V10H99zM100,9H101V10H100zM103,9H104V10H103zM106,9H107V10H106zM112,9H113V10H112zM4,10H5V11H4zM5,10H6V11H5zM6,10H7V11H6zM7,10H8V11H7zM8,10H9V11H8zM9,10H10V11H9zM10,10H11V11H10zM12,10H13V11H12zM14,10H15V11H14zM16,10H17V11H16zM18,10H19V11H18zM20,10H21V11H20zM22,10H23V11H22zM24,10H25V11H24zM26,10H27V11H26zM28,10H29V11H28zM30,10H31V11H30zM32,10H33V11H32zM34,10H35V11H34zM36,10H37V11H36zM38,10H39V11H38zM40,10H41V11H40zM42,10H43V11H42zM44,10H45V11H44zM46,10H47V11H46zM48,10H49V11H48zM50,10H51V11H50zM52,10H53V11H52zM54,10H55V11H54zM56,10H57V11H56zM58,10H59V11H58zM60,10H61V11H60zM62,10H63V11H62zM64,10H65V11H64zM66,10H67V11H66zM68,10H69V11H68zM70,10H71V11H70zM72,10H73V11H72zM74,10H75V11H74zM76,10H77V11H76zM78,10H79V11H78zM80,10H81V11H80zM82,10H83V11H82zM84,10H85V11H84zM86,10H87V11H86zM88,10H89V11H88zM90,10H91V11H90zM92,10H93V11H92zM94,10H95V11H94zM96,10H97V11H96zM98,10H99V11H98zM100,10H101V11H100zM102,10H103V11H102zM104,10H105V11H104zM106,10H107V11H106zM107,10H108V11H107zM108,10H109V11H108zM109,10H110V11H109zM110,10H111V11H110zM111,10H112V11H111zM112,10H113V11H112zM16,11H17V12H16zM19,11H20V12H19zM22,11H23V12H22zM23,11H24V12H23zM26,11H27V12H26zM29,11H30V12H29zM32,11H33V12H32zM36,11H37V12H36zM38,11H39V12H38zM40,11H41V12H40zM44,11H45V12H44zM47,11H48V12H47zM49,11H50V12H49zM51,11H52V12H51zM52,11H53V12H52zM54,11H55V12H54zM56,11H57V12H56zM60,11H61V12H60zM62,11H63V12H62zM65,11H66V12H65zM69,11H70V12H69zM70,11H71V12H70zM71,11H72V12H71zM73,11H74V12H73zM78,11H79V12H78zM80,11H81V12H80zM84,11H85V12H84zM86,11H87V12H86zM89,11H90V12H89zM92,11H93V12H92zM93,11H94V12H93zM97,11H98V12H97zM100,11H101V12H100zM103,11H104V12H103zM5,12H6V13H5zM8,12H9V13H8zM10,12H11V13H10zM12,12H13V13H12zM14,12H15V13H14zM15,12H16V13H15zM16,12H17V13H16zM17,12H18V13H17zM22,12H23V13H22zM23,12H24V13H23zM24,12H25V13H24zM26,12H27V13H26zM27,12H28V13H27zM28,12H29V13H28zM29,12H30V13H29zM30,12H31V13H30zM32,12H33V13H32zM33,12H34V13H33zM34,12H35V13H34zM35,12H36V13H35zM36,12H37V13H36zM37,12H38V13H37zM39,12H40V13H39zM40,12H41V13H40zM41,12H42V13H41zM43,12H44V13H43zM44,12H45V13H44zM45,12H46V13H45zM46,12H47V13H46zM47,12H48V13H47zM49,12H50V13H49zM53,12H54V13H53zM55,12H56V13H55zM56,12H57V13H56zM57,12H58V13H57zM58,12H59V13H58zM59,12H60V13H59zM60,12H61V13H60zM62,12H63V13H62zM66,12H67V13H66zM69,12H70V13H69zM70,12H71V13H70zM71,12H72V13H71zM74,12H75V13H74zM76,12H77V13H76zM77,12H78V13H77zM80,12H81V13H80zM81,12H82V13H81zM82,12H83V13H82zM83,12H84V13H83zM84,12H85V13H84zM85,12H86V13H85zM88,12H89V13H88zM90,12H91V13H90zM92,12H93V13H92zM96,12H97V13H96zM102,12H103V13H102zM105,12H106V13H105zM107,12H108V13H107zM108,12H109V13H108zM110,12H111V13H110zM4,13H5V14H4zM6,13H7V14H6zM8,13H9V14H8zM9,13H10V14H9zM12,13H13V14H12zM14,13H15V14H14zM15,13H16V14H15zM16,13H17V14H16zM18,13H19V14H18zM19,13H20V14H19zM20,13H21V14H20zM22,13H23V14H22zM23,13H24V14H23zM25,13H26V14H25zM26,13H27V14H26zM27,13H28V14H27zM32,13H33V14H32zM36,13H37V14H36zM37,13H38V14H37zM39,13H40V14H39zM41,13H42V14H41zM43,13H44V14H43zM44,13H45V14H44zM47,13H48V14H47zM50,13H51V14H50zM51,13H52V14H51zM53,13H54V14H53zM54,13H55V14H54zM55,13H56V14H55zM57,13H58V14H57zM58,13H59V14H58zM59,13H60V14H59zM60,13H61V14H60zM61,13H62V14H61zM63,13H64V14H63zM65,13H66V14H65zM71,13H72V14H71zM73,13H74V14H73zM74,13H75V14H74zM79,13H80V14H79zM80,13H81V14H80zM81,13H82V14H81zM82,13H83V14H82zM83,13H84V14H83zM86,13H87V14H86zM88,13H89V14H88zM90,13H91V14H90zM92,13H93V14H92zM96,13H97V14H96zM97,13H98V14H97zM98,13H99V14H98zM100,13H101V14H100zM103,13H104V14H103zM105,13H106V14H105zM106,13H107V14H106zM107,13H108V14H107zM108,13H109V14H108zM112,13H113V14H112zM6,14H7V15H6zM8,14H9V15H8zM9,14H10V15H9zM10,14H11V15H10zM12,14H13V15H12zM13,14H14V15H13zM14,14H15V15H14zM16,14H17V15H16zM17,14H18V15H17zM18,14H19V15H18zM19,14H20V15H19zM22,14H23V15H22zM25,14H26V15H25zM26,14H27V15H26zM28,14H29V15H28zM32,14H33V15H32zM36,14H37V15H36zM39,14H40V15H39zM40,14H41V15H40zM42,14H43V15H42zM43,14H44V15H43zM47,14H48V15H47zM48,14H49V15H48zM49,14H50V15H49zM50,14H51V15H50zM51,14H52V15H51zM52,14H53V15H52zM53,14H54V15H53zM54,14H55V15H54zM56,14H57V15H56zM57,14H58V15H57zM60,14H61V15H60zM61,14H62V15H61zM66,14H67V15H66zM67,14H68V15H67zM69,14H70V15H69zM70,14H71V15H70zM73,14H74V15H73zM74,14H75V15H74zM75,14H76V15H75zM76,14H77V15H76zM77,14H78V15H77zM79,14H80V15H79zM85,14H86V15H85zM86,14H87V15H86zM87,14H88V15H87zM89,14H90V15H89zM91,14H92V15H91zM95,14H96V15H95zM96,14H97V15H96zM99,14H100V15H99zM100,14H101V15H100zM104,14H105V15H104zM105,14H106V15H105zM107,14H108V15H107zM109,14H110V15H109zM110,14H111V15H110zM111,14H112V15H111zM4,15H5V16H4zM6,15H7V16H6zM7,15H8V16H7zM8,15H9V16H8zM9,15H10V16H9zM11,15H12V16H11zM13,15H14V16H13zM14,15H15V16H14zM16,15H17V16H16zM17,15H18V16H17zM19,15H20V16H19zM20,15H21V16H20zM25,15H26V16H25zM28,15H29V16H28zM30,15H31V16H30zM31,15H32V16H31zM32,15H33V16H32zM37,15H38V16H37zM38,15H39V16H38zM40,15H41V16H40zM41,15H42V16H41zM42,15H43V16H42zM50,15H51V16H50zM52,15H53V16H52zM54,15H55V16H54zM55,15H56V16H55zM61,15H62V16H61zM62,15H63V16H62zM63,15H64V16H63zM65,15H66V16H65zM67,15H68V16H67zM73,15H74V16H73zM74,15H75V16H74zM79,15H80V16H79zM80,15H81V16H80zM81,15H82V16H81zM82,15H83V16H82zM83,15H84V16H83zM84,15H85V16H84zM87,15H88V16H87zM90,15H91V16H90zM92,15H93V16H92zM94,15H95V16H94zM95,15H96V16H95zM96,15H97V16H96zM98,15H99V16H98zM99,15H100V16H99zM100,15H101V16H100zM102,15H103V16H102zM103,15H104V16H103zM104,15H105V16H104zM107,15H108V16H107zM108,15H109V16H108zM110,15H111V16H110zM111,15H112V16H111zM112,15H113V16H112zM5,16H6V17H5zM9,16H10V17H9zM10,16H11V17H10zM11,16H12V17H11zM12,16H13V17H12zM13,16H14V17H13zM14,16H15V17H14zM17,16H18V17H17zM18,16H19V17H18zM19,16H20V17H19zM22,16H23V17H22zM25,16H26V17H25zM27,16H28V17H27zM28,16H29V17H28zM30,16H31V17H30zM32,16H33V17H32zM33,16H34V17H33zM39,16H40V17H39zM40,16H41V17H40zM41,16H42V17H41zM42,16H43V17H42zM44,16H45V17H44zM45,16H46V17H45zM46,16H47V17H46zM47,16H48V17H47zM49,16H50V17H49zM51,16H52V17H51zM53,16H54V17H53zM54,16H55V17H54zM55,16H56V17H55zM56,16H57V17H56zM59,16H60V17H59zM60,16H61V17H60zM61,16H62V17H61zM62,16H63V17H62zM63,16H64V17H63zM66,16H67V17H66zM67,16H68V17H67zM68,16H69V17H68zM70,16H71V17H70zM72,16H73V17H72zM76,16H77V17H76zM80,16H81V17H80zM81,16H82V17H81zM82,16H83V17H82zM83,16H84V17H83zM88,16H89V17H88zM89,16H90V17H89zM94,16H95V17H94zM95,16H96V17H95zM99,16H100V17H99zM102,16H103V17H102zM103,16H104V17H103zM105,16H106V17H105zM106,16H107V17H106zM108,16H109V17H108zM5,17H6V18H5zM9,17H10V18H9zM12,17H13V18H12zM13,17H14V18H13zM14,17H15V18H14zM20,17H21V18H20zM21,17H22V18H21zM22,17H23V18H22zM24,17H25V18H24zM26,17H27V18H26zM30,17H31V18H30zM31,17H32V18H31zM33,17H34V18H33zM37,17H38V18H37zM38,17H39V18H38zM39,17H40V18H39zM42,17H43V18H42zM45,17H46V18H45zM47,17H48V18H47zM48,17H49V18H48zM49,17H50V18H49zM50,17H51V18H50zM53,17H54V18H53zM57,17H58V18H57zM58,17H59V18H58zM59,17H60V18H59zM60,17H61V18H60zM61,17H62V18H61zM62,17H63V18H62zM69,17H70V18H69zM72,17H73V18H72zM73,17H74V18H73zM74,17H75V18H74zM77,17H78V18H77zM80,17H81V18H80zM82,17H83V18H82zM86,17H87V18H86zM87,17H88V18H87zM88,17H89V18H88zM89,17H90V18H89zM96,17H97V18H96zM98,17H99V18H98zM100,17H101V18H100zM101,17H102V18H101zM103,17H104V18H103zM104,17H105V18H104zM105,17H106V18H105zM106,17H107V18H106zM108,17H109V18H108zM109,17H110V18H109zM110,17H111V18H110zM111,17H112V18H111zM4,18H5V19H4zM6,18H7V19H6zM7,18H8V19H7zM8,18H9V19H8zM10,18H11V19H10zM11,18H12V19H11zM12,18H13V19H12zM13,18H14V19H13zM14,18H15V19H14zM15,18H16V19H15zM16,18H17V19H16zM18,18H19V19H18zM19,18H20V19H19zM24,18H25V19H24zM25,18H26V19H25zM27,18H28V19H27zM29,18H30V19H29zM33,18H34V19H33zM34,18H35V19H34zM35,18H36V19H35zM37,18H38V19H37zM38,18H39V19H38zM39,18H40V19H39zM40,18H41V19H40zM41,18H42V19H41zM42,18H43V19H42zM45,18H46V19H45zM48,18H49V19H48zM50,18H51V19H50zM51,18H52V19H51zM52,18H53V19H52zM53,18H54V19H53zM55,18H56V19H55zM57,18H58V19H57zM58,18H59V19H58zM60,18H61V19H60zM61,18H62V19H61zM62,18H63V19H62zM63,18H64V19H63zM64,18H65V19H64zM65,18H66V19H65zM67,18H68V19H67zM70,18H71V19H70zM73,18H74V19H73zM77,18H78V19H77zM78,18H79V19H78zM81,18H82V19H81zM82,18H83V19H82zM84,18H85V19H84zM87,18H88V19H87zM89,18H90V19H89zM93,18H94V19H93zM96,18H97V19H96zM100,18H101V19H100zM104,18H105V19H104zM106,18H107V19H106zM109,18H110V19H109zM111,18H112V19H111zM6,19H7V20H6zM7,19H8V20H7zM8,19H9V20H8zM11,19H12V20H11zM12,19H13V20H12zM14,19H15V20H14zM17,19H18V20H17zM23,19H24V20H23zM25,19H26V20H25zM29,19H30V20H29zM30,19H31V20H30zM31,19H32V20H31zM32,19H33V20H32zM33,19H34V20H33zM35,19H36V20H35zM39,19H40V20H39zM40,19H41V20H40zM42,19H43V20H42zM43,19H44V20H43zM44,19H45V20H44zM46,19H47V20H46zM48,19H49V20H48zM51,19H52V20H51zM52,19H53V20H52zM56,19H57V20H56zM57,19H58V20H57zM59,19H60V20H59zM60,19H61V20H60zM61,19H62V20H61zM62,19H63V20H62zM64,19H65V20H64zM65,19H66V20H65zM67,19H68V20H67zM71,19H72V20H71zM74,19H75V20H74zM75,19H76V20H75zM79,19H80V20H79zM80,19H81V20H80zM81,19H82V20H81zM82,19H83V20H82zM83,19H84V20H83zM85,19H86V20H85zM88,19H89V20H88zM90,19H91V20H90zM91,19H92V20H91zM92,19H93V20H92zM93,19H94V20H93zM97,19H98V20H97zM99,19H100V20H99zM100,19H101V20H100zM101,19H102V20H101zM103,19H104V20H103zM104,19H105V20H104zM106,19H107V20H106zM109,19H110V20H109zM110,19H111V20H110zM111,19H112V20H111zM112,19H113V20H112zM6,20H7V21H6zM7,20H8V21H7zM8,20H9V21H8zM9,20H10V21H9zM10,20H11V21H10zM12,20H13V21H12zM13,20H14V21H13zM14,20H15V21H14zM16,20H17V21H16zM17,20H18V21H17zM18,20H19V21H18zM19,20H20V21H19zM20,20H21V21H20zM23,20H24V21H23zM24,20H25V21H24zM26,20H27V21H26zM29,20H30V21H29zM30,20H31V21H30zM37,20H38V21H37zM40,20H41V21H40zM41,20H42V21H41zM42,20H43V21H42zM44,20H45V21H44zM45,20H46V21H45zM46,20H47V21H46zM47,20H48V21H47zM48,20H49V21H48zM49,20H50V21H49zM50,20H51V21H50zM55,20H56V21H55zM56,20H57V21H56zM57,20H58V21H57zM60,20H61V21H60zM64,20H65V21H64zM66,20H67V21H66zM67,20H68V21H67zM68,20H69V21H68zM69,20H70V21H69zM70,20H71V21H70zM73,20H74V21H73zM78,20H79V21H78zM80,20H81V21H80zM81,20H82V21H81zM82,20H83V21H82zM85,20H86V21H85zM90,20H91V21H90zM91,20H92V21H91zM92,20H93V21H92zM93,20H94V21H93zM96,20H97V21H96zM99,20H100V21H99zM102,20H103V21H102zM103,20H104V21H103zM105,20H106V21H105zM106,20H107V21H106zM108,20H109V21H108zM109,20H110V21H109zM110,20H111V21H110zM4,21H5V22H4zM6,21H7V22H6zM7,21H8V22H7zM12,21H13V22H12zM18,21H19V22H18zM19,21H20V22H19zM20,21H21V22H20zM21,21H22V22H21zM23,21H24V22H23zM25,21H26V22H25zM26,21H27V22H26zM27,21H28V22H27zM29,21H30V22H29zM32,21H33V22H32zM35,21H36V22H35zM36,21H37V22H36zM40,21H41V22H40zM41,21H42V22H41zM42,21H43V22H42zM44,21H45V22H44zM45,21H46V22H45zM46,21H47V22H46zM49,21H50V22H49zM50,21H51V22H50zM51,21H52V22H51zM54,21H55V22H54zM56,21H57V22H56zM58,21H59V22H58zM59,21H60V22H59zM64,21H65V22H64zM65,21H66V22H65zM69,21H70V22H69zM73,21H74V22H73zM75,21H76V22H75zM76,21H77V22H76zM78,21H79V22H78zM79,21H80V22H79zM80,21H81V22H80zM82,21H83V22H82zM83,21H84V22H83zM87,21H88V22H87zM91,21H92V22H91zM96,21H97V22H96zM97,21H98V22H97zM98,21H99V22H98zM100,21H101V22H100zM102,21H103V22H102zM103,21H104V22H103zM104,21H105V22H104zM107,21H108V22H107zM108,21H109V22H108zM110,21H111V22H110zM112,21H113V22H112zM10,22H11V23H10zM11,22H12V23H11zM12,22H13V23H12zM13,22H14V23H13zM14,22H15V23H14zM15,22H16V23H15zM16,22H17V23H16zM19,22H20V23H19zM20,22H21V23H20zM21,22H22V23H21zM23,22H24V23H23zM24,22H25V23H24zM27,22H28V23H27zM28,22H29V23H28zM29,22H30V23H29zM32,22H33V23H32zM33,22H34V23H33zM35,22H36V23H35zM38,22H39V23H38zM41,22H42V23H41zM42,22H43V23H42zM43,22H44V23H43zM50,22H51V23H50zM51,22H52V23H51zM52,22H53V23H52zM53,22H54V23H53zM57,22H58V23H57zM58,22H59V23H58zM59,22H60V23H59zM61,22H62V23H61zM62,22H63V23H62zM63,22H64V23H63zM64,22H65V23H64zM65,22H66V23H65zM66,22H67V23H66zM67,22H68V23H67zM68,22H69V23H68zM73,22H74V23H73zM74,22H75V23H74zM75,22H76V23H75zM77,22H78V23H77zM79,22H80V23H79zM81,22H82V23H81zM82,22H83V23H82zM85,22H86V23H85zM87,22H88V23H87zM89,22H90V23H89zM90,22H91V23H90zM91,22H92V23H91zM92,22H93V23H92zM94,22H95V23H94zM96,22H97V23H96zM97,22H98V23H97zM98,22H99V23H98zM101,22H102V23H101zM104,22H105V23H104zM105,22H106V23H105zM107,22H108V23H107zM109,22H110V23H109zM111,22H112V23H111zM7,23H8V24H7zM12,23H13V24H12zM14,23H15V24H14zM15,23H16V24H15zM16,23H17V24H16zM18,23H19V24H18zM19,23H20V24H19zM20,23H21V24H20zM21,23H22V24H21zM28,23H29V24H28zM33,23H34V24H33zM34,23H35V24H34zM35,23H36V24H35zM36,23H37V24H36zM37,23H38V24H37zM39,23H40V24H39zM40,23H41V24H40zM42,23H43V24H42zM44,23H45V24H44zM45,23H46V24H45zM48,23H49V24H48zM51,23H52V24H51zM52,23H53V24H52zM56,23H57V24H56zM61,23H62V24H61zM62,23H63V24H62zM66,23H67V24H66zM68,23H69V24H68zM69,23H70V24H69zM71,23H72V24H71zM72,23H73V24H72zM73,23H74V24H73zM76,23H77V24H76zM77,23H78V24H77zM79,23H80V24H79zM80,23H81V24H80zM83,23H84V24H83zM86,23H87V24H86zM90,23H91V24H90zM91,23H92V24H91zM92,23H93V24H92zM93,23H94V24H93zM98,23H99V24H98zM100,23H101V24H100zM101,23H102V24H101zM104,23H105V24H104zM107,23H108V24H107zM108,23H109V24H108zM110,23H111V24H110zM111,23H112V24H111zM6,24H7V25H6zM9,24H10V25H9zM10,24H11V25H10zM11,24H12V25H11zM16,24H17V25H16zM19,24H20V25H19zM20,24H21V25H20zM21,24H22V25H21zM22,24H23V25H22zM25,24H26V25H25zM27,24H28V25H27zM28,24H29V25H28zM32,24H33V25H32zM34,24H35V25H34zM36,24H37V25H36zM42,24H43V25H42zM43,24H44V25H43zM44,24H45V25H44zM48,24H49V25H48zM51,24H52V25H51zM54,24H55V25H54zM57,24H58V25H57zM58,24H59V25H58zM60,24H61V25H60zM62,24H63V25H62zM64,24H65V25H64zM66,24H67V25H66zM67,24H68V25H67zM69,24H70V25H69zM70,24H71V25H70zM71,24H72V25H71zM78,24H79V25H78zM80,24H81V25H80zM82,24H83V25H82zM85,24H86V25H85zM90,24H91V25H90zM91,24H92V25H91zM92,24H93V25H92zM93,24H94V25H93zM94,24H95V25H94zM102,24H103V25H102zM103,24H104V25H103zM104,24H105V25H104zM108,24H109V25H108zM109,24H110V25H109zM112,24H113V25H112zM4,25H5V26H4zM8,25H9V26H8zM9,25H10V26H9zM12,25H13V26H12zM14,25H15V26H14zM15,25H16V26H15zM16,25H17V26H16zM17,25H18V26H17zM20,25H21V26H20zM21,25H22V26H21zM22,25H23V26H22zM24,25H25V26H24zM26,25H27V26H26zM32,25H33V26H32zM33,25H34V26H33zM34,25H35V26H34zM37,25H38V26H37zM39,25H40V26H39zM44,25H45V26H44zM45,25H46V26H45zM46,25H47V26H46zM47,25H48V26H47zM51,25H52V26H51zM52,25H53V26H52zM55,25H56V26H55zM56,25H57V26H56zM57,25H58V26H57zM60,25H61V26H60zM61,25H62V26H61zM66,25H67V26H66zM68,25H69V26H68zM69,25H70V26H69zM78,25H79V26H78zM80,25H81V26H80zM83,25H84V26H83zM86,25H87V26H86zM88,25H89V26H88zM90,25H91V26H90zM91,25H92V26H91zM96,25H97V26H96zM98,25H99V26H98zM99,25H100V26H99zM100,25H101V26H100zM108,25H109V26H108zM110,25H111V26H110zM111,25H112V26H111zM112,25H113V26H112zM4,26H5V27H4zM6,26H7V27H6zM9,26H10V27H9zM10,26H11V27H10zM11,26H12V27H11zM16,26H17V27H16zM18,26H19V27H18zM21,26H22V27H21zM22,26H23V27H22zM24,26H25V27H24zM27,26H28V27H27zM28,26H29V27H28zM31,26H32V27H31zM32,26H33V27H32zM34,26H35V27H34zM35,26H36V27H35zM41,26H42V27H41zM42,26H43V27H42zM46,26H47V27H46zM47,26H48V27H47zM51,26H52V27H51zM52,26H53V27H52zM55,26H56V27H55zM56,26H57V27H56zM60,26H61V27H60zM61,26H62V27H61zM62,26H63V27H62zM64,26H65V27H64zM67,26H68V27H67zM68,26H69V27H68zM69,26H70V27H69zM71,26H72V27H71zM72,26H73V27H72zM73,26H74V27H73zM75,26H76V27H75zM76,26H77V27H76zM77,26H78V27H77zM82,26H83V27H82zM83,26H84V27H83zM85,26H86V27H85zM90,26H91V27H90zM91,26H92V27H91zM96,26H97V27H96zM100,26H101V27H100zM101,26H102V27H101zM103,26H104V27H103zM104,26H105V27H104zM105,26H106V27H105zM106,26H107V27H106zM111,26H112V27H111zM6,27H7V28H6zM7,27H8V28H7zM8,27H9V28H8zM12,27H13V28H12zM13,27H14V28H13zM15,27H16V28H15zM16,27H17V28H16zM18,27H19V28H18zM20,27H21V28H20zM21,27H22V28H21zM23,27H24V28H23zM25,27H26V28H25zM27,27H28V28H27zM28,27H29V28H28zM31,27H32V28H31zM32,27H33V28H32zM39,27H40V28H39zM40,27H41V28H40zM41,27H42V28H41zM42,27H43V28H42zM44,27H45V28H44zM45,27H46V28H45zM48,27H49V28H48zM51,27H52V28H51zM53,27H54V28H53zM54,27H55V28H54zM55,27H56V28H55zM57,27H58V28H57zM59,27H60V28H59zM60,27H61V28H60zM61,27H62V28H61zM62,27H63V28H62zM63,27H64V28H63zM64,27H65V28H64zM65,27H66V28H65zM66,27H67V28H66zM68,27H69V28H68zM69,27H70V28H69zM71,27H72V28H71zM73,27H74V28H73zM77,27H78V28H77zM78,27H79V28H78zM79,27H80V28H79zM80,27H81V28H80zM81,27H82V28H81zM82,27H83V28H82zM83,27H84V28H83zM86,27H87V28H86zM88,27H89V28H88zM89,27H90V28H89zM91,27H92V28H91zM93,27H94V28H93zM95,27H96V28H95zM96,27H97V28H96zM98,27H99V28H98zM99,27H100V28H99zM101,27H102V28H101zM103,27H104V28H103zM105,27H106V28H105zM106,27H107V28H106zM110,27H111V28H110zM111,27H112V28H111zM5,28H6V29H5zM6,28H7V29H6zM8,28H9V29H8zM9,28H10V29H9zM10,28H11V29H10zM11,28H12V29H11zM15,28H16V29H15zM17,28H18V29H17zM18,28H19V29H18zM20,28H21V29H20zM21,28H22V29H21zM22,28H23V29H22zM23,28H24V29H23zM24,28H25V29H24zM27,28H28V29H27zM28,28H29V29H28zM29,28H30V29H29zM35,28H36V29H35zM36,28H37V29H36zM37,28H38V29H37zM39,28H40V29H39zM40,28H41V29H40zM42,28H43V29H42zM44,28H45V29H44zM46,28H47V29H46zM47,28H48V29H47zM48,28H49V29H48zM50,28H51V29H50zM51,28H52V29H51zM52,28H53V29H52zM55,28H56V29H55zM56,28H57V29H56zM57,28H58V29H57zM60,28H61V29H60zM62,28H63V29H62zM63,28H64V29H63zM64,28H65V29H64zM66,28H67V29H66zM67,28H68V29H67zM69,28H70V29H69zM70,28H71V29H70zM71,28H72V29H71zM73,28H74V29H73zM76,28H77V29H76zM77,28H78V29H77zM80,28H81V29H80zM81,28H82V29H81zM82,28H83V29H82zM84,28H85V29H84zM85,28H86V29H85zM87,28H88V29H87zM88,28H89V29H88zM90,28H91V29H90zM91,28H92V29H91zM92,28H93V29H92zM95,28H96V29H95zM98,28H99V29H98zM99,28H100V29H99zM102,28H103V29H102zM104,28H105V29H104zM105,28H106V29H105zM106,28H107V29H106zM108,28H109V29H108zM109,28H110V29H109zM111,28H112V29H111zM4,29H5V30H4zM6,29H7V30H6zM8,29H9V30H8zM11,29H12V30H11zM14,29H15V30H14zM16,29H17V30H16zM18,29H19V30H18zM20,29H21V30H20zM22,29H23V30H22zM23,29H24V30H23zM25,29H26V30H25zM26,29H27V30H26zM28,29H29V30H28zM31,29H32V30H31zM32,29H33V30H32zM34,29H35V30H34zM37,29H38V30H37zM39,29H40V30H39zM43,29H44V30H43zM45,29H46V30H45zM47,29H48V30H47zM48,29H49V30H48zM49,29H50V30H49zM52,29H53V30H52zM53,29H54V30H53zM54,29H55V30H54zM55,29H56V30H55zM56,29H57V30H56zM57,29H58V30H57zM59,29H60V30H59zM61,29H62V30H61zM64,29H65V30H64zM65,29H66V30H65zM67,29H68V30H67zM71,29H72V30H71zM74,29H75V30H74zM75,29H76V30H75zM76,29H77V30H76zM79,29H80V30H79zM80,29H81V30H80zM83,29H84V30H83zM85,29H86V30H85zM89,29H90V30H89zM93,29H94V30H93zM94,29H95V30H94zM96,29H97V30H96zM98,29H99V30H98zM99,29H100V30H99zM100,29H101V30H100zM102,29H103V30H102zM103,29H104V30H103zM104,29H105V30H104zM106,29H107V30H106zM107,29H108V30H107zM108,29H109V30H108zM110,29H111V30H110zM112,29H113V30H112zM7,30H8V31H7zM10,30H11V31H10zM13,30H14V31H13zM14,30H15V31H14zM15,30H16V31H15zM19,30H20V31H19zM20,30H21V31H20zM22,30H23V31H22zM26,30H27V31H26zM28,30H29V31H28zM29,30H30V31H29zM32,30H33V31H32zM33,30H34V31H33zM35,30H36V31H35zM37,30H38V31H37zM38,30H39V31H38zM40,30H41V31H40zM41,30H42V31H41zM43,30H44V31H43zM44,30H45V31H44zM45,30H46V31H45zM48,30H49V31H48zM49,30H50V31H49zM50,30H51V31H50zM51,30H52V31H51zM52,30H53V31H52zM53,30H54V31H53zM54,30H55V31H54zM55,30H56V31H55zM56,30H57V31H56zM57,30H58V31H57zM58,30H59V31H58zM59,30H60V31H59zM60,30H61V31H60zM62,30H63V31H62zM63,30H64V31H63zM64,30H65V31H64zM65,30H66V31H65zM66,30H67V31H66zM67,30H68V31H67zM68,30H69V31H68zM69,30H70V31H69zM73,30H74V31H73zM74,30H75V31H74zM76,30H77V31H76zM79,30H80V31H79zM81,30H82V31H81zM82,30H83V31H82zM85,30H86V31H85zM86,30H87V31H86zM87,30H88V31H87zM90,30H91V31H90zM92,30H93V31H92zM97,30H98V31H97zM98,30H99V31H98zM101,30H102V31H101zM103,30H104V31H103zM104,30H105V31H104zM105,30H106V31H105zM106,30H107V31H106zM108,30H109V31H108zM110,30H111V31H110zM6,31H7V32H6zM7,31H8V32H7zM8,31H9V32H8zM9,31H10V32H9zM12,31H13V32H12zM15,31H16V32H15zM16,31H17V32H16zM18,31H19V32H18zM21,31H22V32H21zM23,31H24V32H23zM25,31H26V32H25zM26,31H27V32H26zM27,31H28V32H27zM28,31H29V32H28zM33,31H34V32H33zM35,31H36V32H35zM36,31H37V32H36zM39,31H40V32H39zM40,31H41V32H40zM41,31H42V32H41zM43,31H44V32H43zM44,31H45V32H44zM47,31H48V32H47zM49,31H50V32H49zM50,31H51V32H50zM51,31H52V32H51zM52,31H53V32H52zM55,31H56V32H55zM62,31H63V32H62zM66,31H67V32H66zM68,31H69V32H68zM69,31H70V32H69zM70,31H71V32H70zM71,31H72V32H71zM72,31H73V32H72zM73,31H74V32H73zM76,31H77V32H76zM77,31H78V32H77zM78,31H79V32H78zM79,31H80V32H79zM80,31H81V32H80zM85,31H86V32H85zM89,31H90V32H89zM91,31H92V32H91zM92,31H93V32H92zM93,31H94V32H93zM94,31H95V32H94zM95,31H96V32H95zM96,31H97V32H96zM98,31H99V32H98zM99,31H100V32H99zM100,31H101V32H100zM101,31H102V32H101zM105,31H106V32H105zM108,31H109V32H108zM110,31H111V32H110zM111,31H112V32H111zM8,32H9V33H8zM9,32H10V33H9zM10,32H11V33H10zM11,32H12V33H11zM12,32H13V33H12zM13,32H14V33H13zM15,32H16V33H15zM19,32H20V33H19zM20,32H21V33H20zM22,32H23V33H22zM23,32H24V33H23zM24,32H25V33H24zM25,32H26V33H25zM26,32H27V33H26zM28,32H29V33H28zM29,32H30V33H29zM30,32H31V33H30zM32,32H33V33H32zM33,32H34V33H33zM34,32H35V33H34zM35,32H36V33H35zM36,32H37V33H36zM39,32H40V33H39zM40,32H41V33H40zM42,32H43V33H42zM43,32H44V33H43zM46,32H47V33H46zM47,32H48V33H47zM48,32H49V33H48zM49,32H50V33H49zM50,32H51V33H50zM53,32H54V33H53zM54,32H55V33H54zM56,32H57V33H56zM57,32H58V33H57zM58,32H59V33H58zM59,32H60V33H59zM60,32H61V33H60zM64,32H65V33H64zM66,32H67V33H66zM68,32H69V33H68zM69,32H70V33H69zM70,32H71V33H70zM71,32H72V33H71zM73,32H74V33H73zM78,32H79V33H78zM80,32H81V33H80zM81,32H82V33H81zM82,32H83V33H82zM83,32H84V33H83zM84,32H85V33H84zM85,32H86V33H85zM87,32H88V33H87zM90,32H91V33H90zM92,32H93V33H92zM93,32H94V33H93zM94,32H95V33H94zM95,32H96V33H95zM102,32H103V33H102zM103,32H104V33H103zM104,32H105V33H104zM105,32H106V33H105zM106,32H107V33H106zM107,32H108V33H107zM108,32H109V33H108zM109,32H110V33H109zM111,32H112V33H111zM112,32H113V33H112zM4,33H5V34H4zM8,33H9V34H8zM12,33H13V34H12zM14,33H15V34H14zM16,33H17V34H16zM19,33H20V34H19zM20,33H21V34H20zM21,33H22V34H21zM23,33H24V34H23zM24,33H25V34H24zM25,33H26V34H25zM28,33H29V34H28zM30,33H31V34H30zM31,33H32V34H31zM32,33H33V34H32zM36,33H37V34H36zM39,33H40V34H39zM40,33H41V34H40zM43,33H44V34H43zM48,33H49V34H48zM49,33H50V34H49zM51,33H52V34H51zM55,33H56V34H55zM56,33H57V34H56zM60,33H61V34H60zM62,33H63V34H62zM66,33H67V34H66zM68,33H69V34H68zM69,33H70V34H69zM71,33H72V34H71zM72,33H73V34H72zM73,33H74V34H73zM76,33H77V34H76zM78,33H79V34H78zM79,33H80V34H79zM80,33H81V34H80zM84,33H85V34H84zM86,33H87V34H86zM87,33H88V34H87zM88,33H89V34H88zM89,33H90V34H89zM91,33H92V34H91zM93,33H94V34H93zM94,33H95V34H94zM96,33H97V34H96zM97,33H98V34H97zM99,33H100V34H99zM100,33H101V34H100zM103,33H104V34H103zM104,33H105V34H104zM108,33H109V34H108zM109,33H110V34H109zM111,33H112V34H111zM5,34H6V35H5zM6,34H7V35H6zM8,34H9V35H8zM10,34H11V35H10zM12,34H13V35H12zM15,34H16V35H15zM17,34H18V35H17zM19,34H20V35H19zM21,34H22V35H21zM22,34H23V35H22zM23,34H24V35H23zM26,34H27V35H26zM27,34H28V35H27zM31,34H32V35H31zM32,34H33V35H32zM34,34H35V35H34zM36,34H37V35H36zM37,34H38V35H37zM39,34H40V35H39zM41,34H42V35H41zM42,34H43V35H42zM43,34H44V35H43zM47,34H48V35H47zM49,34H50V35H49zM50,34H51V35H50zM52,34H53V35H52zM54,34H55V35H54zM55,34H56V35H55zM56,34H57V35H56zM58,34H59V35H58zM60,34H61V35H60zM61,34H62V35H61zM62,34H63V35H62zM64,34H65V35H64zM65,34H66V35H65zM71,34H72V35H71zM73,34H74V35H73zM74,34H75V35H74zM75,34H76V35H75zM78,34H79V35H78zM80,34H81V35H80zM82,34H83V35H82zM84,34H85V35H84zM86,34H87V35H86zM89,34H90V35H89zM91,34H92V35H91zM93,34H94V35H93zM95,34H96V35H95zM96,34H97V35H96zM98,34H99V35H98zM99,34H100V35H99zM101,34H102V35H101zM103,34H104V35H103zM104,34H105V35H104zM106,34H107V35H106zM108,34H109V35H108zM7,35H8V36H7zM8,35H9V36H8zM12,35H13V36H12zM15,35H16V36H15zM18,35H19V36H18zM19,35H20V36H19zM20,35H21V36H20zM22,35H23V36H22zM23,35H24V36H23zM24,35H25V36H24zM25,35H26V36H25zM26,35H27V36H26zM29,35H30V36H29zM32,35H33V36H32zM36,35H37V36H36zM38,35H39V36H38zM45,35H46V36H45zM48,35H49V36H48zM51,35H52V36H51zM52,35H53V36H52zM56,35H57V36H56zM60,35H61V36H60zM61,35H62V36H61zM62,35H63V36H62zM64,35H65V36H64zM67,35H68V36H67zM68,35H69V36H68zM69,35H70V36H69zM73,35H74V36H73zM74,35H75V36H74zM75,35H76V36H75zM80,35H81V36H80zM84,35H85V36H84zM86,35H87V36H86zM88,35H89V36H88zM89,35H90V36H89zM91,35H92V36H91zM94,35H95V36H94zM96,35H97V36H96zM97,35H98V36H97zM101,35H102V36H101zM103,35H104V36H103zM104,35H105V36H104zM108,35H109V36H108zM109,35H110V36H109zM110,35H111V36H110zM111,35H112V36H111zM112,35H113V36H112zM6,36H7V37H6zM7,36H8V37H7zM8,36H9V37H8zM9,36H10V37H9zM10,36H11V37H10zM11,36H12V37H11zM12,36H13V37H12zM14,36H15V37H14zM18,36H19V37H18zM19,36H20V37H19zM22,36H23V37H22zM23,36H24V37H23zM24,36H25V37H24zM25,36H26V37H25zM27,36H28V37H27zM28,36H29V37H28zM32,36H33V37H32zM33,36H34V37H33zM34,36H35V37H34zM35,36H36V37H35zM36,36H37V37H36zM37,36H38V37H37zM42,36H43V37H42zM43,36H44V37H43zM45,36H46V37H45zM46,36H47V37H46zM47,36H48V37H47zM48,36H49V37H48zM49,36H50V37H49zM51,36H52V37H51zM52,36H53V37H52zM53,36H54V37H53zM55,36H56V37H55zM56,36H57V37H56zM57,36H58V37H57zM58,36H59V37H58zM59,36H60V37H59zM60,36H61V37H60zM61,36H62V37H61zM66,36H67V37H66zM68,36H69V37H68zM69,36H70V37H69zM70,36H71V37H70zM71,36H72V37H71zM73,36H74V37H73zM75,36H76V37H75zM78,36H79V37H78zM80,36H81V37H80zM81,36H82V37H81zM82,36H83V37H82zM83,36H84V37H83zM84,36H85V37H84zM85,36H86V37H85zM88,36H89V37H88zM90,36H91V37H90zM91,36H92V37H91zM92,36H93V37H92zM97,36H98V37H97zM98,36H99V37H98zM99,36H100V37H99zM102,36H103V37H102zM103,36H104V37H103zM104,36H105V37H104zM105,36H106V37H105zM106,36H107V37H106zM107,36H108V37H107zM108,36H109V37H108zM111,36H112V37H111zM112,36H113V37H112zM4,37H5V38H4zM6,37H7V38H6zM7,37H8V38H7zM14,37H15V38H14zM15,37H16V38H15zM18,37H19V38H18zM20,37H21V38H20zM21,37H22V38H21zM22,37H23V38H22zM23,37H24V38H23zM26,37H27V38H26zM28,37H29V38H28zM32,37H33V38H32zM34,37H35V38H34zM35,37H36V38H35zM40,37H41V38H40zM41,37H42V38H41zM45,37H46V38H45zM47,37H48V38H47zM48,37H49V38H48zM54,37H55V38H54zM58,37H59V38H58zM62,37H63V38H62zM64,37H65V38H64zM65,37H66V38H65zM68,37H69V38H68zM72,37H73V38H72zM74,37H75V38H74zM75,37H76V38H75zM76,37H77V38H76zM78,37H79V38H78zM79,37H80V38H79zM80,37H81V38H80zM81,37H82V38H81zM82,37H83V38H82zM83,37H84V38H83zM88,37H89V38H88zM89,37H90V38H89zM90,37H91V38H90zM95,37H96V38H95zM96,37H97V38H96zM98,37H99V38H98zM99,37H100V38H99zM100,37H101V38H100zM101,37H102V38H101zM102,37H103V38H102zM104,37H105V38H104zM108,37H109V38H108zM109,37H110V38H109zM111,37H112V38H111zM4,38H5V39H4zM8,38H9V39H8zM9,38H10V39H9zM10,38H11V39H10zM14,38H15V39H14zM16,38H17V39H16zM18,38H19V39H18zM20,38H21V39H20zM24,38H25V39H24zM25,38H26V39H25zM26,38H27V39H26zM27,38H28V39H27zM28,38H29V39H28zM29,38H30V39H29zM31,38H32V39H31zM32,38H33V39H32zM34,38H35V39H34zM36,38H37V39H36zM38,38H39V39H38zM39,38H40V39H39zM40,38H41V39H40zM41,38H42V39H41zM43,38H44V39H43zM44,38H45V39H44zM45,38H46V39H45zM47,38H48V39H47zM49,38H50V39H49zM50,38H51V39H50zM51,38H52V39H51zM52,38H53V39H52zM53,38H54V39H53zM55,38H56V39H55zM60,38H61V39H60zM61,38H62V39H61zM62,38H63V39H62zM63,38H64V39H63zM64,38H65V39H64zM66,38H67V39H66zM67,38H68V39H67zM68,38H69V39H68zM70,38H71V39H70zM71,38H72V39H71zM72,38H73V39H72zM74,38H75V39H74zM76,38H77V39H76zM77,38H78V39H77zM79,38H80V39H79zM80,38H81V39H80zM81,38H82V39H81zM87,38H88V39H87zM88,38H89V39H88zM89,38H90V39H89zM90,38H91V39H90zM93,38H94V39H93zM94,38H95V39H94zM96,38H97V39H96zM104,38H105V39H104zM105,38H106V39H105zM107,38H108V39H107zM108,38H109V39H108zM111,38H112V39H111zM112,38H113V39H112zM4,39H5V40H4zM6,39H7V40H6zM9,39H10V40H9zM11,39H12V40H11zM13,39H14V40H13zM14,39H15V40H14zM17,39H18V40H17zM18,39H19V40H18zM20,39H21V40H20zM21,39H22V40H21zM22,39H23V40H22zM24,39H25V40H24zM26,39H27V40H26zM28,39H29V40H28zM31,39H32V40H31zM32,39H33V40H32zM33,39H34V40H33zM34,39H35V40H34zM35,39H36V40H35zM38,39H39V40H38zM39,39H40V40H39zM41,39H42V40H41zM44,39H45V40H44zM45,39H46V40H45zM46,39H47V40H46zM50,39H51V40H50zM52,39H53V40H52zM53,39H54V40H53zM55,39H56V40H55zM56,39H57V40H56zM59,39H60V40H59zM63,39H64V40H63zM64,39H65V40H64zM65,39H66V40H65zM71,39H72V40H71zM76,39H77V40H76zM79,39H80V40H79zM83,39H84V40H83zM85,39H86V40H85zM86,39H87V40H86zM87,39H88V40H87zM89,39H90V40H89zM90,39H91V40H90zM91,39H92V40H91zM92,39H93V40H92zM95,39H96V40H95zM96,39H97V40H96zM97,39H98V40H97zM98,39H99V40H98zM99,39H100V40H99zM100,39H101V40H100zM101,39H102V40H101zM103,39H104V40H103zM105,39H106V40H105zM106,39H107V40H106zM107,39H108V40H107zM110,39H111V40H110zM112,39H113V40H112zM4,40H5V41H4zM6,40H7V41H6zM9,40H10V41H9zM10,40H11V41H10zM11,40H12V41H11zM12,40H13V41H12zM14,40H15V41H14zM17,40H18V41H17zM19,40H20V41H19zM21,40H22V41H21zM22,40H23V41H22zM24,40H25V41H24zM29,40H30V41H29zM30,40H31V41H30zM31,40H32V41H31zM34,40H35V41H34zM35,40H36V41H35zM36,40H37V41H36zM37,40H38V41H37zM39,40H40V41H39zM40,40H41V41H40zM45,40H46V41H45zM49,40H50V41H49zM50,40H51V41H50zM51,40H52V41H51zM53,40H54V41H53zM54,40H55V41H54zM56,40H57V41H56zM59,40H60V41H59zM66,40H67V41H66zM68,40H69V41H68zM69,40H70V41H69zM70,40H71V41H70zM72,40H73V41H72zM73,40H74V41H73zM78,40H79V41H78zM79,40H80V41H79zM81,40H82V41H81zM82,40H83V41H82zM84,40H85V41H84zM85,40H86V41H85zM89,40H90V41H89zM90,40H91V41H90zM92,40H93V41H92zM94,40H95V41H94zM95,40H96V41H95zM97,40H98V41H97zM98,40H99V41H98zM100,40H101V41H100zM103,40H104V41H103zM104,40H105V41H104zM105,40H106V41H105zM106,40H107V41H106zM112,40H113V41H112zM4,41H5V42H4zM5,41H6V42H5zM8,41H9V42H8zM9,41H10V42H9zM11,41H12V42H11zM12,41H13V42H12zM14,41H15V42H14zM15,41H16V42H15zM17,41H18V42H17zM18,41H19V42H18zM21,41H22V42H21zM24,41H25V42H24zM25,41H26V42H25zM26,41H27V42H26zM28,41H29V42H28zM32,41H33V42H32zM33,41H34V42H33zM36,41H37V42H36zM37,41H38V42H37zM38,41H39V42H38zM40,41H41V42H40zM44,41H45V42H44zM46,41H47V42H46zM47,41H48V42H47zM53,41H54V42H53zM54,41H55V42H54zM56,41H57V42H56zM59,41H60V42H59zM60,41H61V42H60zM62,41H63V42H62zM65,41H66V42H65zM66,41H67V42H66zM67,41H68V42H67zM68,41H69V42H68zM69,41H70V42H69zM72,41H73V42H72zM74,41H75V42H74zM76,41H77V42H76zM77,41H78V42H77zM79,41H80V42H79zM80,41H81V42H80zM81,41H82V42H81zM82,41H83V42H82zM83,41H84V42H83zM85,41H86V42H85zM86,41H87V42H86zM87,41H88V42H87zM88,41H89V42H88zM89,41H90V42H89zM91,41H92V42H91zM93,41H94V42H93zM95,41H96V42H95zM96,41H97V42H96zM98,41H99V42H98zM99,41H100V42H99zM100,41H101V42H100zM102,41H103V42H102zM104,41H105V42H104zM106,41H107V42H106zM108,41H109V42H108zM109,41H110V42H109zM111,41H112V42H111zM5,42H6V43H5zM7,42H8V43H7zM9,42H10V43H9zM10,42H11V43H10zM11,42H12V43H11zM12,42H13V43H12zM16,42H17V43H16zM18,42H19V43H18zM20,42H21V43H20zM22,42H23V43H22zM24,42H25V43H24zM26,42H27V43H26zM27,42H28V43H27zM29,42H30V43H29zM30,42H31V43H30zM31,42H32V43H31zM32,42H33V43H32zM37,42H38V43H37zM39,42H40V43H39zM43,42H44V43H43zM46,42H47V43H46zM47,42H48V43H47zM48,42H49V43H48zM49,42H50V43H49zM52,42H53V43H52zM53,42H54V43H53zM55,42H56V43H55zM56,42H57V43H56zM58,42H59V43H58zM59,42H60V43H59zM63,42H64V43H63zM65,42H66V43H65zM68,42H69V43H68zM70,42H71V43H70zM74,42H75V43H74zM77,42H78V43H77zM79,42H80V43H79zM81,42H82V43H81zM82,42H83V43H82zM83,42H84V43H83zM86,42H87V43H86zM87,42H88V43H87zM89,42H90V43H89zM90,42H91V43H90zM93,42H94V43H93zM94,42H95V43H94zM95,42H96V43H95zM96,42H97V43H96zM97,42H98V43H97zM98,42H99V43H98zM100,42H101V43H100zM102,42H103V43H102zM103,42H104V43H103zM104,42H105V43H104zM106,42H107V43H106zM108,42H109V43H108zM110,42H111V43H110zM4,43H5V44H4zM5,43H6V44H5zM6,43H7V44H6zM7,43H8V44H7zM11,43H12V44H11zM12,43H13V44H12zM13,43H14V44H13zM14,43H15V44H14zM21,43H22V44H21zM24,43H25V44H24zM26,43H27V44H26zM27,43H28V44H27zM28,43H29V44H28zM29,43H30V44H29zM32,43H33V44H32zM37,43H38V44H37zM39,43H40V44H39zM42,43H43V44H42zM44,43H45V44H44zM48,43H49V44H48zM50,43H51V44H50zM52,43H53V44H52zM55,43H56V44H55zM56,43H57V44H56zM57,43H58V44H57zM58,43H59V44H58zM59,43H60V44H59zM62,43H63V44H62zM64,43H65V44H64zM65,43H66V44H65zM69,43H70V44H69zM74,43H75V44H74zM76,43H77V44H76zM77,43H78V44H77zM80,43H81V44H80zM82,43H83V44H82zM86,43H87V44H86zM89,43H90V44H89zM90,43H91V44H90zM92,43H93V44H92zM94,43H95V44H94zM95,43H96V44H95zM96,43H97V44H96zM100,43H101V44H100zM103,43H104V44H103zM104,43H105V44H104zM107,43H108V44H107zM108,43H109V44H108zM109,43H110V44H109zM111,43H112V44H111zM112,43H113V44H112zM6,44H7V45H6zM7,44H8V45H7zM10,44H11V45H10zM11,44H12V45H11zM12,44H13V45H12zM13,44H14V45H13zM14,44H15V45H14zM16,44H17V45H16zM17,44H18V45H17zM18,44H19V45H18zM19,44H20V45H19zM20,44H21V45H20zM22,44H23V45H22zM23,44H24V45H23zM25,44H26V45H25zM26,44H27V45H26zM27,44H28V45H27zM28,44H29V45H28zM30,44H31V45H30zM31,44H32V45H31zM35,44H36V45H35zM39,44H40V45H39zM40,44H41V45H40zM41,44H42V45H41zM43,44H44V45H43zM44,44H45V45H44zM47,44H48V45H47zM48,44H49V45H48zM49,44H50V45H49zM52,44H53V45H52zM55,44H56V45H55zM58,44H59V45H58zM59,44H60V45H59zM61,44H62V45H61zM63,44H64V45H63zM64,44H65V45H64zM66,44H67V45H66zM67,44H68V45H67zM69,44H70V45H69zM70,44H71V45H70zM73,44H74V45H73zM76,44H77V45H76zM78,44H79V45H78zM79,44H80V45H79zM80,44H81V45H80zM82,44H83V45H82zM83,44H84V45H83zM84,44H85V45H84zM87,44H88V45H87zM89,44H90V45H89zM90,44H91V45H90zM91,44H92V45H91zM92,44H93V45H92zM93,44H94V45H93zM94,44H95V45H94zM95,44H96V45H95zM98,44H99V45H98zM101,44H102V45H101zM102,44H103V45H102zM103,44H104V45H103zM104,44H105V45H104zM106,44H107V45H106zM107,44H108V45H107zM108,44H109V45H108zM111,44H112V45H111zM112,44H113V45H112zM5,45H6V46H5zM12,45H13V46H12zM16,45H17V46H16zM21,45H22V46H21zM22,45H23V46H22zM23,45H24V46H23zM24,45H25V46H24zM32,45H33V46H32zM33,45H34V46H33zM34,45H35V46H34zM40,45H41V46H40zM41,45H42V46H41zM42,45H43V46H42zM43,45H44V46H43zM45,45H46V46H45zM47,45H48V46H47zM48,45H49V46H48zM49,45H50V46H49zM57,45H58V46H57zM64,45H65V46H64zM65,45H66V46H65zM70,45H71V46H70zM71,45H72V46H71zM72,45H73V46H72zM74,45H75V46H74zM76,45H77V46H76zM77,45H78V46H77zM79,45H80V46H79zM82,45H83V46H82zM86,45H87V46H86zM87,45H88V46H87zM88,45H89V46H88zM89,45H90V46H89zM91,45H92V46H91zM93,45H94V46H93zM95,45H96V46H95zM96,45H97V46H96zM98,45H99V46H98zM100,45H101V46H100zM101,45H102V46H101zM104,45H105V46H104zM106,45H107V46H106zM108,45H109V46H108zM109,45H110V46H109zM111,45H112V46H111zM4,46H5V47H4zM6,46H7V47H6zM8,46H9V47H8zM10,46H11V47H10zM11,46H12V47H11zM13,46H14V47H13zM15,46H16V47H15zM16,46H17V47H16zM17,46H18V47H17zM20,46H21V47H20zM23,46H24V47H23zM25,46H26V47H25zM28,46H29V47H28zM29,46H30V47H29zM30,46H31V47H30zM31,46H32V47H31zM32,46H33V47H32zM37,46H38V47H37zM38,46H39V47H38zM40,46H41V47H40zM41,46H42V47H41zM46,46H47V47H46zM47,46H48V47H47zM52,46H53V47H52zM55,46H56V47H55zM57,46H58V47H57zM59,46H60V47H59zM63,46H64V47H63zM64,46H65V47H64zM66,46H67V47H66zM67,46H68V47H67zM68,46H69V47H68zM71,46H72V47H71zM73,46H74V47H73zM75,46H76V47H75zM78,46H79V47H78zM79,46H80V47H79zM82,46H83V47H82zM83,46H84V47H83zM86,46H87V47H86zM89,46H90V47H89zM90,46H91V47H90zM92,46H93V47H92zM93,46H94V47H93zM95,46H96V47H95zM98,46H99V47H98zM99,46H100V47H99zM101,46H102V47H101zM103,46H104V47H103zM105,46H106V47H105zM107,46H108V47H107zM109,46H110V47H109zM111,46H112V47H111zM112,46H113V47H112zM4,47H5V48H4zM5,47H6V48H5zM6,47H7V48H6zM8,47H9V48H8zM12,47H13V48H12zM15,47H16V48H15zM16,47H17V48H16zM18,47H19V48H18zM21,47H22V48H21zM22,47H23V48H22zM23,47H24V48H23zM25,47H26V48H25zM27,47H28V48H27zM32,47H33V48H32zM34,47H35V48H34zM36,47H37V48H36zM37,47H38V48H37zM41,47H42V48H41zM45,47H46V48H45zM51,47H52V48H51zM52,47H53V48H52zM53,47H54V48H53zM54,47H55V48H54zM58,47H59V48H58zM60,47H61V48H60zM62,47H63V48H62zM65,47H66V48H65zM67,47H68V48H67zM72,47H73V48H72zM73,47H74V48H73zM74,47H75V48H74zM75,47H76V48H75zM79,47H80V48H79zM81,47H82V48H81zM82,47H83V48H82zM83,47H84V48H83zM87,47H88V48H87zM90,47H91V48H90zM91,47H92V48H91zM92,47H93V48H92zM93,47H94V48H93zM94,47H95V48H94zM95,47H96V48H95zM97,47H98V48H97zM98,47H99V48H98zM99,47H100V48H99zM100,47H101V48H100zM101,47H102V48H101zM102,47H103V48H102zM103,47H104V48H103zM104,47H105V48H104zM105,47H106V48H105zM106,47H107V48H106zM109,47H110V48H109zM112,47H113V48H112zM6,48H7V49H6zM8,48H9V49H8zM10,48H11V49H10zM12,48H13V49H12zM13,48H14V49H13zM19,48H20V49H19zM24,48H25V49H24zM25,48H26V49H25zM30,48H31V49H30zM32,48H33V49H32zM35,48H36V49H35zM37,48H38V49H37zM45,48H46V49H45zM46,48H47V49H46zM47,48H48V49H47zM49,48H50V49H49zM50,48H51V49H50zM51,48H52V49H51zM53,48H54V49H53zM55,48H56V49H55zM56,48H57V49H56zM57,48H58V49H57zM59,48H60V49H59zM60,48H61V49H60zM61,48H62V49H61zM62,48H63V49H62zM63,48H64V49H63zM65,48H66V49H65zM66,48H67V49H66zM68,48H69V49H68zM69,48H70V49H69zM70,48H71V49H70zM71,48H72V49H71zM73,48H74V49H73zM78,48H79V49H78zM81,48H82V49H81zM83,48H84V49H83zM84,48H85V49H84zM85,48H86V49H85zM90,48H91V49H90zM92,48H93V49H92zM93,48H94V49H93zM94,48H95V49H94zM95,48H96V49H95zM101,48H102V49H101zM102,48H103V49H102zM104,48H105V49H104zM105,48H106V49H105zM106,48H107V49H106zM107,48H108V49H107zM108,48H109V49H108zM112,48H113V49H112zM6,49H7V50H6zM12,49H13V50H12zM13,49H14V50H13zM14,49H15V50H14zM15,49H16V50H15zM16,49H17V50H16zM20,49H21V50H20zM21,49H22V50H21zM24,49H25V50H24zM25,49H26V50H25zM28,49H29V50H28zM30,49H31V50H30zM31,49H32V50H31zM32,49H33V50H32zM33,49H34V50H33zM35,49H36V50H35zM37,49H38V50H37zM38,49H39V50H38zM39,49H40V50H39zM40,49H41V50H40zM45,49H46V50H45zM48,49H49V50H48zM49,49H50V50H49zM50,49H51V50H50zM51,49H52V50H51zM53,49H54V50H53zM62,49H63V50H62zM64,49H65V50H64zM68,49H69V50H68zM70,49H71V50H70zM72,49H73V50H72zM76,49H77V50H76zM78,49H79V50H78zM79,49H80V50H79zM80,49H81V50H80zM82,49H83V50H82zM83,49H84V50H83zM86,49H87V50H86zM87,49H88V50H87zM88,49H89V50H88zM89,49H90V50H89zM91,49H92V50H91zM96,49H97V50H96zM97,49H98V50H97zM98,49H99V50H98zM99,49H100V50H99zM100,49H101V50H100zM101,49H102V50H101zM108,49H109V50H108zM111,49H112V50H111zM112,49H113V50H112zM4,50H5V51H4zM6,50H7V51H6zM7,50H8V51H7zM8,50H9V51H8zM9,50H10V51H9zM10,50H11V51H10zM22,50H23V51H22zM23,50H24V51H23zM24,50H25V51H24zM27,50H28V51H27zM29,50H30V51H29zM30,50H31V51H30zM34,50H35V51H34zM36,50H37V51H36zM37,50H38V51H37zM40,50H41V51H40zM43,50H44V51H43zM47,50H48V51H47zM49,50H50V51H49zM51,50H52V51H51zM53,50H54V51H53zM54,50H55V51H54zM55,50H56V51H55zM56,50H57V51H56zM60,50H61V51H60zM61,50H62V51H61zM64,50H65V51H64zM69,50H70V51H69zM70,50H71V51H70zM71,50H72V51H71zM74,50H75V51H74zM77,50H78V51H77zM79,50H80V51H79zM81,50H82V51H81zM82,50H83V51H82zM83,50H84V51H83zM85,50H86V51H85zM87,50H88V51H87zM90,50H91V51H90zM92,50H93V51H92zM93,50H94V51H93zM94,50H95V51H94zM98,50H99V51H98zM103,50H104V51H103zM105,50H106V51H105zM106,50H107V51H106zM108,50H109V51H108zM109,50H110V51H109zM111,50H112V51H111zM5,51H6V52H5zM7,51H8V52H7zM8,51H9V52H8zM12,51H13V52H12zM15,51H16V52H15zM16,51H17V52H16zM17,51H18V52H17zM21,51H22V52H21zM22,51H23V52H22zM23,51H24V52H23zM25,51H26V52H25zM28,51H29V52H28zM29,51H30V52H29zM30,51H31V52H30zM31,51H32V52H31zM32,51H33V52H32zM33,51H34V52H33zM35,51H36V52H35zM36,51H37V52H36zM37,51H38V52H37zM40,51H41V52H40zM42,51H43V52H42zM44,51H45V52H44zM45,51H46V52H45zM47,51H48V52H47zM50,51H51V52H50zM51,51H52V52H51zM52,51H53V52H52zM56,51H57V52H56zM57,51H58V52H57zM58,51H59V52H58zM59,51H60V52H59zM62,51H63V52H62zM63,51H64V52H63zM64,51H65V52H64zM65,51H66V52H65zM67,51H68V52H67zM68,51H69V52H68zM69,51H70V52H69zM71,51H72V52H71zM72,51H73V52H72zM75,51H76V52H75zM76,51H77V52H76zM82,51H83V52H82zM89,51H90V52H89zM91,51H92V52H91zM92,51H93V52H92zM97,51H98V52H97zM99,51H100V52H99zM102,51H103V52H102zM103,51H104V52H103zM104,51H105V52H104zM108,51H109V52H108zM111,51H112V52H111zM112,51H113V52H112zM4,52H5V53H4zM8,52H9V53H8zM10,52H11V53H10zM12,52H13V53H12zM13,52H14V53H13zM14,52H15V53H14zM15,52H16V53H15zM16,52H17V53H16zM18,52H19V53H18zM19,52H20V53H19zM20,52H21V53H20zM24,52H25V53H24zM27,52H28V53H27zM30,52H31V53H30zM31,52H32V53H31zM43,52H44V53H43zM44,52H45V53H44zM45,52H46V53H45zM48,52H49V53H48zM49,52H50V53H49zM52,52H53V53H52zM53,52H54V53H53zM58,52H59V53H58zM61,52H62V53H61zM62,52H63V53H62zM64,52H65V53H64zM65,52H66V53H65zM66,52H67V53H66zM69,52H70V53H69zM70,52H71V53H70zM71,52H72V53H71zM72,52H73V53H72zM73,52H74V53H73zM78,52H79V53H78zM83,52H84V53H83zM84,52H85V53H84zM85,52H86V53H85zM87,52H88V53H87zM90,52H91V53H90zM92,52H93V53H92zM93,52H94V53H93zM94,52H95V53H94zM100,52H101V53H100zM101,52H102V53H101zM105,52H106V53H105zM106,52H107V53H106zM107,52H108V53H107zM108,52H109V53H108zM110,52H111V53H110zM111,52H112V53H111zM112,52H113V53H112zM4,53H5V54H4zM6,53H7V54H6zM7,53H8V54H7zM8,53H9V54H8zM13,53H14V54H13zM14,53H15V54H14zM15,53H16V54H15zM19,53H20V54H19zM24,53H25V54H24zM25,53H26V54H25zM26,53H27V54H26zM27,53H28V54H27zM28,53H29V54H28zM29,53H30V54H29zM30,53H31V54H30zM32,53H33V54H32zM35,53H36V54H35zM36,53H37V54H36zM37,53H38V54H37zM38,53H39V54H38zM39,53H40V54H39zM40,53H41V54H40zM41,53H42V54H41zM42,53H43V54H42zM43,53H44V54H43zM45,53H46V54H45zM47,53H48V54H47zM49,53H50V54H49zM50,53H51V54H50zM51,53H52V54H51zM52,53H53V54H52zM53,53H54V54H53zM54,53H55V54H54zM58,53H59V54H58zM59,53H60V54H59zM60,53H61V54H60zM62,53H63V54H62zM64,53H65V54H64zM67,53H68V54H67zM71,53H72V54H71zM72,53H73V54H72zM74,53H75V54H74zM75,53H76V54H75zM76,53H77V54H76zM77,53H78V54H77zM79,53H80V54H79zM80,53H81V54H80zM81,53H82V54H81zM82,53H83V54H82zM86,53H87V54H86zM87,53H88V54H87zM88,53H89V54H88zM89,53H90V54H89zM90,53H91V54H90zM91,53H92V54H91zM93,53H94V54H93zM94,53H95V54H94zM96,53H97V54H96zM99,53H100V54H99zM100,53H101V54H100zM101,53H102V54H101zM102,53H103V54H102zM104,53H105V54H104zM105,53H106V54H105zM106,53H107V54H106zM107,53H108V54H107zM108,53H109V54H108zM6,54H7V55H6zM8,54H9V55H8zM10,54H11V55H10zM11,54H12V55H11zM16,54H17V55H16zM17,54H18V55H17zM18,54H19V55H18zM19,54H20V55H19zM24,54H25V55H24zM26,54H27V55H26zM28,54H29V55H28zM29,54H30V55H29zM31,54H32V55H31zM36,54H37V55H36zM38,54H39V55H38zM39,54H40V55H39zM43,54H44V55H43zM44,54H45V55H44zM45,54H46V55H45zM46,54H47V55H46zM49,54H50V55H49zM51,54H52V55H51zM53,54H54V55H53zM56,54H57V55H56zM58,54H59V55H58zM60,54H61V55H60zM62,54H63V55H62zM63,54H64V55H63zM64,54H65V55H64zM67,54H68V55H67zM68,54H69V55H68zM70,54H71V55H70zM71,54H72V55H71zM74,54H75V55H74zM76,54H77V55H76zM78,54H79V55H78zM79,54H80V55H79zM80,54H81V55H80zM81,54H82V55H81zM82,54H83V55H82zM83,54H84V55H83zM92,54H93V55H92zM93,54H94V55H93zM97,54H98V55H97zM98,54H99V55H98zM99,54H100V55H99zM100,54H101V55H100zM101,54H102V55H101zM105,54H106V55H105zM5,55H6V56H5zM8,55H9V56H8zM9,55H10V56H9zM11,55H12V56H11zM13,55H14V56H13zM15,55H16V56H15zM16,55H17V56H16zM19,55H20V56H19zM21,55H22V56H21zM22,55H23V56H22zM26,55H27V56H26zM27,55H28V56H27zM29,55H30V56H29zM30,55H31V56H30zM31,55H32V56H31zM34,55H35V56H34zM36,55H37V56H36zM38,55H39V56H38zM39,55H40V56H39zM42,55H43V56H42zM44,55H45V56H44zM45,55H46V56H45zM49,55H50V56H49zM51,55H52V56H51zM52,55H53V56H52zM53,55H54V56H53zM54,55H55V56H54zM57,55H58V56H57zM58,55H59V56H58zM59,55H60V56H59zM60,55H61V56H60zM63,55H64V56H63zM64,55H65V56H64zM65,55H66V56H65zM67,55H68V56H67zM69,55H70V56H69zM72,55H73V56H72zM74,55H75V56H74zM77,55H78V56H77zM79,55H80V56H79zM81,55H82V56H81zM85,55H86V56H85zM89,55H90V56H89zM93,55H94V56H93zM95,55H96V56H95zM96,55H97V56H96zM97,55H98V56H97zM99,55H100V56H99zM101,55H102V56H101zM103,55H104V56H103zM105,55H106V56H105zM108,55H109V56H108zM109,55H110V56H109zM111,55H112V56H111zM112,55H113V56H112zM4,56H5V57H4zM6,56H7V57H6zM7,56H8V57H7zM8,56H9V57H8zM9,56H10V57H9zM10,56H11V57H10zM11,56H12V57H11zM12,56H13V57H12zM16,56H17V57H16zM17,56H18V57H17zM18,56H19V57H18zM19,56H20V57H19zM20,56H21V57H20zM22,56H23V57H22zM23,56H24V57H23zM24,56H25V57H24zM31,56H32V57H31zM32,56H33V57H32zM33,56H34V57H33zM34,56H35V57H34zM35,56H36V57H35zM36,56H37V57H36zM38,56H39V57H38zM39,56H40V57H39zM42,56H43V57H42zM43,56H44V57H43zM45,56H46V57H45zM49,56H50V57H49zM54,56H55V57H54zM56,56H57V57H56zM57,56H58V57H57zM58,56H59V57H58zM59,56H60V57H59zM60,56H61V57H60zM68,56H69V57H68zM70,56H71V57H70zM71,56H72V57H71zM76,56H77V57H76zM78,56H79V57H78zM80,56H81V57H80zM81,56H82V57H81zM82,56H83V57H82zM83,56H84V57H83zM84,56H85V57H84zM85,56H86V57H85zM90,56H91V57H90zM92,56H93V57H92zM93,56H94V57H93zM94,56H95V57H94zM95,56H96V57H95zM96,56H97V57H96zM97,56H98V57H97zM99,56H100V57H99zM100,56H101V57H100zM102,56H103V57H102zM104,56H105V57H104zM105,56H106V57H105zM106,56H107V57H106zM107,56H108V57H107zM108,56H109V57H108zM110,56H111V57H110zM111,56H112V57H111zM112,56H113V57H112zM4,57H5V58H4zM6,57H7V58H6zM8,57H9V58H8zM12,57H13V58H12zM14,57H15V58H14zM22,57H23V58H22zM23,57H24V58H23zM24,57H25V58H24zM25,57H26V58H25zM28,57H29V58H28zM29,57H30V58H29zM30,57H31V58H30zM32,57H33V58H32zM36,57H37V58H36zM37,57H38V58H37zM40,57H41V58H40zM41,57H42V58H41zM42,57H43V58H42zM44,57H45V58H44zM45,57H46V58H45zM46,57H47V58H46zM47,57H48V58H47zM48,57H49V58H48zM50,57H51V58H50zM51,57H52V58H51zM53,57H54V58H53zM54,57H55V58H54zM56,57H57V58H56zM60,57H61V58H60zM62,57H63V58H62zM63,57H64V58H63zM64,57H65V58H64zM65,57H66V58H65zM70,57H71V58H70zM72,57H73V58H72zM74,57H75V58H74zM75,57H76V58H75zM76,57H77V58H76zM79,57H80V58H79zM80,57H81V58H80zM84,57H85V58H84zM85,57H86V58H85zM86,57H87V58H86zM87,57H88V58H87zM88,57H89V58H88zM89,57H90V58H89zM93,57H94V58H93zM96,57H97V58H96zM99,57H100V58H99zM103,57H104V58H103zM104,57H105V58H104zM108,57H109V58H108zM111,57H112V58H111zM112,57H113V58H112zM4,58H5V59H4zM6,58H7V59H6zM7,58H8V59H7zM8,58H9V59H8zM10,58H11V59H10zM12,58H13V59H12zM15,58H16V59H15zM16,58H17V59H16zM21,58H22V59H21zM22,58H23V59H22zM25,58H26V59H25zM26,58H27V59H26zM29,58H30V59H29zM30,58H31V59H30zM32,58H33V59H32zM34,58H35V59H34zM36,58H37V59H36zM40,58H41V59H40zM41,58H42V59H41zM46,58H47V59H46zM47,58H48V59H47zM48,58H49V59H48zM50,58H51V59H50zM51,58H52V59H51zM52,58H53V59H52zM53,58H54V59H53zM56,58H57V59H56zM58,58H59V59H58zM60,58H61V59H60zM62,58H63V59H62zM63,58H64V59H63zM64,58H65V59H64zM68,58H69V59H68zM69,58H70V59H69zM70,58H71V59H70zM74,58H75V59H74zM75,58H76V59H75zM76,58H77V59H76zM78,58H79V59H78zM80,58H81V59H80zM82,58H83V59H82zM84,58H85V59H84zM86,58H87V59H86zM88,58H89V59H88zM89,58H90V59H89zM90,58H91V59H90zM92,58H93V59H92zM93,58H94V59H93zM95,58H96V59H95zM97,58H98V59H97zM99,58H100V59H99zM100,58H101V59H100zM101,58H102V59H101zM103,58H104V59H103zM104,58H105V59H104zM106,58H107V59H106zM108,58H109V59H108zM109,58H110V59H109zM110,58H111V59H110zM112,58H113V59H112zM4,59H5V60H4zM5,59H6V60H5zM7,59H8V60H7zM8,59H9V60H8zM12,59H13V60H12zM13,59H14V60H13zM14,59H15V60H14zM15,59H16V60H15zM16,59H17V60H16zM18,59H19V60H18zM20,59H21V60H20zM21,59H22V60H21zM24,59H25V60H24zM27,59H28V60H27zM28,59H29V60H28zM29,59H30V60H29zM31,59H32V60H31zM32,59H33V60H32zM36,59H37V60H36zM38,59H39V60H38zM41,59H42V60H41zM42,59H43V60H42zM43,59H44V60H43zM47,59H48V60H47zM48,59H49V60H48zM50,59H51V60H50zM51,59H52V60H51zM53,59H54V60H53zM54,59H55V60H54zM55,59H56V60H55zM56,59H57V60H56zM60,59H61V60H60zM61,59H62V60H61zM67,59H68V60H67zM68,59H69V60H68zM69,59H70V60H69zM70,59H71V60H70zM75,59H76V60H75zM76,59H77V60H76zM77,59H78V60H77zM80,59H81V60H80zM84,59H85V60H84zM85,59H86V60H85zM86,59H87V60H86zM87,59H88V60H87zM89,59H90V60H89zM91,59H92V60H91zM94,59H95V60H94zM96,59H97V60H96zM98,59H99V60H98zM103,59H104V60H103zM104,59H105V60H104zM108,59H109V60H108zM111,59H112V60H111zM4,60H5V61H4zM8,60H9V61H8zM9,60H10V61H9zM10,60H11V61H10zM11,60H12V61H11zM12,60H13V61H12zM13,60H14V61H13zM17,60H18V61H17zM23,60H24V61H23zM27,60H28V61H27zM30,60H31V61H30zM31,60H32V61H31zM32,60H33V61H32zM33,60H34V61H33zM34,60H35V61H34zM35,60H36V61H35zM36,60H37V61H36zM37,60H38V61H37zM38,60H39V61H38zM39,60H40V61H39zM40,60H41V61H40zM41,60H42V61H41zM42,60H43V61H42zM43,60H44V61H43zM45,60H46V61H45zM46,60H47V61H46zM47,60H48V61H47zM48,60H49V61H48zM49,60H50V61H49zM50,60H51V61H50zM51,60H52V61H51zM53,60H54V61H53zM54,60H55V61H54zM56,60H57V61H56zM57,60H58V61H57zM58,60H59V61H58zM59,60H60V61H59zM60,60H61V61H60zM61,60H62V61H61zM62,60H63V61H62zM63,60H64V61H63zM65,60H66V61H65zM66,60H67V61H66zM69,60H70V61H69zM70,60H71V61H70zM72,60H73V61H72zM73,60H74V61H73zM75,60H76V61H75zM78,60H79V61H78zM80,60H81V61H80zM81,60H82V61H81zM82,60H83V61H82zM83,60H84V61H83zM84,60H85V61H84zM85,60H86V61H85zM90,60H91V61H90zM92,60H93V61H92zM93,60H94V61H93zM94,60H95V61H94zM95,60H96V61H95zM97,60H98V61H97zM99,60H100V61H99zM102,60H103V61H102zM104,60H105V61H104zM105,60H106V61H105zM106,60H107V61H106zM107,60H108V61H107zM108,60H109V61H108zM109,60H110V61H109zM112,60H113V61H112zM4,61H5V62H4zM5,61H6V62H5zM6,61H7V62H6zM7,61H8V62H7zM8,61H9V62H8zM9,61H10V62H9zM11,61H12V62H11zM17,61H18V62H17zM21,61H22V62H21zM25,61H26V62H25zM26,61H27V62H26zM27,61H28V62H27zM29,61H30V62H29zM30,61H31V62H30zM31,61H32V62H31zM35,61H36V62H35zM38,61H39V62H38zM44,61H45V62H44zM47,61H48V62H47zM50,61H51V62H50zM51,61H52V62H51zM54,61H55V62H54zM55,61H56V62H55zM58,61H59V62H58zM63,61H64V62H63zM65,61H66V62H65zM67,61H68V62H67zM72,61H73V62H72zM73,61H74V62H73zM74,61H75V62H74zM76,61H77V62H76zM77,61H78V62H77zM79,61H80V62H79zM83,61H84V62H83zM84,61H85V62H84zM85,61H86V62H85zM86,61H87V62H86zM87,61H88V62H87zM88,61H89V62H88zM91,61H92V62H91zM96,61H97V62H96zM98,61H99V62H98zM100,61H101V62H100zM101,61H102V62H101zM103,61H104V62H103zM107,61H108V62H107zM111,61H112V62H111zM112,61H113V62H112zM8,62H9V63H8zM10,62H11V63H10zM11,62H12V63H11zM13,62H14V63H13zM16,62H17V63H16zM17,62H18V63H17zM18,62H19V63H18zM19,62H20V63H19zM23,62H24V63H23zM26,62H27V63H26zM29,62H30V63H29zM30,62H31V63H30zM32,62H33V63H32zM33,62H34V63H33zM35,62H36V63H35zM39,62H40V63H39zM40,62H41V63H40zM42,62H43V63H42zM45,62H46V63H45zM48,62H49V63H48zM49,62H50V63H49zM50,62H51V63H50zM52,62H53V63H52zM54,62H55V63H54zM59,62H60V63H59zM61,62H62V63H61zM66,62H67V63H66zM68,62H69V63H68zM70,62H71V63H70zM75,62H76V63H75zM78,62H79V63H78zM80,62H81V63H80zM84,62H85V63H84zM86,62H87V63H86zM87,62H88V63H87zM92,62H93V63H92zM94,62H95V63H94zM95,62H96V63H95zM97,62H98V63H97zM98,62H99V63H98zM100,62H101V63H100zM101,62H102V63H101zM103,62H104V63H103zM105,62H106V63H105zM106,62H107V63H106zM107,62H108V63H107zM109,62H110V63H109zM110,62H111V63H110zM112,62H113V63H112zM4,63H5V64H4zM5,63H6V64H5zM6,63H7V64H6zM7,63H8V64H7zM8,63H9V64H8zM9,63H10V64H9zM14,63H15V64H14zM17,63H18V64H17zM20,63H21V64H20zM22,63H23V64H22zM23,63H24V64H23zM24,63H25V64H24zM26,63H27V64H26zM27,63H28V64H27zM31,63H32V64H31zM32,63H33V64H32zM33,63H34V64H33zM36,63H37V64H36zM38,63H39V64H38zM40,63H41V64H40zM41,63H42V64H41zM42,63H43V64H42zM43,63H44V64H43zM44,63H45V64H44zM45,63H46V64H45zM50,63H51V64H50zM51,63H52V64H51zM52,63H53V64H52zM53,63H54V64H53zM58,63H59V64H58zM61,63H62V64H61zM62,63H63V64H62zM65,63H66V64H65zM68,63H69V64H68zM69,63H70V64H69zM73,63H74V64H73zM74,63H75V64H74zM77,63H78V64H77zM79,63H80V64H79zM81,63H82V64H81zM82,63H83V64H82zM85,63H86V64H85zM86,63H87V64H86zM87,63H88V64H87zM89,63H90V64H89zM90,63H91V64H90zM91,63H92V64H91zM92,63H93V64H92zM97,63H98V64H97zM99,63H100V64H99zM103,63H104V64H103zM107,63H108V64H107zM109,63H110V64H109zM111,63H112V64H111zM6,64H7V65H6zM7,64H8V65H7zM10,64H11V65H10zM11,64H12V65H11zM13,64H14V65H13zM14,64H15V65H14zM16,64H17V65H16zM21,64H22V65H21zM23,64H24V65H23zM27,64H28V65H27zM29,64H30V65H29zM34,64H35V65H34zM36,64H37V65H36zM38,64H39V65H38zM39,64H40V65H39zM42,64H43V65H42zM43,64H44V65H43zM47,64H48V65H47zM48,64H49V65H48zM51,64H52V65H51zM52,64H53V65H52zM53,64H54V65H53zM54,64H55V65H54zM55,64H56V65H55zM58,64H59V65H58zM59,64H60V65H59zM63,64H64V65H63zM65,64H66V65H65zM66,64H67V65H66zM68,64H69V65H68zM69,64H70V65H69zM70,64H71V65H70zM71,64H72V65H71zM75,64H76V65H75zM78,64H79V65H78zM79,64H80V65H79zM81,64H82V65H81zM82,64H83V65H82zM83,64H84V65H83zM84,64H85V65H84zM85,64H86V65H85zM90,64H91V65H90zM91,64H92V65H91zM92,64H93V65H92zM94,64H95V65H94zM95,64H96V65H95zM102,64H103V65H102zM107,64H108V65H107zM110,64H111V65H110zM112,64H113V65H112zM7,65H8V66H7zM8,65H9V66H8zM9,65H10V66H9zM13,65H14V66H13zM14,65H15V66H14zM15,65H16V66H15zM20,65H21V66H20zM21,65H22V66H21zM22,65H23V66H22zM23,65H24V66H23zM25,65H26V66H25zM26,65H27V66H26zM31,65H32V66H31zM34,65H35V66H34zM35,65H36V66H35zM37,65H38V66H37zM41,65H42V66H41zM42,65H43V66H42zM44,65H45V66H44zM45,65H46V66H45zM46,65H47V66H46zM48,65H49V66H48zM51,65H52V66H51zM52,65H53V66H52zM57,65H58V66H57zM58,65H59V66H58zM61,65H62V66H61zM62,65H63V66H62zM65,65H66V66H65zM67,65H68V66H67zM70,65H71V66H70zM71,65H72V66H71zM72,65H73V66H72zM75,65H76V66H75zM76,65H77V66H76zM77,65H78V66H77zM79,65H80V66H79zM80,65H81V66H80zM81,65H82V66H81zM85,65H86V66H85zM86,65H87V66H86zM88,65H89V66H88zM89,65H90V66H89zM96,65H97V66H96zM98,65H99V66H98zM99,65H100V66H99zM102,65H103V66H102zM103,65H104V66H103zM105,65H106V66H105zM107,65H108V66H107zM111,65H112V66H111zM8,66H9V67H8zM10,66H11V67H10zM13,66H14V67H13zM15,66H16V67H15zM17,66H18V67H17zM19,66H20V67H19zM20,66H21V67H20zM22,66H23V67H22zM24,66H25V67H24zM25,66H26V67H25zM27,66H28V67H27zM29,66H30V67H29zM31,66H32V67H31zM32,66H33V67H32zM35,66H36V67H35zM36,66H37V67H36zM38,66H39V67H38zM40,66H41V67H40zM41,66H42V67H41zM43,66H44V67H43zM47,66H48V67H47zM48,66H49V67H48zM49,66H50V67H49zM50,66H51V67H50zM53,66H54V67H53zM54,66H55V67H54zM55,66H56V67H55zM56,66H57V67H56zM57,66H58V67H57zM59,66H60V67H59zM60,66H61V67H60zM66,66H67V67H66zM73,66H74V67H73zM75,66H76V67H75zM77,66H78V67H77zM78,66H79V67H78zM79,66H80V67H79zM84,66H85V67H84zM86,66H87V67H86zM87,66H88V67H87zM88,66H89V67H88zM90,66H91V67H90zM91,66H92V67H91zM94,66H95V67H94zM99,66H100V67H99zM101,66H102V67H101zM104,66H105V67H104zM105,66H106V67H105zM106,66H107V67H106zM107,66H108V67H107zM109,66H110V67H109zM110,66H111V67H110zM112,66H113V67H112zM4,67H5V68H4zM5,67H6V68H5zM11,67H12V68H11zM12,67H13V68H12zM13,67H14V68H13zM19,67H20V68H19zM20,67H21V68H20zM22,67H23V68H22zM23,67H24V68H23zM24,67H25V68H24zM26,67H27V68H26zM28,67H29V68H28zM31,67H32V68H31zM32,67H33V68H32zM34,67H35V68H34zM41,67H42V68H41zM42,67H43V68H42zM45,67H46V68H45zM46,67H47V68H46zM49,67H50V68H49zM50,67H51V68H50zM53,67H54V68H53zM60,67H61V68H60zM62,67H63V68H62zM63,67H64V68H63zM65,67H66V68H65zM66,67H67V68H66zM67,67H68V68H67zM73,67H74V68H73zM75,67H76V68H75zM81,67H82V68H81zM82,67H83V68H82zM83,67H84V68H83zM85,67H86V68H85zM86,67H87V68H86zM87,67H88V68H87zM89,67H90V68H89zM91,67H92V68H91zM94,67H95V68H94zM95,67H96V68H95zM96,67H97V68H96zM101,67H102V68H101zM102,67H103V68H102zM104,67H105V68H104zM107,67H108V68H107zM109,67H110V68H109zM111,67H112V68H111zM112,67H113V68H112zM7,68H8V69H7zM8,68H9V69H8zM10,68H11V69H10zM13,68H14V69H13zM15,68H16V69H15zM18,68H19V69H18zM23,68H24V69H23zM24,68H25V69H24zM25,68H26V69H25zM26,68H27V69H26zM27,68H28V69H27zM29,68H30V69H29zM30,68H31V69H30zM36,68H37V69H36zM37,68H38V69H37zM38,68H39V69H38zM39,68H40V69H39zM40,68H41V69H40zM41,68H42V69H41zM48,68H49V69H48zM51,68H52V69H51zM52,68H53V69H52zM54,68H55V69H54zM58,68H59V69H58zM59,68H60V69H59zM60,68H61V69H60zM62,68H63V69H62zM65,68H66V69H65zM66,68H67V69H66zM71,68H72V69H71zM73,68H74V69H73zM75,68H76V69H75zM77,68H78V69H77zM78,68H79V69H78zM84,68H85V69H84zM85,68H86V69H85zM90,68H91V69H90zM91,68H92V69H91zM92,68H93V69H92zM93,68H94V69H93zM94,68H95V69H94zM95,68H96V69H95zM96,68H97V69H96zM97,68H98V69H97zM99,68H100V69H99zM100,68H101V69H100zM102,68H103V69H102zM104,68H105V69H104zM105,68H106V69H105zM108,68H109V69H108zM110,68H111V69H110zM111,68H112V69H111zM112,68H113V69H112zM4,69H5V70H4zM5,69H6V70H5zM6,69H7V70H6zM9,69H10V70H9zM13,69H14V70H13zM14,69H15V70H14zM15,69H16V70H15zM17,69H18V70H17zM19,69H20V70H19zM21,69H22V70H21zM25,69H26V70H25zM27,69H28V70H27zM28,69H29V70H28zM30,69H31V70H30zM33,69H34V70H33zM37,69H38V70H37zM41,69H42V70H41zM46,69H47V70H46zM47,69H48V70H47zM48,69H49V70H48zM50,69H51V70H50zM55,69H56V70H55zM56,69H57V70H56zM57,69H58V70H57zM60,69H61V70H60zM61,69H62V70H61zM62,69H63V70H62zM66,69H67V70H66zM67,69H68V70H67zM69,69H70V70H69zM70,69H71V70H70zM71,69H72V70H71zM72,69H73V70H72zM74,69H75V70H74zM75,69H76V70H75zM76,69H77V70H76zM81,69H82V70H81zM82,69H83V70H82zM83,69H84V70H83zM86,69H87V70H86zM87,69H88V70H87zM88,69H89V70H88zM89,69H90V70H89zM93,69H94V70H93zM94,69H95V70H94zM96,69H97V70H96zM102,69H103V70H102zM103,69H104V70H103zM106,69H107V70H106zM109,69H110V70H109zM9,70H10V71H9zM10,70H11V71H10zM14,70H15V71H14zM15,70H16V71H15zM16,70H17V71H16zM17,70H18V71H17zM20,70H21V71H20zM22,70H23V71H22zM23,70H24V71H23zM26,70H27V71H26zM27,70H28V71H27zM28,70H29V71H28zM29,70H30V71H29zM30,70H31V71H30zM32,70H33V71H32zM33,70H34V71H33zM35,70H36V71H35zM37,70H38V71H37zM40,70H41V71H40zM44,70H45V71H44zM46,70H47V71H46zM48,70H49V71H48zM50,70H51V71H50zM53,70H54V71H53zM56,70H57V71H56zM57,70H58V71H57zM61,70H62V71H61zM64,70H65V71H64zM68,70H69V71H68zM70,70H71V71H70zM72,70H73V71H72zM73,70H74V71H73zM75,70H76V71H75zM76,70H77V71H76zM78,70H79V71H78zM80,70H81V71H80zM85,70H86V71H85zM87,70H88V71H87zM88,70H89V71H88zM90,70H91V71H90zM91,70H92V71H91zM93,70H94V71H93zM94,70H95V71H94zM97,70H98V71H97zM98,70H99V71H98zM99,70H100V71H99zM103,70H104V71H103zM104,70H105V71H104zM105,70H106V71H105zM107,70H108V71H107zM5,71H6V72H5zM7,71H8V72H7zM8,71H9V72H8zM9,71H10V72H9zM11,71H12V72H11zM16,71H17V72H16zM17,71H18V72H17zM20,71H21V72H20zM23,71H24V72H23zM24,71H25V72H24zM25,71H26V72H25zM28,71H29V72H28zM31,71H32V72H31zM32,71H33V72H32zM33,71H34V72H33zM36,71H37V72H36zM38,71H39V72H38zM39,71H40V72H39zM40,71H41V72H40zM42,71H43V72H42zM43,71H44V72H43zM44,71H45V72H44zM45,71H46V72H45zM48,71H49V72H48zM49,71H50V72H49zM50,71H51V72H50zM51,71H52V72H51zM52,71H53V72H52zM55,71H56V72H55zM56,71H57V72H56zM58,71H59V72H58zM62,71H63V72H62zM63,71H64V72H63zM65,71H66V72H65zM68,71H69V72H68zM70,71H71V72H70zM74,71H75V72H74zM76,71H77V72H76zM77,71H78V72H77zM78,71H79V72H78zM82,71H83V72H82zM83,71H84V72H83zM87,71H88V72H87zM91,71H92V72H91zM92,71H93V72H92zM93,71H94V72H93zM96,71H97V72H96zM98,71H99V72H98zM99,71H100V72H99zM101,71H102V72H101zM102,71H103V72H102zM103,71H104V72H103zM104,71H105V72H104zM107,71H108V72H107zM110,71H111V72H110zM111,71H112V72H111zM112,71H113V72H112zM6,72H7V73H6zM8,72H9V73H8zM9,72H10V73H9zM10,72H11V73H10zM14,72H15V73H14zM16,72H17V73H16zM17,72H18V73H17zM18,72H19V73H18zM19,72H20V73H19zM21,72H22V73H21zM23,72H24V73H23zM26,72H27V73H26zM27,72H28V73H27zM32,72H33V73H32zM34,72H35V73H34zM36,72H37V73H36zM37,72H38V73H37zM38,72H39V73H38zM41,72H42V73H41zM45,72H46V73H45zM47,72H48V73H47zM48,72H49V73H48zM49,72H50V73H49zM51,72H52V73H51zM52,72H53V73H52zM53,72H54V73H53zM55,72H56V73H55zM56,72H57V73H56zM58,72H59V73H58zM60,72H61V73H60zM61,72H62V73H61zM63,72H64V73H63zM66,72H67V73H66zM68,72H69V73H68zM70,72H71V73H70zM73,72H74V73H73zM78,72H79V73H78zM79,72H80V73H79zM81,72H82V73H81zM82,72H83V73H82zM83,72H84V73H83zM88,72H89V73H88zM90,72H91V73H90zM91,72H92V73H91zM93,72H94V73H93zM94,72H95V73H94zM95,72H96V73H95zM96,72H97V73H96zM97,72H98V73H97zM100,72H101V73H100zM102,72H103V73H102zM103,72H104V73H103zM105,72H106V73H105zM106,72H107V73H106zM111,72H112V73H111zM112,72H113V73H112zM7,73H8V74H7zM11,73H12V74H11zM12,73H13V74H12zM14,73H15V74H14zM17,73H18V74H17zM18,73H19V74H18zM21,73H22V74H21zM22,73H23V74H22zM23,73H24V74H23zM27,73H28V74H27zM34,73H35V74H34zM35,73H36V74H35zM42,73H43V74H42zM47,73H48V74H47zM48,73H49V74H48zM52,73H53V74H52zM53,73H54V74H53zM54,73H55V74H54zM59,73H60V74H59zM61,73H62V74H61zM62,73H63V74H62zM63,73H64V74H63zM64,73H65V74H64zM65,73H66V74H65zM67,73H68V74H67zM70,73H71V74H70zM72,73H73V74H72zM74,73H75V74H74zM76,73H77V74H76zM77,73H78V74H77zM81,73H82V74H81zM82,73H83V74H82zM83,73H84V74H83zM84,73H85V74H84zM87,73H88V74H87zM88,73H89V74H88zM89,73H90V74H89zM91,73H92V74H91zM94,73H95V74H94zM97,73H98V74H97zM98,73H99V74H98zM100,73H101V74H100zM101,73H102V74H101zM102,73H103V74H102zM104,73H105V74H104zM106,73H107V74H106zM107,73H108V74H107zM109,73H110V74H109zM7,74H8V75H7zM10,74H11V75H10zM11,74H12V75H11zM12,74H13V75H12zM13,74H14V75H13zM17,74H18V75H17zM18,74H19V75H18zM25,74H26V75H25zM26,74H27V75H26zM27,74H28V75H27zM28,74H29V75H28zM29,74H30V75H29zM30,74H31V75H30zM33,74H34V75H33zM34,74H35V75H34zM35,74H36V75H35zM36,74H37V75H36zM38,74H39V75H38zM39,74H40V75H39zM40,74H41V75H40zM42,74H43V75H42zM47,74H48V75H47zM48,74H49V75H48zM49,74H50V75H49zM52,74H53V75H52zM53,74H54V75H53zM55,74H56V75H55zM56,74H57V75H56zM58,74H59V75H58zM59,74H60V75H59zM60,74H61V75H60zM62,74H63V75H62zM64,74H65V75H64zM71,74H72V75H71zM74,74H75V75H74zM77,74H78V75H77zM80,74H81V75H80zM83,74H84V75H83zM84,74H85V75H84zM85,74H86V75H85zM87,74H88V75H87zM90,74H91V75H90zM91,74H92V75H91zM92,74H93V75H92zM93,74H94V75H93zM94,74H95V75H94zM96,74H97V75H96zM98,74H99V75H98zM99,74H100V75H99zM100,74H101V75H100zM101,74H102V75H101zM102,74H103V75H102zM103,74H104V75H103zM106,74H107V75H106zM109,74H110V75H109zM111,74H112V75H111zM4,75H5V76H4zM5,75H6V76H5zM6,75H7V76H6zM7,75H8V76H7zM9,75H10V76H9zM15,75H16V76H15zM16,75H17V76H16zM17,75H18V76H17zM18,75H19V76H18zM20,75H21V76H20zM21,75H22V76H21zM23,75H24V76H23zM25,75H26V76H25zM27,75H28V76H27zM30,75H31V76H30zM33,75H34V76H33zM38,75H39V76H38zM39,75H40V76H39zM42,75H43V76H42zM43,75H44V76H43zM46,75H47V76H46zM47,75H48V76H47zM50,75H51V76H50zM51,75H52V76H51zM52,75H53V76H52zM53,75H54V76H53zM54,75H55V76H54zM55,75H56V76H55zM57,75H58V76H57zM58,75H59V76H58zM60,75H61V76H60zM61,75H62V76H61zM62,75H63V76H62zM66,75H67V76H66zM69,75H70V76H69zM70,75H71V76H70zM72,75H73V76H72zM75,75H76V76H75zM76,75H77V76H76zM77,75H78V76H77zM79,75H80V76H79zM83,75H84V76H83zM85,75H86V76H85zM88,75H89V76H88zM93,75H94V76H93zM95,75H96V76H95zM97,75H98V76H97zM98,75H99V76H98zM99,75H100V76H99zM101,75H102V76H101zM103,75H104V76H103zM104,75H105V76H104zM109,75H110V76H109zM110,75H111V76H110zM111,75H112V76H111zM112,75H113V76H112zM4,76H5V77H4zM5,76H6V77H5zM8,76H9V77H8zM9,76H10V77H9zM10,76H11V77H10zM14,76H15V77H14zM15,76H16V77H15zM16,76H17V77H16zM17,76H18V77H17zM18,76H19V77H18zM19,76H20V77H19zM24,76H25V77H24zM29,76H30V77H29zM30,76H31V77H30zM31,76H32V77H31zM32,76H33V77H32zM34,76H35V77H34zM35,76H36V77H35zM37,76H38V77H37zM45,76H46V77H45zM46,76H47V77H46zM47,76H48V77H47zM49,76H50V77H49zM51,76H52V77H51zM52,76H53V77H52zM53,76H54V77H53zM55,76H56V77H55zM57,76H58V77H57zM64,76H65V77H64zM66,76H67V77H66zM70,76H71V77H70zM71,76H72V77H71zM73,76H74V77H73zM75,76H76V77H75zM76,76H77V77H76zM78,76H79V77H78zM79,76H80V77H79zM81,76H82V77H81zM84,76H85V77H84zM85,76H86V77H85zM90,76H91V77H90zM92,76H93V77H92zM93,76H94V77H93zM94,76H95V77H94zM95,76H96V77H95zM96,76H97V77H96zM97,76H98V77H97zM102,76H103V77H102zM103,76H104V77H103zM108,76H109V77H108zM109,76H110V77H109zM110,76H111V77H110zM111,76H112V77H111zM112,76H113V77H112zM4,77H5V78H4zM7,77H8V78H7zM8,77H9V78H8zM11,77H12V78H11zM14,77H15V78H14zM17,77H18V78H17zM20,77H21V78H20zM22,77H23V78H22zM23,77H24V78H23zM24,77H25V78H24zM25,77H26V78H25zM26,77H27V78H26zM27,77H28V78H27zM30,77H31V78H30zM31,77H32V78H31zM33,77H34V78H33zM35,77H36V78H35zM37,77H38V78H37zM40,77H41V78H40zM43,77H44V78H43zM45,77H46V78H45zM46,77H47V78H46zM47,77H48V78H47zM49,77H50V78H49zM51,77H52V78H51zM52,77H53V78H52zM53,77H54V78H53zM56,77H57V78H56zM57,77H58V78H57zM59,77H60V78H59zM60,77H61V78H60zM64,77H65V78H64zM67,77H68V78H67zM69,77H70V78H69zM70,77H71V78H70zM72,77H73V78H72zM74,77H75V78H74zM75,77H76V78H75zM76,77H77V78H76zM77,77H78V78H77zM80,77H81V78H80zM83,77H84V78H83zM84,77H85V78H84zM87,77H88V78H87zM88,77H89V78H88zM91,77H92V78H91zM95,77H96V78H95zM97,77H98V78H97zM98,77H99V78H98zM101,77H102V78H101zM103,77H104V78H103zM106,77H107V78H106zM109,77H110V78H109zM112,77H113V78H112zM4,78H5V79H4zM5,78H6V79H5zM6,78H7V79H6zM10,78H11V79H10zM14,78H15V79H14zM17,78H18V79H17zM19,78H20V79H19zM21,78H22V79H21zM23,78H24V79H23zM26,78H27V79H26zM28,78H29V79H28zM29,78H30V79H29zM30,78H31V79H30zM32,78H33V79H32zM33,78H34V79H33zM34,78H35V79H34zM36,78H37V79H36zM38,78H39V79H38zM39,78H40V79H39zM40,78H41V79H40zM46,78H47V79H46zM55,78H56V79H55zM58,78H59V79H58zM59,78H60V79H59zM60,78H61V79H60zM61,78H62V79H61zM62,78H63V79H62zM64,78H65V79H64zM66,78H67V79H66zM68,78H69V79H68zM71,78H72V79H71zM73,78H74V79H73zM77,78H78V79H77zM84,78H85V79H84zM85,78H86V79H85zM86,78H87V79H86zM89,78H90V79H89zM91,78H92V79H91zM92,78H93V79H92zM93,78H94V79H93zM94,78H95V79H94zM96,78H97V79H96zM98,78H99V79H98zM99,78H100V79H99zM103,78H104V79H103zM104,78H105V79H104zM105,78H106V79H105zM106,78H107V79H106zM107,78H108V79H107zM110,78H111V79H110zM4,79H5V80H4zM5,79H6V80H5zM7,79H8V80H7zM8,79H9V80H8zM11,79H12V80H11zM13,79H14V80H13zM14,79H15V80H14zM17,79H18V80H17zM18,79H19V80H18zM19,79H20V80H19zM20,79H21V80H20zM23,79H24V80H23zM24,79H25V80H24zM31,79H32V80H31zM34,79H35V80H34zM37,79H38V80H37zM38,79H39V80H38zM39,79H40V80H39zM40,79H41V80H40zM45,79H46V80H45zM48,79H49V80H48zM49,79H50V80H49zM50,79H51V80H50zM52,79H53V80H52zM55,79H56V80H55zM58,79H59V80H58zM59,79H60V80H59zM61,79H62V80H61zM63,79H64V80H63zM64,79H65V80H64zM65,79H66V80H65zM67,79H68V80H67zM69,79H70V80H69zM70,79H71V80H70zM71,79H72V80H71zM74,79H75V80H74zM77,79H78V80H77zM78,79H79V80H78zM79,79H80V80H79zM80,79H81V80H80zM82,79H83V80H82zM83,79H84V80H83zM90,79H91V80H90zM92,79H93V80H92zM95,79H96V80H95zM97,79H98V80H97zM98,79H99V80H98zM101,79H102V80H101zM102,79H103V80H102zM103,79H104V80H103zM110,79H111V80H110zM112,79H113V80H112zM5,80H6V81H5zM8,80H9V81H8zM9,80H10V81H9zM10,80H11V81H10zM11,80H12V81H11zM12,80H13V81H12zM13,80H14V81H13zM20,80H21V81H20zM25,80H26V81H25zM26,80H27V81H26zM27,80H28V81H27zM28,80H29V81H28zM29,80H30V81H29zM30,80H31V81H30zM31,80H32V81H31zM32,80H33V81H32zM33,80H34V81H33zM34,80H35V81H34zM35,80H36V81H35zM36,80H37V81H36zM37,80H38V81H37zM41,80H42V81H41zM43,80H44V81H43zM45,80H46V81H45zM49,80H50V81H49zM50,80H51V81H50zM51,80H52V81H51zM53,80H54V81H53zM54,80H55V81H54zM56,80H57V81H56zM57,80H58V81H57zM58,80H59V81H58zM59,80H60V81H59zM60,80H61V81H60zM61,80H62V81H61zM64,80H65V81H64zM66,80H67V81H66zM68,80H69V81H68zM70,80H71V81H70zM75,80H76V81H75zM78,80H79V81H78zM79,80H80V81H79zM80,80H81V81H80zM81,80H82V81H81zM82,80H83V81H82zM83,80H84V81H83zM84,80H85V81H84zM87,80H88V81H87zM88,80H89V81H88zM90,80H91V81H90zM91,80H92V81H91zM92,80H93V81H92zM93,80H94V81H93zM94,80H95V81H94zM96,80H97V81H96zM101,80H102V81H101zM102,80H103V81H102zM104,80H105V81H104zM105,80H106V81H105zM106,80H107V81H106zM107,80H108V81H107zM108,80H109V81H108zM110,80H111V81H110zM111,80H112V81H111zM112,80H113V81H112zM6,81H7V82H6zM8,81H9V82H8zM12,81H13V82H12zM14,81H15V82H14zM15,81H16V82H15zM20,81H21V82H20zM21,81H22V82H21zM22,81H23V82H22zM27,81H28V82H27zM30,81H31V82H30zM32,81H33V82H32zM36,81H37V82H36zM38,81H39V82H38zM39,81H40V82H39zM40,81H41V82H40zM42,81H43V82H42zM44,81H45V82H44zM47,81H48V82H47zM49,81H50V82H49zM52,81H53V82H52zM53,81H54V82H53zM54,81H55V82H54zM56,81H57V82H56zM60,81H61V82H60zM61,81H62V82H61zM62,81H63V82H62zM64,81H65V82H64zM65,81H66V82H65zM67,81H68V82H67zM72,81H73V82H72zM73,81H74V82H73zM74,81H75V82H74zM75,81H76V82H75zM76,81H77V82H76zM78,81H79V82H78zM80,81H81V82H80zM84,81H85V82H84zM86,81H87V82H86zM87,81H88V82H87zM88,81H89V82H88zM89,81H90V82H89zM91,81H92V82H91zM93,81H94V82H93zM95,81H96V82H95zM97,81H98V82H97zM98,81H99V82H98zM100,81H101V82H100zM104,81H105V82H104zM108,81H109V82H108zM109,81H110V82H109zM4,82H5V83H4zM5,82H6V83H5zM6,82H7V83H6zM7,82H8V83H7zM8,82H9V83H8zM10,82H11V83H10zM12,82H13V83H12zM16,82H17V83H16zM20,82H21V83H20zM24,82H25V83H24zM25,82H26V83H25zM29,82H30V83H29zM32,82H33V83H32zM34,82H35V83H34zM36,82H37V83H36zM38,82H39V83H38zM39,82H40V83H39zM42,82H43V83H42zM48,82H49V83H48zM49,82H50V83H49zM50,82H51V83H50zM51,82H52V83H51zM52,82H53V83H52zM53,82H54V83H53zM54,82H55V83H54zM55,82H56V83H55zM56,82H57V83H56zM58,82H59V83H58zM60,82H61V83H60zM62,82H63V83H62zM63,82H64V83H63zM65,82H66V83H65zM66,82H67V83H66zM67,82H68V83H67zM68,82H69V83H68zM69,82H70V83H69zM71,82H72V83H71zM74,82H75V83H74zM77,82H78V83H77zM78,82H79V83H78zM79,82H80V83H79zM80,82H81V83H80zM82,82H83V83H82zM84,82H85V83H84zM86,82H87V83H86zM88,82H89V83H88zM90,82H91V83H90zM91,82H92V83H91zM92,82H93V83H92zM95,82H96V83H95zM97,82H98V83H97zM100,82H101V83H100zM102,82H103V83H102zM103,82H104V83H103zM104,82H105V83H104zM106,82H107V83H106zM108,82H109V83H108zM109,82H110V83H109zM111,82H112V83H111zM112,82H113V83H112zM7,83H8V84H7zM8,83H9V84H8zM12,83H13V84H12zM13,83H14V84H13zM17,83H18V84H17zM20,83H21V84H20zM21,83H22V84H21zM22,83H23V84H22zM23,83H24V84H23zM24,83H25V84H24zM25,83H26V84H25zM26,83H27V84H26zM28,83H29V84H28zM30,83H31V84H30zM31,83H32V84H31zM32,83H33V84H32zM36,83H37V84H36zM37,83H38V84H37zM38,83H39V84H38zM41,83H42V84H41zM42,83H43V84H42zM46,83H47V84H46zM47,83H48V84H47zM49,83H50V84H49zM50,83H51V84H50zM51,83H52V84H51zM52,83H53V84H52zM54,83H55V84H54zM55,83H56V84H55zM56,83H57V84H56zM60,83H61V84H60zM63,83H64V84H63zM64,83H65V84H64zM65,83H66V84H65zM66,83H67V84H66zM67,83H68V84H67zM68,83H69V84H68zM69,83H70V84H69zM70,83H71V84H70zM71,83H72V84H71zM72,83H73V84H72zM74,83H75V84H74zM76,83H77V84H76zM78,83H79V84H78zM80,83H81V84H80zM84,83H85V84H84zM85,83H86V84H85zM86,83H87V84H86zM88,83H89V84H88zM92,83H93V84H92zM93,83H94V84H93zM95,83H96V84H95zM97,83H98V84H97zM99,83H100V84H99zM100,83H101V84H100zM102,83H103V84H102zM104,83H105V84H104zM108,83H109V84H108zM109,83H110V84H109zM111,83H112V84H111zM4,84H5V85H4zM6,84H7V85H6zM8,84H9V85H8zM9,84H10V85H9zM10,84H11V85H10zM11,84H12V85H11zM12,84H13V85H12zM13,84H14V85H13zM14,84H15V85H14zM15,84H16V85H15zM18,84H19V85H18zM19,84H20V85H19zM22,84H23V85H22zM26,84H27V85H26zM29,84H30V85H29zM32,84H33V85H32zM33,84H34V85H33zM34,84H35V85H34zM35,84H36V85H35zM36,84H37V85H36zM39,84H40V85H39zM40,84H41V85H40zM41,84H42V85H41zM42,84H43V85H42zM43,84H44V85H43zM45,84H46V85H45zM47,84H48V85H47zM49,84H50V85H49zM50,84H51V85H50zM55,84H56V85H55zM56,84H57V85H56zM57,84H58V85H57zM58,84H59V85H58zM59,84H60V85H59zM60,84H61V85H60zM63,84H64V85H63zM64,84H65V85H64zM66,84H67V85H66zM68,84H69V85H68zM70,84H71V85H70zM74,84H75V85H74zM76,84H77V85H76zM77,84H78V85H77zM78,84H79V85H78zM79,84H80V85H79zM80,84H81V85H80zM81,84H82V85H81zM82,84H83V85H82zM83,84H84V85H83zM84,84H85V85H84zM86,84H87V85H86zM90,84H91V85H90zM91,84H92V85H91zM93,84H94V85H93zM94,84H95V85H94zM95,84H96V85H95zM99,84H100V85H99zM102,84H103V85H102zM104,84H105V85H104zM105,84H106V85H105zM106,84H107V85H106zM107,84H108V85H107zM108,84H109V85H108zM109,84H110V85H109zM112,84H113V85H112zM6,85H7V86H6zM8,85H9V86H8zM9,85H10V86H9zM11,85H12V86H11zM12,85H13V86H12zM13,85H14V86H13zM14,85H15V86H14zM16,85H17V86H16zM19,85H20V86H19zM22,85H23V86H22zM27,85H28V86H27zM30,85H31V86H30zM33,85H34V86H33zM34,85H35V86H34zM35,85H36V86H35zM37,85H38V86H37zM38,85H39V86H38zM40,85H41V86H40zM41,85H42V86H41zM42,85H43V86H42zM43,85H44V86H43zM47,85H48V86H47zM48,85H49V86H48zM49,85H50V86H49zM50,85H51V86H50zM51,85H52V86H51zM52,85H53V86H52zM53,85H54V86H53zM57,85H58V86H57zM58,85H59V86H58zM63,85H64V86H63zM65,85H66V86H65zM69,85H70V86H69zM70,85H71V86H70zM71,85H72V86H71zM72,85H73V86H72zM76,85H77V86H76zM77,85H78V86H77zM82,85H83V86H82zM84,85H85V86H84zM85,85H86V86H85zM86,85H87V86H86zM88,85H89V86H88zM91,85H92V86H91zM95,85H96V86H95zM97,85H98V86H97zM98,85H99V86H98zM101,85H102V86H101zM102,85H103V86H102zM104,85H105V86H104zM107,85H108V86H107zM108,85H109V86H108zM109,85H110V86H109zM112,85H113V86H112zM4,86H5V87H4zM5,86H6V87H5zM6,86H7V87H6zM7,86H8V87H7zM8,86H9V87H8zM9,86H10V87H9zM10,86H11V87H10zM13,86H14V87H13zM15,86H16V87H15zM16,86H17V87H16zM19,86H20V87H19zM21,86H22V87H21zM22,86H23V87H22zM23,86H24V87H23zM24,86H25V87H24zM25,86H26V87H25zM26,86H27V87H26zM27,86H28V87H27zM30,86H31V87H30zM32,86H33V87H32zM33,86H34V87H33zM34,86H35V87H34zM36,86H37V87H36zM37,86H38V87H37zM39,86H40V87H39zM42,86H43V87H42zM44,86H45V87H44zM47,86H48V87H47zM48,86H49V87H48zM50,86H51V87H50zM52,86H53V87H52zM55,86H56V87H55zM56,86H57V87H56zM57,86H58V87H57zM58,86H59V87H58zM59,86H60V87H59zM61,86H62V87H61zM62,86H63V87H62zM63,86H64V87H63zM65,86H66V87H65zM68,86H69V87H68zM69,86H70V87H69zM71,86H72V87H71zM77,86H78V87H77zM78,86H79V87H78zM80,86H81V87H80zM82,86H83V87H82zM84,86H85V87H84zM86,86H87V87H86zM87,86H88V87H87zM88,86H89V87H88zM89,86H90V87H89zM95,86H96V87H95zM97,86H98V87H97zM98,86H99V87H98zM99,86H100V87H99zM100,86H101V87H100zM103,86H104V87H103zM104,86H105V87H104zM106,86H107V87H106zM110,86H111V87H110zM111,86H112V87H111zM112,86H113V87H112zM4,87H5V88H4zM5,87H6V88H5zM6,87H7V88H6zM8,87H9V88H8zM9,87H10V88H9zM11,87H12V88H11zM13,87H14V88H13zM14,87H15V88H14zM17,87H18V88H17zM19,87H20V88H19zM20,87H21V88H20zM21,87H22V88H21zM23,87H24V88H23zM26,87H27V88H26zM28,87H29V88H28zM29,87H30V88H29zM31,87H32V88H31zM32,87H33V88H32zM33,87H34V88H33zM36,87H37V88H36zM39,87H40V88H39zM40,87H41V88H40zM41,87H42V88H41zM42,87H43V88H42zM44,87H45V88H44zM47,87H48V88H47zM50,87H51V88H50zM51,87H52V88H51zM52,87H53V88H52zM53,87H54V88H53zM55,87H56V88H55zM56,87H57V88H56zM59,87H60V88H59zM60,87H61V88H60zM61,87H62V88H61zM63,87H64V88H63zM66,87H67V88H66zM67,87H68V88H67zM68,87H69V88H68zM72,87H73V88H72zM73,87H74V88H73zM77,87H78V88H77zM78,87H79V88H78zM79,87H80V88H79zM84,87H85V88H84zM85,87H86V88H85zM86,87H87V88H86zM89,87H90V88H89zM91,87H92V88H91zM92,87H93V88H92zM98,87H99V88H98zM99,87H100V88H99zM101,87H102V88H101zM102,87H103V88H102zM104,87H105V88H104zM106,87H107V88H106zM107,87H108V88H107zM110,87H111V88H110zM111,87H112V88H111zM112,87H113V88H112zM5,88H6V89H5zM7,88H8V89H7zM8,88H9V89H8zM9,88H10V89H9zM10,88H11V89H10zM15,88H16V89H15zM17,88H18V89H17zM18,88H19V89H18zM20,88H21V89H20zM25,88H26V89H25zM26,88H27V89H26zM31,88H32V89H31zM32,88H33V89H32zM33,88H34V89H33zM37,88H38V89H37zM38,88H39V89H38zM41,88H42V89H41zM42,88H43V89H42zM43,88H44V89H43zM46,88H47V89H46zM47,88H48V89H47zM51,88H52V89H51zM60,88H61V89H60zM62,88H63V89H62zM64,88H65V89H64zM66,88H67V89H66zM68,88H69V89H68zM69,88H70V89H69zM71,88H72V89H71zM74,88H75V89H74zM76,88H77V89H76zM78,88H79V89H78zM79,88H80V89H79zM81,88H82V89H81zM84,88H85V89H84zM88,88H89V89H88zM90,88H91V89H90zM92,88H93V89H92zM93,88H94V89H93zM94,88H95V89H94zM96,88H97V89H96zM100,88H101V89H100zM102,88H103V89H102zM104,88H105V89H104zM105,88H106V89H105zM106,88H107V89H106zM108,88H109V89H108zM110,88H111V89H110zM111,88H112V89H111zM112,88H113V89H112zM4,89H5V90H4zM7,89H8V90H7zM9,89H10V90H9zM11,89H12V90H11zM12,89H13V90H12zM14,89H15V90H14zM16,89H17V90H16zM20,89H21V90H20zM22,89H23V90H22zM23,89H24V90H23zM25,89H26V90H25zM27,89H28V90H27zM28,89H29V90H28zM33,89H34V90H33zM37,89H38V90H37zM38,89H39V90H38zM39,89H40V90H39zM40,89H41V90H40zM45,89H46V90H45zM46,89H47V90H46zM47,89H48V90H47zM53,89H54V90H53zM55,89H56V90H55zM56,89H57V90H56zM57,89H58V90H57zM58,89H59V90H58zM59,89H60V90H59zM60,89H61V90H60zM61,89H62V90H61zM64,89H65V90H64zM65,89H66V90H65zM66,89H67V90H66zM67,89H68V90H67zM72,89H73V90H72zM73,89H74V90H73zM75,89H76V90H75zM76,89H77V90H76zM77,89H78V90H77zM82,89H83V90H82zM83,89H84V90H83zM84,89H85V90H84zM85,89H86V90H85zM87,89H88V90H87zM88,89H89V90H88zM89,89H90V90H89zM91,89H92V90H91zM92,89H93V90H92zM94,89H95V90H94zM95,89H96V90H95zM96,89H97V90H96zM97,89H98V90H97zM98,89H99V90H98zM99,89H100V90H99zM100,89H101V90H100zM101,89H102V90H101zM103,89H104V90H103zM105,89H106V90H105zM109,89H110V90H109zM4,90H5V91H4zM6,90H7V91H6zM8,90H9V91H8zM10,90H11V91H10zM12,90H13V91H12zM20,90H21V91H20zM23,90H24V91H23zM24,90H25V91H24zM28,90H29V91H28zM29,90H30V91H29zM30,90H31V91H30zM38,90H39V91H38zM39,90H40V91H39zM42,90H43V91H42zM46,90H47V91H46zM48,90H49V91H48zM50,90H51V91H50zM55,90H56V91H55zM56,90H57V91H56zM58,90H59V91H58zM60,90H61V91H60zM61,90H62V91H61zM64,90H65V91H64zM65,90H66V91H65zM66,90H67V91H66zM67,90H68V91H67zM68,90H69V91H68zM69,90H70V91H69zM71,90H72V91H71zM76,90H77V91H76zM78,90H79V91H78zM81,90H82V91H81zM82,90H83V91H82zM83,90H84V91H83zM84,90H85V91H84zM85,90H86V91H85zM86,90H87V91H86zM91,90H92V91H91zM92,90H93V91H92zM93,90H94V91H93zM94,90H95V91H94zM95,90H96V91H95zM96,90H97V91H96zM97,90H98V91H97zM99,90H100V91H99zM100,90H101V91H100zM102,90H103V91H102zM103,90H104V91H103zM104,90H105V91H104zM109,90H110V91H109zM111,90H112V91H111zM112,90H113V91H112zM4,91H5V92H4zM8,91H9V92H8zM11,91H12V92H11zM18,91H19V92H18zM20,91H21V92H20zM21,91H22V92H21zM22,91H23V92H22zM25,91H26V92H25zM30,91H31V92H30zM31,91H32V92H31zM32,91H33V92H32zM33,91H34V92H33zM37,91H38V92H37zM38,91H39V92H38zM40,91H41V92H40zM44,91H45V92H44zM45,91H46V92H45zM47,91H48V92H47zM49,91H50V92H49zM50,91H51V92H50zM51,91H52V92H51zM52,91H53V92H52zM54,91H55V92H54zM55,91H56V92H55zM59,91H60V92H59zM61,91H62V92H61zM63,91H64V92H63zM64,91H65V92H64zM65,91H66V92H65zM66,91H67V92H66zM67,91H68V92H67zM70,91H71V92H70zM71,91H72V92H71zM73,91H74V92H73zM74,91H75V92H74zM75,91H76V92H75zM78,91H79V92H78zM86,91H87V92H86zM87,91H88V92H87zM88,91H89V92H88zM89,91H90V92H89zM90,91H91V92H90zM92,91H93V92H92zM95,91H96V92H95zM99,91H100V92H99zM103,91H104V92H103zM104,91H105V92H104zM105,91H106V92H105zM109,91H110V92H109zM111,91H112V92H111zM112,91H113V92H112zM4,92H5V93H4zM5,92H6V93H5zM7,92H8V93H7zM10,92H11V93H10zM11,92H12V93H11zM14,92H15V93H14zM15,92H16V93H15zM17,92H18V93H17zM20,92H21V93H20zM22,92H23V93H22zM23,92H24V93H23zM26,92H27V93H26zM28,92H29V93H28zM30,92H31V93H30zM31,92H32V93H31zM37,92H38V93H37zM38,92H39V93H38zM40,92H41V93H40zM41,92H42V93H41zM42,92H43V93H42zM43,92H44V93H43zM44,92H45V93H44zM45,92H46V93H45zM48,92H49V93H48zM49,92H50V93H49zM52,92H53V93H52zM55,92H56V93H55zM56,92H57V93H56zM59,92H60V93H59zM61,92H62V93H61zM64,92H65V93H64zM65,92H66V93H65zM66,92H67V93H66zM69,92H70V93H69zM71,92H72V93H71zM72,92H73V93H72zM74,92H75V93H74zM75,92H76V93H75zM77,92H78V93H77zM78,92H79V93H78zM79,92H80V93H79zM80,92H81V93H80zM81,92H82V93H81zM84,92H85V93H84zM85,92H86V93H85zM86,92H87V93H86zM89,92H90V93H89zM90,92H91V93H90zM91,92H92V93H91zM92,92H93V93H92zM94,92H95V93H94zM95,92H96V93H95zM97,92H98V93H97zM101,92H102V93H101zM102,92H103V93H102zM103,92H104V93H103zM105,92H106V93H105zM106,92H107V93H106zM108,92H109V93H108zM109,92H110V93H109zM111,92H112V93H111zM112,92H113V93H112zM7,93H8V94H7zM8,93H9V94H8zM9,93H10V94H9zM11,93H12V94H11zM14,93H15V94H14zM16,93H17V94H16zM18,93H19V94H18zM20,93H21V94H20zM21,93H22V94H21zM23,93H24V94H23zM24,93H25V94H24zM25,93H26V94H25zM28,93H29V94H28zM31,93H32V94H31zM32,93H33V94H32zM33,93H34V94H33zM35,93H36V94H35zM39,93H40V94H39zM46,93H47V94H46zM48,93H49V94H48zM50,93H51V94H50zM52,93H53V94H52zM53,93H54V94H53zM54,93H55V94H54zM56,93H57V94H56zM58,93H59V94H58zM60,93H61V94H60zM63,93H64V94H63zM64,93H65V94H64zM65,93H66V94H65zM67,93H68V94H67zM69,93H70V94H69zM70,93H71V94H70zM72,93H73V94H72zM76,93H77V94H76zM77,93H78V94H77zM80,93H81V94H80zM82,93H83V94H82zM84,93H85V94H84zM85,93H86V94H85zM87,93H88V94H87zM88,93H89V94H88zM89,93H90V94H89zM92,93H93V94H92zM95,93H96V94H95zM99,93H100V94H99zM100,93H101V94H100zM101,93H102V94H101zM102,93H103V94H102zM103,93H104V94H103zM104,93H105V94H104zM108,93H109V94H108zM111,93H112V94H111zM112,93H113V94H112zM4,94H5V95H4zM5,94H6V95H5zM7,94H8V95H7zM10,94H11V95H10zM12,94H13V95H12zM14,94H15V95H14zM15,94H16V95H15zM18,94H19V95H18zM23,94H24V95H23zM24,94H25V95H24zM26,94H27V95H26zM28,94H29V95H28zM30,94H31V95H30zM31,94H32V95H31zM32,94H33V95H32zM34,94H35V95H34zM35,94H36V95H35zM37,94H38V95H37zM40,94H41V95H40zM41,94H42V95H41zM42,94H43V95H42zM43,94H44V95H43zM44,94H45V95H44zM47,94H48V95H47zM50,94H51V95H50zM51,94H52V95H51zM53,94H54V95H53zM54,94H55V95H54zM55,94H56V95H55zM56,94H57V95H56zM57,94H58V95H57zM58,94H59V95H58zM60,94H61V95H60zM62,94H63V95H62zM65,94H66V95H65zM66,94H67V95H66zM67,94H68V95H67zM69,94H70V95H69zM72,94H73V95H72zM74,94H75V95H74zM76,94H77V95H76zM77,94H78V95H77zM78,94H79V95H78zM79,94H80V95H79zM82,94H83V95H82zM84,94H85V95H84zM85,94H86V95H85zM86,94H87V95H86zM88,94H89V95H88zM91,94H92V95H91zM94,94H95V95H94zM95,94H96V95H95zM97,94H98V95H97zM98,94H99V95H98zM102,94H103V95H102zM103,94H104V95H103zM104,94H105V95H104zM105,94H106V95H105zM106,94H107V95H106zM111,94H112V95H111zM4,95H5V96H4zM5,95H6V96H5zM6,95H7V96H6zM8,95H9V96H8zM9,95H10V96H9zM14,95H15V96H14zM20,95H21V96H20zM21,95H22V96H21zM23,95H24V96H23zM25,95H26V96H25zM26,95H27V96H26zM27,95H28V96H27zM28,95H29V96H28zM29,95H30V96H29zM31,95H32V96H31zM35,95H36V96H35zM36,95H37V96H36zM38,95H39V96H38zM42,95H43V96H42zM43,95H44V96H43zM47,95H48V96H47zM48,95H49V96H48zM50,95H51V96H50zM52,95H53V96H52zM55,95H56V96H55zM56,95H57V96H56zM57,95H58V96H57zM59,95H60V96H59zM60,95H61V96H60zM61,95H62V96H61zM62,95H63V96H62zM63,95H64V96H63zM66,95H67V96H66zM69,95H70V96H69zM71,95H72V96H71zM72,95H73V96H72zM74,95H75V96H74zM75,95H76V96H75zM77,95H78V96H77zM78,95H79V96H78zM79,95H80V96H79zM80,95H81V96H80zM84,95H85V96H84zM85,95H86V96H85zM86,95H87V96H86zM87,95H88V96H87zM92,95H93V96H92zM94,95H95V96H94zM95,95H96V96H95zM98,95H99V96H98zM102,95H103V96H102zM103,95H104V96H103zM107,95H108V96H107zM110,95H111V96H110zM111,95H112V96H111zM5,96H6V97H5zM6,96H7V97H6zM7,96H8V97H7zM10,96H11V97H10zM13,96H14V97H13zM15,96H16V97H15zM17,96H18V97H17zM22,96H23V97H22zM23,96H24V97H23zM25,96H26V97H25zM27,96H28V97H27zM29,96H30V97H29zM32,96H33V97H32zM33,96H34V97H33zM35,96H36V97H35zM36,96H37V97H36zM37,96H38V97H37zM38,96H39V97H38zM41,96H42V97H41zM42,96H43V97H42zM43,96H44V97H43zM44,96H45V97H44zM45,96H46V97H45zM48,96H49V97H48zM54,96H55V97H54zM56,96H57V97H56zM57,96H58V97H57zM60,96H61V97H60zM61,96H62V97H61zM66,96H67V97H66zM68,96H69V97H68zM69,96H70V97H69zM70,96H71V97H70zM71,96H72V97H71zM75,96H76V97H75zM77,96H78V97H77zM78,96H79V97H78zM80,96H81V97H80zM81,96H82V97H81zM84,96H85V97H84zM87,96H88V97H87zM89,96H90V97H89zM93,96H94V97H93zM94,96H95V97H94zM95,96H96V97H95zM97,96H98V97H97zM100,96H101V97H100zM102,96H103V97H102zM103,96H104V97H103zM105,96H106V97H105zM106,96H107V97H106zM112,96H113V97H112zM4,97H5V98H4zM6,97H7V98H6zM7,97H8V98H7zM11,97H12V98H11zM13,97H14V98H13zM15,97H16V98H15zM16,97H17V98H16zM19,97H20V98H19zM20,97H21V98H20zM26,97H27V98H26zM28,97H29V98H28zM29,97H30V98H29zM31,97H32V98H31zM34,97H35V98H34zM35,97H36V98H35zM39,97H40V98H39zM40,97H41V98H40zM42,97H43V98H42zM44,97H45V98H44zM46,97H47V98H46zM51,97H52V98H51zM53,97H54V98H53zM54,97H55V98H54zM56,97H57V98H56zM57,97H58V98H57zM58,97H59V98H58zM63,97H64V98H63zM66,97H67V98H66zM70,97H71V98H70zM71,97H72V98H71zM72,97H73V98H72zM74,97H75V98H74zM83,97H84V98H83zM84,97H85V98H84zM87,97H88V98H87zM88,97H89V98H88zM89,97H90V98H89zM91,97H92V98H91zM92,97H93V98H92zM94,97H95V98H94zM95,97H96V98H95zM99,97H100V98H99zM100,97H101V98H100zM104,97H105V98H104zM106,97H107V98H106zM108,97H109V98H108zM110,97H111V98H110zM111,97H112V98H111zM5,98H6V99H5zM9,98H10V99H9zM10,98H11V99H10zM11,98H12V99H11zM12,98H13V99H12zM13,98H14V99H13zM15,98H16V99H15zM20,98H21V99H20zM21,98H22V99H21zM23,98H24V99H23zM24,98H25V99H24zM25,98H26V99H25zM31,98H32V99H31zM37,98H38V99H37zM38,98H39V99H38zM40,98H41V99H40zM44,98H45V99H44zM45,98H46V99H45zM46,98H47V99H46zM47,98H48V99H47zM50,98H51V99H50zM51,98H52V99H51zM52,98H53V99H52zM54,98H55V99H54zM59,98H60V99H59zM61,98H62V99H61zM63,98H64V99H63zM66,98H67V99H66zM67,98H68V99H67zM71,98H72V99H71zM73,98H74V99H73zM74,98H75V99H74zM75,98H76V99H75zM76,98H77V99H76zM83,98H84V99H83zM84,98H85V99H84zM86,98H87V99H86zM87,98H88V99H87zM91,98H92V99H91zM92,98H93V99H92zM93,98H94V99H93zM94,98H95V99H94zM98,98H99V99H98zM99,98H100V99H99zM100,98H101V99H100zM103,98H104V99H103zM104,98H105V99H104zM109,98H110V99H109zM110,98H111V99H110zM111,98H112V99H111zM4,99H5V100H4zM5,99H6V100H5zM6,99H7V100H6zM8,99H9V100H8zM11,99H12V100H11zM15,99H16V100H15zM17,99H18V100H17zM20,99H21V100H20zM21,99H22V100H21zM22,99H23V100H22zM23,99H24V100H23zM24,99H25V100H24zM30,99H31V100H30zM31,99H32V100H31zM34,99H35V100H34zM38,99H39V100H38zM39,99H40V100H39zM40,99H41V100H40zM45,99H46V100H45zM47,99H48V100H47zM49,99H50V100H49zM50,99H51V100H50zM51,99H52V100H51zM55,99H56V100H55zM56,99H57V100H56zM57,99H58V100H57zM58,99H59V100H58zM59,99H60V100H59zM60,99H61V100H60zM64,99H65V100H64zM65,99H66V100H65zM67,99H68V100H67zM68,99H69V100H68zM69,99H70V100H69zM71,99H72V100H71zM73,99H74V100H73zM79,99H80V100H79zM87,99H88V100H87zM90,99H91V100H90zM92,99H93V100H92zM95,99H96V100H95zM98,99H99V100H98zM99,99H100V100H99zM103,99H104V100H103zM104,99H105V100H104zM105,99H106V100H105zM109,99H110V100H109zM110,99H111V100H110zM111,99H112V100H111zM4,100H5V101H4zM5,100H6V101H5zM7,100H8V101H7zM8,100H9V101H8zM9,100H10V101H9zM10,100H11V101H10zM13,100H14V101H13zM14,100H15V101H14zM16,100H17V101H16zM18,100H19V101H18zM20,100H21V101H20zM21,100H22V101H21zM22,100H23V101H22zM23,100H24V101H23zM28,100H29V101H28zM29,100H30V101H29zM30,100H31V101H30zM31,100H32V101H31zM33,100H34V101H33zM38,100H39V101H38zM39,100H40V101H39zM45,100H46V101H45zM46,100H47V101H46zM47,100H48V101H47zM49,100H50V101H49zM54,100H55V101H54zM59,100H60V101H59zM61,100H62V101H61zM62,100H63V101H62zM65,100H66V101H65zM66,100H67V101H66zM67,100H68V101H67zM68,100H69V101H68zM72,100H73V101H72zM75,100H76V101H75zM77,100H78V101H77zM84,100H85V101H84zM86,100H87V101H86zM87,100H88V101H87zM88,100H89V101H88zM89,100H90V101H89zM91,100H92V101H91zM92,100H93V101H92zM94,100H95V101H94zM95,100H96V101H95zM96,100H97V101H96zM97,100H98V101H97zM102,100H103V101H102zM103,100H104V101H103zM105,100H106V101H105zM106,100H107V101H106zM107,100H108V101H107zM108,100H109V101H108zM110,100H111V101H110zM111,100H112V101H111zM4,101H5V102H4zM5,101H6V102H5zM6,101H7V102H6zM8,101H9V102H8zM9,101H10V102H9zM13,101H14V102H13zM14,101H15V102H14zM19,101H20V102H19zM20,101H21V102H20zM21,101H22V102H21zM24,101H25V102H24zM26,101H27V102H26zM28,101H29V102H28zM29,101H30V102H29zM30,101H31V102H30zM34,101H35V102H34zM35,101H36V102H35zM37,101H38V102H37zM38,101H39V102H38zM39,101H40V102H39zM40,101H41V102H40zM43,101H44V102H43zM45,101H46V102H45zM48,101H49V102H48zM51,101H52V102H51zM52,101H53V102H52zM53,101H54V102H53zM57,101H58V102H57zM58,101H59V102H58zM60,101H61V102H60zM61,101H62V102H61zM63,101H64V102H63zM65,101H66V102H65zM67,101H68V102H67zM70,101H71V102H70zM72,101H73V102H72zM73,101H74V102H73zM76,101H77V102H76zM77,101H78V102H77zM80,101H81V102H80zM82,101H83V102H82zM87,101H88V102H87zM88,101H89V102H88zM90,101H91V102H90zM95,101H96V102H95zM97,101H98V102H97zM98,101H99V102H98zM99,101H100V102H99zM100,101H101V102H100zM101,101H102V102H101zM103,101H104V102H103zM104,101H105V102H104zM106,101H107V102H106zM107,101H108V102H107zM108,101H109V102H108zM111,101H112V102H111zM5,102H6V103H5zM6,102H7V103H6zM7,102H8V103H7zM8,102H9V103H8zM10,102H11V103H10zM12,102H13V103H12zM13,102H14V103H13zM14,102H15V103H14zM15,102H16V103H15zM17,102H18V103H17zM19,102H20V103H19zM20,102H21V103H20zM22,102H23V103H22zM24,102H25V103H24zM25,102H26V103H25zM27,102H28V103H27zM28,102H29V103H28zM29,102H30V103H29zM32,102H33V103H32zM33,102H34V103H33zM34,102H35V103H34zM38,102H39V103H38zM40,102H41V103H40zM42,102H43V103H42zM44,102H45V103H44zM45,102H46V103H45zM47,102H48V103H47zM48,102H49V103H48zM50,102H51V103H50zM51,102H52V103H51zM52,102H53V103H52zM53,102H54V103H53zM55,102H56V103H55zM56,102H57V103H56zM60,102H61V103H60zM65,102H66V103H65zM66,102H67V103H66zM67,102H68V103H67zM68,102H69V103H68zM69,102H70V103H69zM72,102H73V103H72zM73,102H74V103H73zM74,102H75V103H74zM79,102H80V103H79zM80,102H81V103H80zM82,102H83V103H82zM83,102H84V103H83zM86,102H87V103H86zM89,102H90V103H89zM90,102H91V103H90zM92,102H93V103H92zM94,102H95V103H94zM97,102H98V103H97zM98,102H99V103H98zM101,102H102V103H101zM103,102H104V103H103zM104,102H105V103H104zM106,102H107V103H106zM110,102H111V103H110zM111,102H112V103H111zM6,103H7V104H6zM7,103H8V104H7zM8,103H9V104H8zM9,103H10V104H9zM11,103H12V104H11zM12,103H13V104H12zM24,103H25V104H24zM25,103H26V104H25zM26,103H27V104H26zM28,103H29V104H28zM30,103H31V104H30zM31,103H32V104H31zM32,103H33V104H32zM33,103H34V104H33zM35,103H36V104H35zM37,103H38V104H37zM38,103H39V104H38zM41,103H42V104H41zM42,103H43V104H42zM43,103H44V104H43zM45,103H46V104H45zM46,103H47V104H46zM50,103H51V104H50zM51,103H52V104H51zM52,103H53V104H52zM54,103H55V104H54zM55,103H56V104H55zM57,103H58V104H57zM58,103H59V104H58zM61,103H62V104H61zM62,103H63V104H62zM63,103H64V104H63zM66,103H67V104H66zM67,103H68V104H67zM69,103H70V104H69zM71,103H72V104H71zM72,103H73V104H72zM74,103H75V104H74zM77,103H78V104H77zM78,103H79V104H78zM79,103H80V104H79zM80,103H81V104H80zM84,103H85V104H84zM85,103H86V104H85zM87,103H88V104H87zM89,103H90V104H89zM91,103H92V104H91zM92,103H93V104H92zM94,103H95V104H94zM95,103H96V104H95zM97,103H98V104H97zM98,103H99V104H98zM101,103H102V104H101zM103,103H104V104H103zM106,103H107V104H106zM109,103H110V104H109zM111,103H112V104H111zM112,103H113V104H112zM4,104H5V105H4zM5,104H6V105H5zM6,104H7V105H6zM8,104H9V105H8zM10,104H11V105H10zM11,104H12V105H11zM13,104H14V105H13zM14,104H15V105H14zM15,104H16V105H15zM17,104H18V105H17zM19,104H20V105H19zM20,104H21V105H20zM22,104H23V105H22zM26,104H27V105H26zM29,104H30V105H29zM30,104H31V105H30zM32,104H33V105H32zM33,104H34V105H33zM34,104H35V105H34zM35,104H36V105H35zM36,104H37V105H36zM40,104H41V105H40zM42,104H43V105H42zM46,104H47V105H46zM47,104H48V105H47zM48,104H49V105H48zM49,104H50V105H49zM50,104H51V105H50zM52,104H53V105H52zM54,104H55V105H54zM56,104H57V105H56zM57,104H58V105H57zM58,104H59V105H58zM59,104H60V105H59zM60,104H61V105H60zM61,104H62V105H61zM62,104H63V105H62zM65,104H66V105H65zM66,104H67V105H66zM68,104H69V105H68zM69,104H70V105H69zM70,104H71V105H70zM71,104H72V105H71zM72,104H73V105H72zM74,104H75V105H74zM77,104H78V105H77zM78,104H79V105H78zM79,104H80V105H79zM80,104H81V105H80zM81,104H82V105H81zM82,104H83V105H82zM83,104H84V105H83zM84,104H85V105H84zM86,104H87V105H86zM88,104H89V105H88zM89,104H90V105H89zM90,104H91V105H90zM91,104H92V105H91zM93,104H94V105H93zM94,104H95V105H94zM95,104H96V105H95zM96,104H97V105H96zM97,104H98V105H97zM100,104H101V105H100zM101,104H102V105H101zM102,104H103V105H102zM103,104H104V105H103zM104,104H105V105H104zM105,104H106V105H105zM106,104H107V105H106zM107,104H108V105H107zM108,104H109V105H108zM110,104H111V105H110zM111,104H112V105H111zM12,105H13V106H12zM14,105H15V106H14zM15,105H16V106H15zM16,105H17V106H16zM17,105H18V106H17zM22,105H23V106H22zM23,105H24V106H23zM26,105H27V106H26zM28,105H29V106H28zM31,105H32V106H31zM32,105H33V106H32zM36,105H37V106H36zM42,105H43V106H42zM44,105H45V106H44zM48,105H49V106H48zM49,105H50V106H49zM50,105H51V106H50zM52,105H53V106H52zM54,105H55V106H54zM56,105H57V106H56zM60,105H61V106H60zM61,105H62V106H61zM62,105H63V106H62zM64,105H65V106H64zM67,105H68V106H67zM69,105H70V106H69zM70,105H71V106H70zM72,105H73V106H72zM73,105H74V106H73zM76,105H77V106H76zM80,105H81V106H80zM84,105H85V106H84zM85,105H86V106H85zM87,105H88V106H87zM88,105H89V106H88zM90,105H91V106H90zM96,105H97V106H96zM97,105H98V106H97zM99,105H100V106H99zM100,105H101V106H100zM104,105H105V106H104zM108,105H109V106H108zM4,106H5V107H4zM5,106H6V107H5zM6,106H7V107H6zM7,106H8V107H7zM8,106H9V107H8zM9,106H10V107H9zM10,106H11V107H10zM15,106H16V107H15zM16,106H17V107H16zM21,106H22V107H21zM22,106H23V107H22zM23,106H24V107H23zM26,106H27V107H26zM28,106H29V107H28zM29,106H30V107H29zM31,106H32V107H31zM32,106H33V107H32zM34,106H35V107H34zM36,106H37V107H36zM37,106H38V107H37zM39,106H40V107H39zM40,106H41V107H40zM41,106H42V107H41zM42,106H43V107H42zM43,106H44V107H43zM46,106H47V107H46zM48,106H49V107H48zM49,106H50V107H49zM52,106H53V107H52zM54,106H55V107H54zM56,106H57V107H56zM58,106H59V107H58zM60,106H61V107H60zM61,106H62V107H61zM63,106H64V107H63zM64,106H65V107H64zM74,106H75V107H74zM78,106H79V107H78zM79,106H80V107H79zM80,106H81V107H80zM82,106H83V107H82zM84,106H85V107H84zM86,106H87V107H86zM87,106H88V107H87zM88,106H89V107H88zM91,106H92V107H91zM93,106H94V107H93zM95,106H96V107H95zM98,106H99V107H98zM99,106H100V107H99zM100,106H101V107H100zM102,106H103V107H102zM103,106H104V107H103zM104,106H105V107H104zM106,106H107V107H106zM108,106H109V107H108zM109,106H110V107H109zM111,106H112V107H111zM4,107H5V108H4zM10,107H11V108H10zM13,107H14V108H13zM15,107H16V108H15zM16,107H17V108H16zM18,107H19V108H18zM20,107H21V108H20zM22,107H23V108H22zM23,107H24V108H23zM26,107H27V108H26zM27,107H28V108H27zM30,107H31V108H30zM32,107H33V108H32zM36,107H37V108H36zM37,107H38V108H37zM38,107H39V108H38zM42,107H43V108H42zM43,107H44V108H43zM44,107H45V108H44zM47,107H48V108H47zM48,107H49V108H48zM52,107H53V108H52zM54,107H55V108H54zM55,107H56V108H55zM56,107H57V108H56zM60,107H61V108H60zM61,107H62V108H61zM62,107H63V108H62zM63,107H64V108H63zM66,107H67V108H66zM68,107H69V108H68zM69,107H70V108H69zM71,107H72V108H71zM73,107H74V108H73zM74,107H75V108H74zM75,107H76V108H75zM80,107H81V108H80zM84,107H85V108H84zM86,107H87V108H86zM89,107H90V108H89zM92,107H93V108H92zM96,107H97V108H96zM98,107H99V108H98zM100,107H101V108H100zM102,107H103V108H102zM104,107H105V108H104zM108,107H109V108H108zM109,107H110V108H109zM110,107H111V108H110zM112,107H113V108H112zM4,108H5V109H4zM6,108H7V109H6zM7,108H8V109H7zM8,108H9V109H8zM10,108H11V109H10zM12,108H13V109H12zM13,108H14V109H13zM18,108H19V109H18zM20,108H21V109H20zM24,108H25V109H24zM25,108H26V109H25zM29,108H30V109H29zM30,108H31V109H30zM31,108H32V109H31zM32,108H33V109H32zM33,108H34V109H33zM34,108H35V109H34zM35,108H36V109H35zM36,108H37V109H36zM38,108H39V109H38zM42,108H43V109H42zM43,108H44V109H43zM44,108H45V109H44zM45,108H46V109H45zM47,108H48V109H47zM48,108H49V109H48zM52,108H53V109H52zM54,108H55V109H54zM55,108H56V109H55zM56,108H57V109H56zM57,108H58V109H57zM58,108H59V109H58zM59,108H60V109H59zM60,108H61V109H60zM61,108H62V109H61zM62,108H63V109H62zM65,108H66V109H65zM68,108H69V109H68zM69,108H70V109H69zM70,108H71V109H70zM74,108H75V109H74zM75,108H76V109H75zM76,108H77V109H76zM77,108H78V109H77zM79,108H80V109H79zM80,108H81V109H80zM81,108H82V109H81zM82,108H83V109H82zM83,108H84V109H83zM84,108H85V109H84zM87,108H88V109H87zM89,108H90V109H89zM90,108H91V109H90zM92,108H93V109H92zM95,108H96V109H95zM97,108H98V109H97zM102,108H103V109H102zM104,108H105V109H104zM105,108H106V109H105zM106,108H107V109H106zM107,108H108V109H107zM108,108H109V109H108zM110,108H111V109H110zM112,108H113V109H112zM4,109H5V110H4zM6,109H7V110H6zM7,109H8V110H7zM8,109H9V110H8zM10,109H11V110H10zM13,109H14V110H13zM14,109H15V110H14zM20,109H21V110H20zM21,109H22V110H21zM24,109H25V110H24zM26,109H27V110H26zM27,109H28V110H27zM30,109H31V110H30zM31,109H32V110H31zM33,109H34V110H33zM36,109H37V110H36zM37,109H38V110H37zM39,109H40V110H39zM42,109H43V110H42zM44,109H45V110H44zM46,109H47V110H46zM47,109H48V110H47zM49,109H50V110H49zM50,109H51V110H50zM52,109H53V110H52zM53,109H54V110H53zM54,109H55V110H54zM56,109H57V110H56zM61,109H62V110H61zM64,109H65V110H64zM66,109H67V110H66zM67,109H68V110H67zM70,109H71V110H70zM72,109H73V110H72zM76,109H77V110H76zM82,109H83V110H82zM84,109H85V110H84zM85,109H86V110H85zM86,109H87V110H86zM87,109H88V110H87zM89,109H90V110H89zM92,109H93V110H92zM93,109H94V110H93zM96,109H97V110H96zM98,109H99V110H98zM99,109H100V110H99zM100,109H101V110H100zM101,109H102V110H101zM102,109H103V110H102zM105,109H106V110H105zM106,109H107V110H106zM107,109H108V110H107zM108,109H109V110H108zM110,109H111V110H110zM112,109H113V110H112zM4,110H5V111H4zM6,110H7V111H6zM7,110H8V111H7zM8,110H9V111H8zM10,110H11V111H10zM13,110H14V111H13zM15,110H16V111H15zM19,110H20V111H19zM20,110H21V111H20zM22,110H23V111H22zM23,110H24V111H23zM25,110H26V111H25zM28,110H29V111H28zM29,110H30V111H29zM31,110H32V111H31zM33,110H34V111H33zM34,110H35V111H34zM35,110H36V111H35zM42,110H43V111H42zM44,110H45V111H44zM49,110H50V111H49zM51,110H52V111H51zM52,110H53V111H52zM53,110H54V111H53zM54,110H55V111H54zM55,110H56V111H55zM56,110H57V111H56zM57,110H58V111H57zM58,110H59V111H58zM60,110H61V111H60zM61,110H62V111H61zM63,110H64V111H63zM64,110H65V111H64zM65,110H66V111H65zM70,110H71V111H70zM74,110H75V111H74zM75,110H76V111H75zM76,110H77V111H76zM77,110H78V111H77zM79,110H80V111H79zM81,110H82V111H81zM87,110H88V111H87zM88,110H89V111H88zM89,110H90V111H89zM91,110H92V111H91zM92,110H93V111H92zM95,110H96V111H95zM97,110H98V111H97zM101,110H102V111H101zM103,110H104V111H103zM104,110H105V111H104zM105,110H106V111H105zM106,110H107V111H106zM107,110H108V111H107zM109,110H110V111H109zM111,110H112V111H111zM4,111H5V112H4zM10,111H11V112H10zM12,111H13V112H12zM14,111H15V112H14zM17,111H18V112H17zM19,111H20V112H19zM20,111H21V112H20zM22,111H23V112H22zM23,111H24V112H23zM24,111H25V112H24zM25,111H26V112H25zM26,111H27V112H26zM27,111H28V112H27zM28,111H29V112H28zM30,111H31V112H30zM34,111H35V112H34zM37,111H38V112H37zM44,111H45V112H44zM45,111H46V112H45zM47,111H48V112H47zM50,111H51V112H50zM51,111H52V112H51zM52,111H53V112H52zM54,111H55V112H54zM59,111H60V112H59zM60,111H61V112H60zM61,111H62V112H61zM62,111H63V112H62zM63,111H64V112H63zM64,111H65V112H64zM66,111H67V112H66zM69,111H70V112H69zM73,111H74V112H73zM80,111H81V112H80zM81,111H82V112H81zM84,111H85V112H84zM86,111H87V112H86zM87,111H88V112H87zM91,111H92V112H91zM92,111H93V112H92zM93,111H94V112H93zM95,111H96V112H95zM98,111H99V112H98zM101,111H102V112H101zM103,111H104V112H103zM105,111H106V112H105zM109,111H110V112H109zM111,111H112V112H111zM4,112H5V113H4zM5,112H6V113H5zM6,112H7V113H6zM7,112H8V113H7zM8,112H9V113H8zM9,112H10V113H9zM10,112H11V113H10zM13,112H14V113H13zM14,112H15V113H14zM15,112H16V113H15zM17,112H18V113H17zM18,112H19V113H18zM19,112H20V113H19zM22,112H23V113H22zM27,112H28V113H27zM29,112H30V113H29zM30,112H31V113H30zM31,112H32V113H31zM33,112H34V113H33zM34,112H35V113H34zM35,112H36V113H35zM36,112H37V113H36zM38,112H39V113H38zM39,112H40V113H39zM41,112H42V113H41zM44,112H45V113H44zM46,112H47V113H46zM47,112H48V113H47zM48,112H49V113H48zM51,112H52V113H51zM52,112H53V113H52zM54,112H55V113H54zM59,112H60V113H59zM60,112H61V113H60zM61,112H62V113H61zM66,112H67V113H66zM68,112H69V113H68zM69,112H70V113H69zM70,112H71V113H70zM72,112H73V113H72zM73,112H74V113H73zM74,112H75V113H74zM76,112H77V113H76zM77,112H78V113H77zM79,112H80V113H79zM80,112H81V113H80zM83,112H84V113H83zM85,112H86V113H85zM87,112H88V113H87zM88,112H89V113H88zM89,112H90V113H89zM92,112H93V113H92zM94,112H95V113H94zM96,112H97V113H96zM97,112H98V113H97zM102,112H103V113H102zM105,112H106V113H105zM106,112H107V113H106zM109,112H110V113H109zM111,112H112V113H111zM112,112H113V113H112z" id="qr-path" fill="#000000" fill-opacity="1" fill-rule="nonzero" stroke="none" /></svg>